<svg id="Layer_2" data-name="Layer 2" xmlns="http://www.w3.org/2000/svg" viewBox="0 0 446.19 446.5"><defs><style>.cls-1{fill:#127173;}.cls-2{fill:none;}.cls-3{fill:#10bc97;}</style></defs><title>3</title><path class="cls-1" d="M677.05,584.23c-111.8-9.24-200.24-100.86-204.44-214a222.92,222.92,0,0,1,204.44,214Z" transform="translate(-472.61 -138.5)"/><path class="cls-1" d="M918.74,371C913.92,489.93,816,584.89,695.89,585A222.92,222.92,0,0,1,918.74,371Z" transform="translate(-472.61 -138.5)"/><path class="cls-1" d="M918.8,354.05a225.63,225.63,0,0,1-40.2-3.63A222.92,222.92,0,0,1,695.83,138.5C816.49,138.58,914.75,234.37,918.8,354.05Z" transform="translate(-472.61 -138.5)"/><path class="cls-2" d="M677.05,584.23c-111.8-9.24-200.24-100.86-204.44-214a222.92,222.92,0,0,1,204.44,214Z" transform="translate(-472.61 -138.5)"/><path class="cls-2" d="M918.74,371C913.92,489.93,816,584.89,695.89,585A222.92,222.92,0,0,1,918.74,371Z" transform="translate(-472.61 -138.5)"/><path class="cls-2" d="M918.8,354.05a225.63,225.63,0,0,1-40.2-3.63A222.92,222.92,0,0,1,695.83,138.5C816.49,138.58,914.75,234.37,918.8,354.05Z" transform="translate(-472.61 -138.5)"/><path class="cls-3" d="M671.36,541.7A182.47,182.47,0,0,1,514.8,377.84,223.62,223.62,0,0,1,671.36,541.7Z" transform="translate(-472.61 -138.5)"/><path class="cls-3" d="M878.4,374.65c-6.87,92.72-83,166.16-176.89,168.7A223.58,223.58,0,0,1,878.4,374.65Z" transform="translate(-472.61 -138.5)"/><path class="cls-3" d="M878.6,350.42A223.52,223.52,0,0,1,700.82,178.59,182.42,182.42,0,0,1,878.6,350.42Z" transform="translate(-472.61 -138.5)"/><path class="cls-1" d="M677,139.27a222.24,222.24,0,0,1-5.62,41A182.47,182.47,0,0,0,514.8,344.12a222.83,222.83,0,0,1-42.13,7.62C477.61,239.33,565.73,148.51,677,139.27Z" transform="translate(-472.61 -138.5)"/><path class="cls-3" d="M671.36,180.26A223.62,223.62,0,0,1,514.8,344.12,182.47,182.47,0,0,1,671.36,180.26Z" transform="translate(-472.61 -138.5)"/></svg>