<svg xmlns="http://www.w3.org/2000/svg" viewBox="0 0 1400 1400" width="1400" height="1400"
    style="width: 100%; height: 100%; transform: translate3d(0,0,0);" preserveAspectRatio="xMidYMid meet">
    <defs>
        <clipPath id="__lottie_element_2">
            <rect width="1400" height="1400" x="0" y="0"></rect>
        </clipPath>
    </defs>
    <g clip-path="url(#__lottie_element_2)">
        <g style="display: block;"
            transform="matrix(0.9902680516242981,-0.13917310535907745,0.13917310535907745,0.9902680516242981,477.9683532714844,1381.4373779296875)"
            opacity="1">
            <g opacity="1" transform="matrix(1,0,0,1,0,0)">
                <path fill="rgb(255,183,0)" fill-opacity="1"
                    d=" M78.69200134277344,114.40799713134766 C78.69200134277344,114.40799713134766 18.69099998474121,-53.2400016784668 -79.00900268554688,-114.40799713134766 C-79.00900268554688,-114.40799713134766 18.690000534057617,-88.9209976196289 79.00900268554688,68.24800109863281 C79.00900268554688,68.24800109863281 78.69200134277344,114.40799713134766 78.69200134277344,114.40799713134766z">
                </path>
            </g>
        </g>
        <g style="display: block;"
            transform="matrix(0.9902680516242981,-0.13917310535907745,0.13917310535907745,0.9902680516242981,613.1312255859375,1302.3880615234375)"
            opacity="1">
            <g opacity="1" transform="matrix(1,0,0,1,0,0)">
                <path fill="rgb(255,183,0)" fill-opacity="1"
                    d=" M-66.4209976196289,96.56700134277344 C-66.4209976196289,96.56700134277344 -15.776000022888184,-44.9370002746582 66.68800354003906,-96.56700134277344 C66.68800354003906,-96.56700134277344 -15.774999618530273,-75.05400085449219 -66.68800354003906,57.60599899291992 C-66.68800354003906,57.60599899291992 -66.4209976196289,96.56700134277344 -66.4209976196289,96.56700134277344z">
                </path>
            </g>
        </g>
        <g style="display: block;"
            transform="matrix(0.9902680516242981,-0.13917310535907745,0.13917310535907745,0.9902680516242981,471.0300598144531,1200.822265625)"
            opacity="1">
            <g opacity="1" transform="matrix(1,0,0,1,0,0)">
                <path fill="rgb(255,183,0)" fill-opacity="1"
                    d=" M60.74399948120117,81.55799865722656 C60.74399948120117,81.55799865722656 -51.39899826049805,34.832000732421875 -60.74399948120117,-81.55799865722656 C-60.74399948120117,-81.55799865722656 -50.54800033569336,-61.16899871826172 -26.76099967956543,-54.37200164794922 C-2.9730000495910645,-47.57600021362305 41.20399856567383,-27.18600082397461 60.74399948120117,81.55799865722656z">
                </path>
            </g>
        </g>
        <g style="display: block;"
            transform="matrix(0.9902680516242981,-0.13917310535907745,0.13917310535907745,0.9902680516242981,458.3788146972656,1110.803955078125)"
            opacity="1">
            <g opacity="1" transform="matrix(1,0,0,1,0,0)">
                <path fill="rgb(255,183,0)" fill-opacity="1"
                    d=" M60.74399948120117,81.55799865722656 C60.74399948120117,81.55799865722656 -51.39899826049805,34.832000732421875 -60.74399948120117,-81.55799865722656 C-60.74399948120117,-81.55799865722656 -50.54800033569336,-61.167999267578125 -26.76099967956543,-54.37200164794922 C-2.9730000495910645,-47.57500076293945 41.20399856567383,-27.18600082397461 60.74399948120117,81.55799865722656z">
                </path>
            </g>
        </g>
        <g style="display: block;"
            transform="matrix(0.9902680516242981,-0.13917310535907745,0.13917310535907745,0.9902680516242981,448.4005432128906,1018.4357299804688)"
            opacity="1">
            <g opacity="1" transform="matrix(1,0,0,1,0,0)">
                <path fill="rgb(255,183,0)" fill-opacity="1"
                    d=" M57.77000045776367,77.56500244140625 C57.77000045776367,77.56500244140625 -48.882999420166016,33.12699890136719 -57.77000045776367,-77.56500244140625 C-57.77000045776367,-77.56500244140625 -48.07400131225586,-58.17499923706055 -25.451000213623047,-51.71099853515625 C-2.828000068664551,-45.24700164794922 39.1870002746582,-25.856000900268555 57.77000045776367,77.56500244140625z">
                </path>
            </g>
        </g>
        <g style="display: block;"
            transform="matrix(0.9902680516242981,-0.13917310535907745,0.13917310535907745,0.9902680516242981,435.39453125,925.8931884765625)"
            opacity="1">
            <g opacity="1" transform="matrix(1,0,0,1,0,0)">
                <path fill="rgb(255,183,0)" fill-opacity="1"
                    d=" M57.77000045776367,77.56500244140625 C57.77000045776367,77.56500244140625 -48.882999420166016,33.12799835205078 -57.77000045776367,-77.56500244140625 C-57.77000045776367,-77.56500244140625 -48.07400131225586,-58.17399978637695 -25.451000213623047,-51.71099853515625 C-2.828000068664551,-45.24700164794922 39.1870002746582,-25.856000900268555 57.77000045776367,77.56500244140625z">
                </path>
            </g>
        </g>
        <g style="display: block;"
            transform="matrix(0.9902680516242981,-0.13917310535907745,0.13917310535907745,0.9902680516242981,429.94183349609375,840.268798828125)"
            opacity="1">
            <g opacity="1" transform="matrix(1,0,0,1,0,0)">
                <path fill="rgb(255,183,0)" fill-opacity="1"
                    d=" M51.25299835205078,68.81500244140625 C51.25299835205078,68.81500244140625 -43.36800003051758,29.388999938964844 -51.25299835205078,-68.81500244140625 C-51.25299835205078,-68.81500244140625 -42.650001525878906,-51.611000061035156 -22.57900047302246,-45.875999450683594 C-2.509000062942505,-40.14099884033203 34.76599884033203,-22.937000274658203 51.25299835205078,68.81500244140625z">
                </path>
            </g>
        </g>
        <g style="display: block;"
            transform="matrix(0.9902680516242981,-0.13917310535907745,0.13917310535907745,0.9902680516242981,592.176513671875,1183.7962646484375)"
            opacity="1">
            <g opacity="1" transform="matrix(1,0,0,1,0,0)">
                <path fill="rgb(255,183,0)" fill-opacity="1"
                    d=" M-60.74399948120117,81.55799865722656 C-60.74399948120117,81.55799865722656 51.39799880981445,34.832000732421875 60.74399948120117,-81.55799865722656 C60.74399948120117,-81.55799865722656 50.54899978637695,-61.16899871826172 26.76099967956543,-54.37200164794922 C2.9739999771118164,-47.57600021362305 -41.20399856567383,-27.18600082397461 -60.74399948120117,81.55799865722656z">
                </path>
            </g>
        </g>
        <g style="display: block;"
            transform="matrix(0.9902680516242981,-0.13917310535907745,0.13917310535907745,0.9902680516242981,579.5252075195312,1093.7779541015625)"
            opacity="1">
            <g opacity="1" transform="matrix(1,0,0,1,0,0)">
                <path fill="rgb(255,183,0)" fill-opacity="1"
                    d=" M-60.74399948120117,81.55799865722656 C-60.74399948120117,81.55799865722656 51.39799880981445,34.832000732421875 60.74399948120117,-81.55799865722656 C60.74399948120117,-81.55799865722656 50.54899978637695,-61.167999267578125 26.76099967956543,-54.37200164794922 C2.9739999771118164,-47.57500076293945 -41.20399856567383,-27.18600082397461 -60.74399948120117,81.55799865722656z">
                </path>
            </g>
        </g>
        <g style="display: block;"
            transform="matrix(0.9902680516242981,-0.13917310535907745,0.13917310535907745,0.9902680516242981,563.6568603515625,1002.2374877929688)"
            opacity="1">
            <g opacity="1" transform="matrix(1,0,0,1,0,0)">
                <path fill="rgb(255,183,0)" fill-opacity="1"
                    d=" M-57.77000045776367,77.56500244140625 C-57.77000045776367,77.56500244140625 48.882999420166016,33.12699890136719 57.77000045776367,-77.56500244140625 C57.77000045776367,-77.56500244140625 48.07400131225586,-58.17499923706055 25.451000213623047,-51.71099853515625 C2.828000068664551,-45.24700164794922 -39.1870002746582,-25.856000900268555 -57.77000045776367,77.56500244140625z">
                </path>
            </g>
        </g>
        <g style="display: block;"
            transform="matrix(0.9902680516242981,-0.13917310535907745,0.13917310535907745,0.9902680516242981,550.6508178710938,909.6950073242188)"
            opacity="1">
            <g opacity="1" transform="matrix(1,0,0,1,0,0)">
                <path fill="rgb(255,183,0)" fill-opacity="1"
                    d=" M-57.77000045776367,77.56500244140625 C-57.77000045776367,77.56500244140625 48.882999420166016,33.12799835205078 57.77000045776367,-77.56500244140625 C57.77000045776367,-77.56500244140625 48.07400131225586,-58.17399978637695 25.451000213623047,-51.71099853515625 C2.828000068664551,-45.24700164794922 -39.1870002746582,-25.856000900268555 -57.77000045776367,77.56500244140625z">
                </path>
            </g>
        </g>
        <g style="display: block;"
            transform="matrix(0.9902680516242981,-0.13917310535907745,0.13917310535907745,0.9902680516242981,532.291015625,825.884521484375)"
            opacity="1">
            <g opacity="1" transform="matrix(1,0,0,1,0,0)">
                <path fill="rgb(255,183,0)" fill-opacity="1"
                    d=" M-51.25299835205078,68.81500244140625 C-51.25299835205078,68.81500244140625 43.36800003051758,29.388999938964844 51.25299835205078,-68.81500244140625 C51.25299835205078,-68.81500244140625 42.650001525878906,-51.611000061035156 22.57900047302246,-45.875999450683594 C2.509000062942505,-40.14099884033203 -34.76599884033203,-22.937000274658203 -51.25299835205078,68.81500244140625z">
                </path>
            </g>
        </g>
        <g style="display: block;"
            transform="matrix(0.9902680516242981,-0.13917310535907745,0.13917310535907745,0.9902680516242981,427.7655944824219,770.2260131835938)"
            opacity="1">
            <g opacity="1" transform="matrix(1,0,0,1,0,0)">
                <path fill="rgb(255,183,0)" fill-opacity="1"
                    d=" M43.659000396728516,58.61899948120117 C43.659000396728516,58.61899948120117 -36.94300079345703,25.035999298095703 -43.659000396728516,-58.61899948120117 C-43.659000396728516,-58.61899948120117 -36.33300018310547,-43.9640007019043 -19.235000610351562,-39.07899856567383 C-2.138000011444092,-34.194000244140625 29.61400032043457,-19.541000366210938 43.659000396728516,58.61899948120117z">
                </path>
            </g>
        </g>
        <g style="display: block;"
            transform="matrix(0.9902680516242981,-0.13917310535907745,0.13917310535907745,0.9902680516242981,513.1564331054688,758.22509765625)"
            opacity="1">
            <g opacity="1" transform="matrix(1,0,0,1,0,0)">
                <path fill="rgb(255,183,0)" fill-opacity="1"
                    d=" M-43.659000396728516,58.61899948120117 C-43.659000396728516,58.61899948120117 36.94300079345703,25.035999298095703 43.659000396728516,-58.61899948120117 C43.659000396728516,-58.61899948120117 36.33300018310547,-43.9640007019043 19.235000610351562,-39.07899856567383 C2.138000011444092,-34.194000244140625 -29.61400032043457,-19.541000366210938 -43.659000396728516,58.61899948120117z">
                </path>
            </g>
        </g>
        <g style="display: block;"
            transform="matrix(0.9902680516242981,-0.13917310535907745,0.13917310535907745,0.9902680516242981,518.358642578125,1101.8017578125)"
            opacity="1">
            <g opacity="1" transform="matrix(1,0,0,1,0,0)">
                <path fill="rgb(255,183,0)" fill-opacity="1"
                    d=" M-0.22200000286102295,385.70098876953125 C-14.628999710083008,385.70098876953125 -8.758999824523926,-385.70098876953125 -0.22200000286102295,-385.70098876953125 C8.3149995803833,-385.70098876953125 15.251999855041504,385.70098876953125 -0.22200000286102295,385.70098876953125z">
                </path>
            </g>
        </g>
        <g style="display: block;"
            transform="matrix(0.6982948184013367,0.04882952943444252,-0.04882952943444252,0.6982948184013367,904.3683471679688,1180.676513671875)"
            opacity="1">
            <g opacity="1" transform="matrix(1,0,0,1,0,0)">
                <path fill="rgb(255,95,32)" fill-opacity="1"
                    d=" M12.428999900817871,427.9859924316406 C12.428999900817871,427.9859924316406 -47.573001861572266,260.3389892578125 -145.2729949951172,199.17100524902344 C-145.2729949951172,199.17100524902344 -47.573001861572266,224.65699768066406 12.746000289916992,381.82598876953125 C12.746000289916992,381.82598876953125 12.428999900817871,427.9859924316406 12.428999900817871,427.9859924316406z">
                </path>
            </g>
            <g opacity="1" transform="matrix(1,0,0,1,0,0)">
                <path fill="rgb(255,95,32)" fill-opacity="1"
                    d=" M12.163999557495117,350.6759948730469 C12.163999557495117,350.6759948730469 62.808998107910156,209.1719970703125 145.2729949951172,157.54200744628906 C145.2729949951172,157.54200744628906 62.808998107910156,179.05499267578125 11.895999908447266,311.7149963378906 C11.895999908447266,311.7149963378906 12.163999557495117,350.6759948730469 12.163999557495117,350.6759948730469z">
                </path>
            </g>
            <g opacity="1" transform="matrix(1,0,0,1,0,0)">
                <path fill="rgb(255,95,32)" fill-opacity="1"
                    d=" M12.746000289916992,215.31199645996094 C12.746000289916992,215.31199645996094 -99.39700317382812,168.58700561523438 -108.74199676513672,52.196998596191406 C-108.74199676513672,52.196998596191406 -98.5469970703125,72.58599853515625 -74.76000213623047,79.38300323486328 C-50.97200012207031,86.17900085449219 -6.794000148773193,106.56800079345703 12.746000289916992,215.31199645996094z">
                </path>
            </g>
            <g opacity="1" transform="matrix(1,0,0,1,0,0)">
                <path fill="rgb(255,95,32)" fill-opacity="1"
                    d=" M12.746000289916992,124.41000366210938 C12.746000289916992,124.41000366210938 -99.39700317382812,77.68399810791016 -108.74199676513672,-38.70600128173828 C-108.74199676513672,-38.70600128173828 -98.5469970703125,-18.316999435424805 -74.76000213623047,-11.520999908447266 C-50.97200012207031,-4.723999977111816 -6.794000148773193,15.666000366210938 12.746000289916992,124.41000366210938z">
                </path>
            </g>
            <g opacity="1" transform="matrix(1,0,0,1,0,0)">
                <path fill="rgb(255,95,32)" fill-opacity="1"
                    d=" M12.746000289916992,27.55900001525879 C12.746000289916992,27.55900001525879 -93.90699768066406,-16.878999710083008 -102.79399871826172,-127.57099914550781 C-102.79399871826172,-127.57099914550781 -93.0989990234375,-108.18099975585938 -70.47599792480469,-101.71700286865234 C-47.85300064086914,-95.25299835205078 -5.836999893188477,-75.86199951171875 12.746000289916992,27.55900001525879z">
                </path>
            </g>
            <g opacity="1" transform="matrix(1,0,0,1,0,0)">
                <path fill="rgb(255,95,32)" fill-opacity="1"
                    d=" M12.746000289916992,-65.89199829101562 C12.746000289916992,-65.89199829101562 -93.90699768066406,-110.33000183105469 -102.79399871826172,-221.0229949951172 C-102.79399871826172,-221.0229949951172 -93.0989990234375,-201.63099670410156 -70.47599792480469,-195.16799926757812 C-47.85300064086914,-188.70399475097656 -5.836999893188477,-169.31300354003906 12.746000289916992,-65.89199829101562z">
                </path>
            </g>
            <g opacity="1" transform="matrix(1,0,0,1,0,0)">
                <path fill="rgb(255,95,32)" fill-opacity="1"
                    d=" M12.746000289916992,-160.19400024414062 C12.746000289916992,-160.19400024414062 -81.8740005493164,-199.61900329589844 -89.75900268554688,-297.822998046875 C-89.75900268554688,-297.822998046875 -81.15699768066406,-280.6189880371094 -61.08599853515625,-274.8840026855469 C-41.01599884033203,-269.14898681640625 -3.740999937057495,-251.9459991455078 12.746000289916992,-160.19400024414062z">
                </path>
            </g>
            <g opacity="1" transform="matrix(1,0,0,1,0,0)">
                <path fill="rgb(255,95,32)" fill-opacity="1"
                    d=" M13.595000267028809,215.31199645996094 C13.595000267028809,215.31199645996094 125.73600006103516,168.58700561523438 135.08200073242188,52.196998596191406 C135.08200073242188,52.196998596191406 124.88800048828125,72.58599853515625 101.0999984741211,79.38300323486328 C77.31300354003906,86.17900085449219 33.1349983215332,106.56800079345703 13.595000267028809,215.31199645996094z">
                </path>
            </g>
            <g opacity="1" transform="matrix(1,0,0,1,0,0)">
                <path fill="rgb(255,95,32)" fill-opacity="1"
                    d=" M13.595000267028809,124.41000366210938 C13.595000267028809,124.41000366210938 125.73600006103516,77.68399810791016 135.08200073242188,-38.70600128173828 C135.08200073242188,-38.70600128173828 124.88800048828125,-18.316999435424805 101.0999984741211,-11.520999908447266 C77.31300354003906,-4.723999977111816 33.1349983215332,15.666000366210938 13.595000267028809,124.41000366210938z">
                </path>
            </g>
            <g opacity="1" transform="matrix(1,0,0,1,0,0)">
                <path fill="rgb(255,95,32)" fill-opacity="1"
                    d=" M13.595000267028809,27.55900001525879 C13.595000267028809,27.55900001525879 120.24800109863281,-16.878999710083008 129.13499450683594,-127.57099914550781 C129.13499450683594,-127.57099914550781 119.43900299072266,-108.18099975585938 96.81600189208984,-101.71700286865234 C74.19300079345703,-95.25299835205078 32.178001403808594,-75.86199951171875 13.595000267028809,27.55900001525879z">
                </path>
            </g>
            <g opacity="1" transform="matrix(1,0,0,1,0,0)">
                <path fill="rgb(255,95,32)" fill-opacity="1"
                    d=" M13.595000267028809,-65.89199829101562 C13.595000267028809,-65.89199829101562 120.24800109863281,-110.33000183105469 129.13499450683594,-221.0229949951172 C129.13499450683594,-221.0229949951172 119.43900299072266,-201.63099670410156 96.81600189208984,-195.16799926757812 C74.19300079345703,-188.70399475097656 32.178001403808594,-169.31300354003906 13.595000267028809,-65.89199829101562z">
                </path>
            </g>
            <g opacity="1" transform="matrix(1,0,0,1,0,0)">
                <path fill="rgb(255,95,32)" fill-opacity="1"
                    d=" M13.595000267028809,-160.19400024414062 C13.595000267028809,-160.19400024414062 108.21499633789062,-199.61900329589844 116.0999984741211,-297.822998046875 C116.0999984741211,-297.822998046875 107.49800109863281,-280.6189880371094 87.427001953125,-274.8840026855469 C67.35700225830078,-269.14898681640625 30.082000732421875,-251.9459991455078 13.595000267028809,-160.19400024414062z">
                </path>
            </g>
            <g opacity="1" transform="matrix(1,0,0,1,0,0)">
                <path fill="rgb(255,95,32)" fill-opacity="1"
                    d=" M12.746000289916992,-240.05299377441406 C12.746000289916992,-240.05299377441406 -67.85700225830078,-273.6369934082031 -74.572998046875,-357.2919921875 C-74.572998046875,-357.2919921875 -67.24600219726562,-342.6369934082031 -50.14799880981445,-337.75201416015625 C-33.05099868774414,-332.86700439453125 -1.2990000247955322,-318.2130126953125 12.746000289916992,-240.05299377441406z">
                </path>
            </g>
            <g opacity="1" transform="matrix(1,0,0,1,0,0)">
                <path fill="rgb(255,95,32)" fill-opacity="1"
                    d=" M11.656999588012695,-240.05299377441406 C11.656999588012695,-240.05299377441406 92.26000213623047,-273.6369934082031 98.97599792480469,-357.2919921875 C98.97599792480469,-357.2919921875 91.64900207519531,-342.6369934082031 74.5510025024414,-337.75201416015625 C57.45399856567383,-332.86700439453125 25.70199966430664,-318.2130126953125 11.656999588012695,-240.05299377441406z">
                </path>
            </g>
            <g opacity="1" transform="matrix(1,0,0,1,0,0)">
                <path fill="rgb(255,95,32)" fill-opacity="1"
                    d=" M12.428999900817871,427.9859924316406 C-1.9780000448226929,427.9859924316406 3.8919999599456787,-343.4159851074219 12.428999900817871,-343.4159851074219 C20.965999603271484,-343.4159851074219 27.902999877929688,427.9859924316406 12.428999900817871,427.9859924316406z">
                </path>
            </g>
        </g>
        <g style="display: block;"
            transform="matrix(0.49878203868865967,0.034878235310316086,-0.034878235310316086,0.49878203868865967,734.8898315429688,1220.911865234375)"
            opacity="1">
            <g opacity="1" transform="matrix(1,0,0,1,0,0)">
                <path fill="rgb(158,31,99)" fill-opacity="1"
                    d=" M12.428999900817871,427.9859924316406 C12.428999900817871,427.9859924316406 -47.573001861572266,260.3389892578125 -145.2729949951172,199.17100524902344 C-145.2729949951172,199.17100524902344 -47.573001861572266,224.65699768066406 12.746000289916992,381.82598876953125 C12.746000289916992,381.82598876953125 12.428999900817871,427.9859924316406 12.428999900817871,427.9859924316406z">
                </path>
            </g>
            <g opacity="1" transform="matrix(1,0,0,1,0,0)">
                <path fill="rgb(158,31,99)" fill-opacity="1"
                    d=" M12.163999557495117,350.6759948730469 C12.163999557495117,350.6759948730469 62.808998107910156,209.1719970703125 145.2729949951172,157.54200744628906 C145.2729949951172,157.54200744628906 62.808998107910156,179.05499267578125 11.895999908447266,311.7149963378906 C11.895999908447266,311.7149963378906 12.163999557495117,350.6759948730469 12.163999557495117,350.6759948730469z">
                </path>
            </g>
            <g opacity="1" transform="matrix(1,0,0,1,0,0)">
                <path fill="rgb(158,31,99)" fill-opacity="1"
                    d=" M12.746000289916992,215.31199645996094 C12.746000289916992,215.31199645996094 -99.39700317382812,168.58700561523438 -108.74199676513672,52.196998596191406 C-108.74199676513672,52.196998596191406 -98.5469970703125,72.58599853515625 -74.76000213623047,79.38300323486328 C-50.97200012207031,86.17900085449219 -6.794000148773193,106.56800079345703 12.746000289916992,215.31199645996094z">
                </path>
            </g>
            <g opacity="1" transform="matrix(1,0,0,1,0,0)">
                <path fill="rgb(158,31,99)" fill-opacity="1"
                    d=" M12.746000289916992,124.41000366210938 C12.746000289916992,124.41000366210938 -99.39700317382812,77.68399810791016 -108.74199676513672,-38.70600128173828 C-108.74199676513672,-38.70600128173828 -98.5469970703125,-18.316999435424805 -74.76000213623047,-11.520999908447266 C-50.97200012207031,-4.723999977111816 -6.794000148773193,15.666000366210938 12.746000289916992,124.41000366210938z">
                </path>
            </g>
            <g opacity="1" transform="matrix(1,0,0,1,0,0)">
                <path fill="rgb(158,31,99)" fill-opacity="1"
                    d=" M12.746000289916992,27.55900001525879 C12.746000289916992,27.55900001525879 -93.90699768066406,-16.878999710083008 -102.79399871826172,-127.57099914550781 C-102.79399871826172,-127.57099914550781 -93.0989990234375,-108.18099975585938 -70.47599792480469,-101.71700286865234 C-47.85300064086914,-95.25299835205078 -5.836999893188477,-75.86199951171875 12.746000289916992,27.55900001525879z">
                </path>
            </g>
            <g opacity="1" transform="matrix(1,0,0,1,0,0)">
                <path fill="rgb(158,31,99)" fill-opacity="1"
                    d=" M12.746000289916992,-65.89199829101562 C12.746000289916992,-65.89199829101562 -93.90699768066406,-110.33000183105469 -102.79399871826172,-221.0229949951172 C-102.79399871826172,-221.0229949951172 -93.0989990234375,-201.63099670410156 -70.47599792480469,-195.16799926757812 C-47.85300064086914,-188.70399475097656 -5.836999893188477,-169.31300354003906 12.746000289916992,-65.89199829101562z">
                </path>
            </g>
            <g opacity="1" transform="matrix(1,0,0,1,0,0)">
                <path fill="rgb(158,31,99)" fill-opacity="1"
                    d=" M12.746000289916992,-160.19400024414062 C12.746000289916992,-160.19400024414062 -81.8740005493164,-199.61900329589844 -89.75900268554688,-297.822998046875 C-89.75900268554688,-297.822998046875 -81.15699768066406,-280.6189880371094 -61.08599853515625,-274.8840026855469 C-41.01599884033203,-269.14898681640625 -3.740999937057495,-251.9459991455078 12.746000289916992,-160.19400024414062z">
                </path>
            </g>
            <g opacity="1" transform="matrix(1,0,0,1,0,0)">
                <path fill="rgb(158,31,99)" fill-opacity="1"
                    d=" M13.595000267028809,215.31199645996094 C13.595000267028809,215.31199645996094 125.73600006103516,168.58700561523438 135.08200073242188,52.196998596191406 C135.08200073242188,52.196998596191406 124.88800048828125,72.58599853515625 101.0999984741211,79.38300323486328 C77.31300354003906,86.17900085449219 33.1349983215332,106.56800079345703 13.595000267028809,215.31199645996094z">
                </path>
            </g>
            <g opacity="1" transform="matrix(1,0,0,1,0,0)">
                <path fill="rgb(158,31,99)" fill-opacity="1"
                    d=" M13.595000267028809,124.41000366210938 C13.595000267028809,124.41000366210938 125.73600006103516,77.68399810791016 135.08200073242188,-38.70600128173828 C135.08200073242188,-38.70600128173828 124.88800048828125,-18.316999435424805 101.0999984741211,-11.520999908447266 C77.31300354003906,-4.723999977111816 33.1349983215332,15.666000366210938 13.595000267028809,124.41000366210938z">
                </path>
            </g>
            <g opacity="1" transform="matrix(1,0,0,1,0,0)">
                <path fill="rgb(158,31,99)" fill-opacity="1"
                    d=" M13.595000267028809,27.55900001525879 C13.595000267028809,27.55900001525879 120.24800109863281,-16.878999710083008 129.13499450683594,-127.57099914550781 C129.13499450683594,-127.57099914550781 119.43900299072266,-108.18099975585938 96.81600189208984,-101.71700286865234 C74.19300079345703,-95.25299835205078 32.178001403808594,-75.86199951171875 13.595000267028809,27.55900001525879z">
                </path>
            </g>
            <g opacity="1" transform="matrix(1,0,0,1,0,0)">
                <path fill="rgb(158,31,99)" fill-opacity="1"
                    d=" M13.595000267028809,-65.89199829101562 C13.595000267028809,-65.89199829101562 120.24800109863281,-110.33000183105469 129.13499450683594,-221.0229949951172 C129.13499450683594,-221.0229949951172 119.43900299072266,-201.63099670410156 96.81600189208984,-195.16799926757812 C74.19300079345703,-188.70399475097656 32.178001403808594,-169.31300354003906 13.595000267028809,-65.89199829101562z">
                </path>
            </g>
            <g opacity="1" transform="matrix(1,0,0,1,0,0)">
                <path fill="rgb(158,31,99)" fill-opacity="1"
                    d=" M13.595000267028809,-160.19400024414062 C13.595000267028809,-160.19400024414062 108.21499633789062,-199.61900329589844 116.0999984741211,-297.822998046875 C116.0999984741211,-297.822998046875 107.49800109863281,-280.6189880371094 87.427001953125,-274.8840026855469 C67.35700225830078,-269.14898681640625 30.082000732421875,-251.9459991455078 13.595000267028809,-160.19400024414062z">
                </path>
            </g>
            <g opacity="1" transform="matrix(1,0,0,1,0,0)">
                <path fill="rgb(158,31,99)" fill-opacity="1"
                    d=" M12.746000289916992,-240.05299377441406 C12.746000289916992,-240.05299377441406 -67.85700225830078,-273.6369934082031 -74.572998046875,-357.2919921875 C-74.572998046875,-357.2919921875 -67.24600219726562,-342.6369934082031 -50.14799880981445,-337.75201416015625 C-33.05099868774414,-332.86700439453125 -1.2990000247955322,-318.2130126953125 12.746000289916992,-240.05299377441406z">
                </path>
            </g>
            <g opacity="1" transform="matrix(1,0,0,1,0,0)">
                <path fill="rgb(158,31,99)" fill-opacity="1"
                    d=" M11.656999588012695,-240.05299377441406 C11.656999588012695,-240.05299377441406 92.26000213623047,-273.6369934082031 98.97599792480469,-357.2919921875 C98.97599792480469,-357.2919921875 91.64900207519531,-342.6369934082031 74.5510025024414,-337.75201416015625 C57.45399856567383,-332.86700439453125 25.70199966430664,-318.2130126953125 11.656999588012695,-240.05299377441406z">
                </path>
            </g>
            <g opacity="1" transform="matrix(1,0,0,1,0,0)">
                <path fill="rgb(158,31,99)" fill-opacity="1"
                    d=" M12.428999900817871,427.9859924316406 C-1.9780000448226929,427.9859924316406 3.8919999599456787,-343.4159851074219 12.428999900817871,-343.4159851074219 C20.965999603271484,-343.4159851074219 27.902999877929688,427.9859924316406 12.428999900817871,427.9859924316406z">
                </path>
            </g>
        </g>
        <g style="display: block;"
            transform="matrix(7.400000095367432,0,0,7.400000095367432,519.1060180664062,281.0480041503906)" opacity="1">
            <g opacity="1" transform="matrix(1,0,0,1,0,0)">
                <path fill="rgb(255,213,118)" fill-opacity="1"
                    d=" M-2,2 C-2,2 2,2 2,2 C2,2 2,-2 2,-2 C2,-2 -2,-2 -2,-2 C-2,-2 -2,2 -2,2z"></path>
                <path stroke-linecap="butt" stroke-linejoin="miter" fill-opacity="0" stroke-miterlimit="10"
                    stroke="rgb(255,183,0)" stroke-opacity="1" stroke-width="1"
                    d=" M-2,2 C-2,2 2,2 2,2 C2,2 2,-2 2,-2 C2,-2 -2,-2 -2,-2 C-2,-2 -2,2 -2,2z"></path>
            </g>
        </g>
        <g style="display: block;"
            transform="matrix(7.400000095367432,0,0,7.400000095367432,430.3059997558594,281.0480041503906)" opacity="1">
            <g opacity="1" transform="matrix(1,0,0,1,0,0)">
                <path fill="rgb(255,213,118)" fill-opacity="1"
                    d=" M-8,6 C-8,6 8,6 8,6 C9.104999542236328,6 10,5.105000019073486 10,4 C10,4 10,-4 10,-4 C10,-5.105000019073486 9.104999542236328,-6 8,-6 C8,-6 -8,-6 -8,-6 C-9.104999542236328,-6 -10,-5.105000019073486 -10,-4 C-10,-4 -10,4 -10,4 C-10,5.105000019073486 -9.104999542236328,6 -8,6z">
                </path>
                <path stroke-linecap="butt" stroke-linejoin="miter" fill-opacity="0" stroke-miterlimit="10"
                    stroke="rgb(255,183,0)" stroke-opacity="1" stroke-width="1"
                    d=" M-8,6 C-8,6 8,6 8,6 C9.104999542236328,6 10,5.105000019073486 10,4 C10,4 10,-4 10,-4 C10,-5.105000019073486 9.104999542236328,-6 8,-6 C8,-6 -8,-6 -8,-6 C-9.104999542236328,-6 -10,-5.105000019073486 -10,-4 C-10,-4 -10,4 -10,4 C-10,5.105000019073486 -9.104999542236328,6 -8,6z">
                </path>
            </g>
        </g>
        <g style="display: block;"
            transform="matrix(7.400000095367432,0,0,7.400000095367432,508.0060119628906,281.0480041503906)" opacity="1">
            <g opacity="1" transform="matrix(1,0,0,1,0,0)">
                <path fill="rgb(158,31,99)" fill-opacity="1"
                    d=" M0.5,2 C0.5,2 -0.5,2 -0.5,2 C-0.5,2 -0.5,-2 -0.5,-2 C-0.5,-2 0.5,-2 0.5,-2 C0.5,-2 0.5,2 0.5,2z">
                </path>
            </g>
        </g>
        <g style="display: block;"
            transform="matrix(7.400000095367432,0,0,7.400000095367432,471.0060119628906,281.0480041503906)" opacity="1">
            <g opacity="1" transform="matrix(1,0,0,1,0,0)">
                <path fill="rgb(255,183,0)" fill-opacity="1"
                    d=" M-0.5,5 C-0.5,5 0.5,5 0.5,5 C0.5,5 0.5,-5 0.5,-5 C0.5,-5 -0.5,-5 -0.5,-5 C-0.5,-5 -0.5,5 -0.5,5z">
                </path>
            </g>
        </g>
        <g style="display: block;"
            transform="matrix(7.400000095367432,0,0,7.400000095367432,441.406005859375,281.0480041503906)" opacity="1">
            <g opacity="1" transform="matrix(1,0,0,1,0,0)">
                <path fill="rgb(255,183,0)" fill-opacity="1"
                    d=" M-0.5,5 C-0.5,5 0.5,5 0.5,5 C0.5,5 0.5,-5 0.5,-5 C0.5,-5 -0.5,-5 -0.5,-5 C-0.5,-5 -0.5,5 -0.5,5z">
                </path>
            </g>
        </g>
        <g style="display: block;"
            transform="matrix(7.400000095367432,0,0,7.400000095367432,411.8059997558594,281.0480041503906)" opacity="1">
            <g opacity="1" transform="matrix(1,0,0,1,0,0)">
                <path fill="rgb(255,183,0)" fill-opacity="1"
                    d=" M-0.5,5 C-0.5,5 0.5,5 0.5,5 C0.5,5 0.5,-5 0.5,-5 C0.5,-5 -0.5,-5 -0.5,-5 C-0.5,-5 -0.5,5 -0.5,5z">
                </path>
            </g>
        </g>
        <g style="display: block;"
            transform="matrix(7.400000095367432,0,0,7.400000095367432,382.20599365234375,281.0480041503906)"
            opacity="1">
            <g opacity="1" transform="matrix(1,0,0,1,0,0)">
                <path fill="rgb(255,183,0)" fill-opacity="1"
                    d=" M-0.5,5 C-0.5,5 0.5,5 0.5,5 C0.5,5 0.5,-5 0.5,-5 C0.5,-5 -0.5,-5 -0.5,-5 C-0.5,-5 -0.5,5 -0.5,5z">
                </path>
            </g>
        </g>
        <g style="display: block;"
            transform="matrix(7.400000095367432,0,0,7.400000095367432,430.3059997558594,281.0480041503906)" opacity="1">
            <g opacity="1" transform="matrix(1,0,0,1,0,0)">
                <path stroke-linecap="butt" stroke-linejoin="miter" fill-opacity="0" stroke-miterlimit="10"
                    stroke="rgb(255,183,0)" stroke-opacity="1" stroke-width="1" d=" M9,0 C9,0 -9,0 -9,0"></path>
            </g>
        </g>
        <g style="display: block;"
            transform="matrix(7.400000095367432,0,0,7.400000095367432,607.906005859375,281.0480041503906)" opacity="1">
            <g opacity="1" transform="matrix(1,0,0,1,0,0)">
                <path fill="rgb(255,213,118)" fill-opacity="1"
                    d=" M2,2 C2,2 -2,2 -2,2 C-2,2 -2,-2 -2,-2 C-2,-2 2,-2 2,-2 C2,-2 2,2 2,2z"></path>
                <path stroke-linecap="butt" stroke-linejoin="miter" fill-opacity="0" stroke-miterlimit="10"
                    stroke="rgb(255,183,0)" stroke-opacity="1" stroke-width="1"
                    d=" M2,2 C2,2 -2,2 -2,2 C-2,2 -2,-2 -2,-2 C-2,-2 2,-2 2,-2 C2,-2 2,2 2,2z"></path>
            </g>
        </g>
        <g style="display: block;"
            transform="matrix(7.400000095367432,0,0,7.400000095367432,563.5059814453125,281.0480041503906)" opacity="1">
            <g opacity="1" transform="matrix(1,0,0,1,0,0)">
                <path fill="rgb(158,31,99)" fill-opacity="1"
                    d=" M6,0 C6,3.313999891281128 3.313999891281128,6 0,6 C-3.313999891281128,6 -6,3.313999891281128 -6,0 C-6,-3.313999891281128 -3.313999891281128,-6 0,-6 C3.313999891281128,-6 6,-3.313999891281128 6,0z">
                </path>
            </g>
        </g>
        <g style="display: block;"
            transform="matrix(7.400000095367432,0,0,7.400000095367432,563.5059814453125,281.0480041503906)" opacity="1">
            <g opacity="1" transform="matrix(1,0,0,1,0,0)">
                <path fill="rgb(255,183,0)" fill-opacity="1"
                    d=" M2,0 C2,1.1050000190734863 1.1050000190734863,2 0,2 C-1.1050000190734863,2 -2,1.1050000190734863 -2,0 C-2,-1.1050000190734863 -1.1050000190734863,-2 0,-2 C1.1050000190734863,-2 2,-1.1050000190734863 2,0z">
                </path>
            </g>
        </g>
        <g style="display: block;"
            transform="matrix(7.400000095367432,0,0,7.400000095367432,619.0059814453125,281.0480041503906)" opacity="1">
            <g opacity="1" transform="matrix(1,0,0,1,0,0)">
                <path fill="rgb(158,31,99)" fill-opacity="1"
                    d=" M-0.5,2 C-0.5,2 0.5,2 0.5,2 C0.5,2 0.5,-2 0.5,-2 C0.5,-2 -0.5,-2 -0.5,-2 C-0.5,-2 -0.5,2 -0.5,2z">
                </path>
            </g>
        </g>
        <g style="display: block;"
            transform="matrix(7.400000095367432,0,0,7.400000095367432,696.7059936523438,281.0480041503906)" opacity="1">
            <g opacity="1" transform="matrix(1,0,0,1,0,0)">
                <path fill="rgb(255,213,118)" fill-opacity="1"
                    d=" M-8,6 C-8,6 8,6 8,6 C9.104999542236328,6 10,5.105000019073486 10,4 C10,4 10,-4 10,-4 C10,-5.105000019073486 9.104999542236328,-6 8,-6 C8,-6 -8,-6 -8,-6 C-9.104999542236328,-6 -10,-5.105000019073486 -10,-4 C-10,-4 -10,4 -10,4 C-10,5.105000019073486 -9.104999542236328,6 -8,6z">
                </path>
                <path stroke-linecap="butt" stroke-linejoin="miter" fill-opacity="0" stroke-miterlimit="10"
                    stroke="rgb(255,183,0)" stroke-opacity="1" stroke-width="1"
                    d=" M-8,6 C-8,6 8,6 8,6 C9.104999542236328,6 10,5.105000019073486 10,4 C10,4 10,-4 10,-4 C10,-5.105000019073486 9.104999542236328,-6 8,-6 C8,-6 -8,-6 -8,-6 C-9.104999542236328,-6 -10,-5.105000019073486 -10,-4 C-10,-4 -10,4 -10,4 C-10,5.105000019073486 -9.104999542236328,6 -8,6z">
                </path>
            </g>
        </g>
        <g style="display: block;"
            transform="matrix(7.400000095367432,0,0,7.400000095367432,737.406005859375,281.0480041503906)" opacity="1">
            <g opacity="1" transform="matrix(1,0,0,1,0,0)">
                <path fill="rgb(255,183,0)" fill-opacity="1"
                    d=" M-0.5,5 C-0.5,5 0.5,5 0.5,5 C0.5,5 0.5,-5 0.5,-5 C0.5,-5 -0.5,-5 -0.5,-5 C-0.5,-5 -0.5,5 -0.5,5z">
                </path>
            </g>
        </g>
        <g style="display: block;"
            transform="matrix(7.400000095367432,0,0,7.400000095367432,707.8060302734375,281.0480041503906)" opacity="1">
            <g opacity="1" transform="matrix(1,0,0,1,0,0)">
                <path fill="rgb(255,183,0)" fill-opacity="1"
                    d=" M-0.5,5 C-0.5,5 0.5,5 0.5,5 C0.5,5 0.5,-5 0.5,-5 C0.5,-5 -0.5,-5 -0.5,-5 C-0.5,-5 -0.5,5 -0.5,5z">
                </path>
            </g>
        </g>
        <g style="display: block;"
            transform="matrix(7.400000095367432,0,0,7.400000095367432,678.2059936523438,281.0480041503906)" opacity="1">
            <g opacity="1" transform="matrix(1,0,0,1,0,0)">
                <path fill="rgb(255,183,0)" fill-opacity="1"
                    d=" M-0.5,5 C-0.5,5 0.5,5 0.5,5 C0.5,5 0.5,-5 0.5,-5 C0.5,-5 -0.5,-5 -0.5,-5 C-0.5,-5 -0.5,5 -0.5,5z">
                </path>
            </g>
        </g>
        <g style="display: block;"
            transform="matrix(7.400000095367432,0,0,7.400000095367432,648.6060180664062,281.0480041503906)" opacity="1">
            <g opacity="1" transform="matrix(1,0,0,1,0,0)">
                <path fill="rgb(255,183,0)" fill-opacity="1"
                    d=" M-0.5,5 C-0.5,5 0.5,5 0.5,5 C0.5,5 0.5,-5 0.5,-5 C0.5,-5 -0.5,-5 -0.5,-5 C-0.5,-5 -0.5,5 -0.5,5z">
                </path>
            </g>
        </g>
        <g style="display: block;"
            transform="matrix(7.400000095367432,0,0,7.400000095367432,696.7059936523438,281.0480041503906)" opacity="1">
            <g opacity="1" transform="matrix(1,0,0,1,0,0)">
                <path stroke-linecap="butt" stroke-linejoin="miter" fill-opacity="0" stroke-miterlimit="10"
                    stroke="rgb(255,183,0)" stroke-opacity="1" stroke-width="1" d=" M9,0 C9,0 -9,0 -9,0"></path>
            </g>
        </g>
        <g style="display: block;" transform="matrix(1,0,0,1,515.5059814453125,595.8480224609375)" opacity="1">
            <g opacity="0" transform="matrix(0,0,0,0,50,-282.75299072265625)">
                <path stroke-linecap="round" stroke-linejoin="miter" fill-opacity="0" stroke-miterlimit="4"
                    stroke="rgb(255,95,32)" stroke-opacity="1" stroke-width="12"
                    d=" M15,-257.5 C15,-257.5 48.5,-232 87,-260.5"></path>
            </g>
            <g opacity="0" transform="matrix(0,0,0,0,50,-282.75299072265625)">
                <path stroke-linecap="round" stroke-linejoin="miter" fill-opacity="0" stroke-miterlimit="4"
                    stroke="rgb(255,95,32)" stroke-opacity="1" stroke-width="12"
                    d=" M15,-257.5 C15,-257.5 48.5,-232 87,-260.5"></path>
            </g>
        </g>
        <g style="display: block;" transform="matrix(1,0,0,1,586,768)" opacity="1"></g>
    </g>
</svg>