<svg xmlns="http://www.w3.org/2000/svg" viewBox="0 0 360 360" width="360" height="360"
    style="width: 100%; height: 100%; transform: translate3d(0,0,0);" preserveAspectRatio="xMidYMid meet">
    <defs>
        <clipPath id="__lottie_element_2">
            <rect width="360" height="360" x="0" y="0"></rect>
        </clipPath>
        <clipPath id="__lottie_element_4">
            <path d="M0,0 L360,0 L360,360 L0,360z"></path>
        </clipPath>
        <clipPath id="__lottie_element_51">
            <path d="M0,0 L360,0 L360,360 L0,360z"></path>
        </clipPath>
    </defs>
    <g clip-path="url(#__lottie_element_2)">
        <g clip-path="url(#__lottie_element_51)" style="display: block;" transform="matrix(1,0,0,1,0,0)" opacity="1">
            <g style="display: block;"
                transform="matrix(1.7000000476837158,0,0,1.7000000476837158,26.847198486328125,30.220199584960938)"
                opacity="1">
                <g opacity="1" transform="matrix(1,0,0,1,89.7229995727539,89.7239990234375)">
                    <path fill="rgb(247,235,214)" fill-opacity="1"
                        d=" M89.4739990234375,0 C89.4739990234375,-49.415000915527344 49.415000915527344,-89.4739990234375 0,-89.4739990234375 C-49.415000915527344,-89.4739990234375 -89.4739990234375,-49.415000915527344 -89.4739990234375,0 C-89.4739990234375,49.415000915527344 -49.415000915527344,89.4739990234375 0,89.4739990234375 C49.415000915527344,89.4739990234375 89.4739990234375,49.415000915527344 89.4739990234375,0z">
                    </path>
                </g>
            </g>
        </g>
        <g clip-path="url(#__lottie_element_4)" style="display: block;" transform="matrix(1,0,0,1,0,0)" opacity="1">
            <g style="display: block;"
                transform="matrix(2.1600000858306885,0,0,2.1600000858306885,108.10771179199219,108.24171447753906)"
                opacity="1">
                <g opacity="1" transform="matrix(1,0,0,1,33.28300094604492,33.28300094604492)">
                    <path fill="rgb(247,190,49)" fill-opacity="1"
                        d=" M33.03300094604492,0 C33.03300094604492,-18.243999481201172 18.243000030517578,-33.03300094604492 0,-33.03300094604492 C-18.243000030517578,-33.03300094604492 -33.03300094604492,-18.243999481201172 -33.03300094604492,0 C-33.03300094604492,18.243999481201172 -18.243000030517578,33.03300094604492 0,33.03300094604492 C18.243000030517578,33.03300094604492 33.03300094604492,18.243999481201172 33.03300094604492,0z">
                    </path>
                </g>
            </g>
            <g style="display: block;"
                transform="matrix(2.1600000858306885,0,0,2.1600000858306885,147.31687927246094,120.72767639160156)"
                opacity="1">
                <g opacity="1" transform="matrix(1,0,0,1,15.081999778747559,27.50200080871582)">
                    <path fill="rgb(31,44,158)" fill-opacity="1"
                        d=" M11.491000175476074,1.8480000495910645 C9.465999603271484,-0.14800000190734863 6.561999797821045,-1.8289999961853027 2.7980000972747803,-3.197999954223633 C2.7980000972747803,-3.197999954223633 2.7980000972747803,-15.75 2.7980000972747803,-15.75 C3.4130001068115234,-15.454999923706055 3.9609999656677246,-15.067999839782715 4.409999847412109,-14.548999786376953 C5.28000020980835,-13.541000366210938 5.783999919891357,-12.138999938964844 5.923999786376953,-10.340999603271484 C5.9710001945495605,-9.736000061035156 6.480999946594238,-9.269000053405762 7.086999893188477,-9.269000053405762 C7.086999893188477,-9.269000053405762 14.402000427246094,-9.269000053405762 14.402000427246094,-9.269000053405762 C14.402000427246094,-9.269000053405762 14.463000297546387,-9.45300006866455 14.463000297546387,-9.45300006866455 C14.545000076293945,-13.600000381469727 13.26200008392334,-16.906999588012695 10.61299991607666,-19.3700008392334 C8.53499984741211,-21.304000854492188 5.923999786376953,-22.46500015258789 2.7100000381469727,-22.881000518798828 C2.7100000381469727,-22.881000518798828 2.7100000381469727,-26.5 2.7100000381469727,-26.5 C2.7100000381469727,-26.915000915527344 2.375,-27.25200080871582 1.9600000381469727,-27.25200080871582 C1.9600000381469727,-27.25200080871582 -1.902999997138977,-27.25200080871582 -1.902999997138977,-27.25200080871582 C-2.3239998817443848,-27.25200080871582 -2.6630001068115234,-26.905000686645508 -2.6549999713897705,-26.485000610351562 C-2.6549999713897705,-26.485000610351562 -2.5820000171661377,-22.875 -2.5820000171661377,-22.875 C-5.493000030517578,-22.468000411987305 -7.97599983215332,-21.381999969482422 -10.019000053405762,-19.60099983215332 C-12.666999816894531,-17.29199981689453 -13.991000175476074,-14.298999786376953 -13.991000175476074,-10.625 C-13.991000175476074,-6.928999900817871 -12.831000328063965,-4.054999828338623 -10.51099967956543,-2.002000093460083 C-8.62600040435791,-0.3330000042915344 -5.9730000495910645,1.1920000314712524 -2.5820000171661377,2.5759999752044678 C-2.5820000171661377,2.5759999752044678 -2.5820000171661377,15.848999977111816 -2.5820000171661377,15.848999977111816 C-3.325000047683716,15.543000221252441 -3.9719998836517334,15.128000259399414 -4.491000175476074,14.567000389099121 C-5.4770002365112305,13.5 -6.0370001792907715,11.842000007629395 -6.170000076293945,9.590999603271484 C-6.205999851226807,8.977999687194824 -6.7210001945495605,8.498000144958496 -7.335000038146973,8.498000144958496 C-7.335000038146973,8.498000144958496 -14.668000221252441,8.498000144958496 -14.668000221252441,8.498000144958496 C-14.668000221252441,8.498000144958496 -14.729999542236328,8.6850004196167 -14.729999542236328,8.6850004196167 C-14.833000183105469,13.529000282287598 -13.37399959564209,17.13800048828125 -10.355999946594238,19.507999420166016 C-8.107000350952148,21.274999618530273 -5.514999866485596,22.381999969482422 -2.5820000171661377,22.83099937438965 C-2.5820000171661377,22.83099937438965 -2.5820000171661377,26.5 -2.5820000171661377,26.5 C-2.5820000171661377,26.915000915527344 -2.246000051498413,27.25200080871582 -1.8320000171661377,27.25200080871582 C-1.8320000171661377,27.25200080871582 1.975000023841858,27.25200080871582 1.975000023841858,27.25200080871582 C2.384000062942505,27.25200080871582 2.7170000076293945,26.923999786376953 2.7249999046325684,26.516000747680664 C2.7249999046325684,26.516000747680664 2.7980000972747803,22.94300079345703 2.7980000972747803,22.94300079345703 C6.073999881744385,22.617000579833984 8.788999557495117,21.569000244140625 10.92300033569336,19.770999908447266 C13.529999732971191,17.575000762939453 14.831999778747559,14.555999755859375 14.831999778747559,10.718000411987305 C14.831999778747559,7.000999927520752 13.718999862670898,4.046000003814697 11.491000175476074,1.8480000495910645z M-3.7360000610351562,-6.835999965667725 C-4.7829999923706055,-7.822999954223633 -5.306000232696533,-9.074000358581543 -5.306000232696533,-10.593999862670898 C-5.306000232696533,-12.236000061035156 -4.84499979019165,-13.604999542236328 -3.9210000038146973,-14.704000473022461 C-3.5429999828338623,-15.154000282287598 -3.0850000381469727,-15.48900032043457 -2.5820000171661377,-15.755000114440918 C-2.5820000171661377,-15.755000114440918 -2.5820000171661377,-5.921999931335449 -2.5820000171661377,-5.921999931335449 C-3.0309998989105225,-6.235000133514404 -3.4210000038146973,-6.540999889373779 -3.7360000610351562,-6.835999965667725z M4.748000144958496,14.873000144958496 C4.239999771118164,15.432000160217285 3.5810000896453857,15.824999809265137 2.7980000972747803,16.079999923706055 C2.7980000972747803,16.079999923706055 2.7980000972747803,4.968999862670898 2.7980000972747803,4.968999862670898 C3.6480000019073486,5.48799991607666 4.309999942779541,6.01200008392334 4.7779998779296875,6.544000148773193 C5.690999984741211,7.580999851226807 6.1479997634887695,8.993000030517578 6.1479997634887695,10.779000282287598 C6.1479997634887695,12.482999801635742 5.682000160217285,13.847999572753906 4.748000144958496,14.873000144958496z">
                    </path>
                </g>
            </g>
            <g style="display: block;"
                transform="matrix(2.3112001419067383,0,0,2.3112001419067383,69.81565856933594,52.84736633300781)"
                opacity="1">
                <g opacity="1" transform="matrix(0,0,0,0,36.099998474121094,98.125)">
                    <path fill="rgb(247,190,49)" fill-opacity="1"
                        d=" M0.7760000228881836,-2.4649999141693115 C0.7760000228881836,-2.4649999141693115 0.5920000076293945,-2.5139999389648438 0.5920000076293945,-2.5139999389648438 C-0.8640000224113464,-2.881999969482422 -2.3450000286102295,-2.000999927520752 -2.7130000591278076,-0.5460000038146973 C-3.0820000171661377,0.9110000133514404 -2.2019999027252197,2.3889999389648438 -0.7459999918937683,2.759000062942505 C-0.7459999918937683,2.759000062942505 -0.6499999761581421,2.7850000858306885 -0.6499999761581421,2.7850000858306885 C-0.41200000047683716,2.8499999046325684 -0.17100000381469727,2.881999969482422 0.06400000303983688,2.881999969482422 C1.2630000114440918,2.881999969482422 2.3610000610351562,2.0840001106262207 2.688999891281128,0.8730000257492065 C3.0829999446868896,-0.578000009059906 2.2269999980926514,-2.072000026702881 0.7760000228881836,-2.4649999141693115z">
                    </path>
                </g>
            </g>
            <g style="display: block;"
                transform="matrix(2.3112001419067383,0,0,2.3112001419067383,69.81489562988281,52.848609924316406)"
                opacity="1">
                <g opacity="1" transform="matrix(0,0,0,0,25.29199981689453,93.5989990234375)">
                    <path fill="rgb(247,190,49)" fill-opacity="1"
                        d=" M1.340000033378601,-2.184999942779541 C0.04600000008940697,-2.947999954223633 -1.6239999532699585,-2.51200008392334 -2.384999990463257,-1.215000033378601 C-3.1459999084472656,0.07900000363588333 -2.7119998931884766,1.746000051498413 -1.4170000553131104,2.506999969482422 C-1.4170000553131104,2.506999969482422 -1.2630000114440918,2.5950000286102295 -1.2630000114440918,2.5950000286102295 C-0.843999981880188,2.8350000381469727 -0.39500001072883606,2.947000026702881 0.04899999871850014,2.947000026702881 C0.9860000014305115,2.947000026702881 1.8949999809265137,2.441999912261963 2.4010000228881836,1.555999994277954 C3.1459999084472656,0.25200000405311584 2.6440000534057617,-1.4390000104904175 1.340000033378601,-2.184999942779541z">
                    </path>
                </g>
            </g>
            <g style="display: block;"
                transform="matrix(2.3112001419067383,0,0,2.3112001419067383,69.8154067993164,52.84847640991211)"
                opacity="1">
                <g opacity="1" transform="matrix(0,0,0,0,16.06399917602539,86.55599975585938)">
                    <path fill="rgb(247,190,49)" fill-opacity="1"
                        d=" M1.871999979019165,-1.840999960899353 C0.8100000023841858,-2.9040000438690186 -0.9129999876022339,-2.9040000438690186 -1.9739999771118164,-1.840999960899353 C-3.0369999408721924,-0.7789999842643738 -3.0369999408721924,0.9430000185966492 -1.9739999771118164,2.003999948501587 C-1.9739999771118164,2.003999948501587 -1.871999979019165,2.1080000400543213 -1.871999979019165,2.1080000400543213 C-1.340999960899353,2.638000011444092 -0.6449999809265137,2.9040000438690186 0.050999999046325684,2.9040000438690186 C0.746999979019165,2.9040000438690186 1.444000005722046,2.638000011444092 1.9759999513626099,2.1080000400543213 C3.0369999408721924,1.0449999570846558 3.0369999408721924,-0.6769999861717224 1.9759999513626099,-1.7400000095367432 C1.9759999513626099,-1.7400000095367432 1.871999979019165,-1.840999960899353 1.871999979019165,-1.840999960899353z">
                    </path>
                </g>
            </g>
            <g style="display: block;"
                transform="matrix(2.3112001419067383,0,0,2.3112001419067383,69.81446838378906,52.8478889465332)"
                opacity="1">
                <g opacity="1" transform="matrix(0,0,0,0,8.956999778747559,77.24700164794922)">
                    <path fill="rgb(247,190,49)" fill-opacity="1"
                        d=" M2.2990000247955322,-1.2630000114440918 C1.5290000438690186,-2.553999900817871 -0.14000000059604645,-2.9749999046325684 -1.4320000410079956,-2.2039999961853027 C-2.7219998836517334,-1.434000015258789 -3.1429998874664307,0.23399999737739563 -2.371999979019165,1.5230000019073486 C-2.371999979019165,1.5230000019073486 -2.3259999752044678,1.6059999465942383 -2.3259999752044678,1.6059999465942383 C-1.8240000009536743,2.4839999675750732 -0.9070000052452087,2.9749999046325684 0.035999998450279236,2.9749999046325684 C0.4950000047683716,2.9749999046325684 0.9589999914169312,2.859999895095825 1.3849999904632568,2.617000102996826 C2.688999891281128,1.871999979019165 3.1440000534057617,0.20999999344348907 2.3980000019073486,-1.093999981880188 C2.3980000019073486,-1.093999981880188 2.2990000247955322,-1.2630000114440918 2.2990000247955322,-1.2630000114440918z">
                    </path>
                </g>
            </g>
            <g style="display: block;"
                transform="matrix(2.3112001419067383,0,0,2.3112001419067383,69.81592559814453,52.8478889465332)"
                opacity="1">
                <g opacity="1" transform="matrix(0,0,0,0,4.486000061035156,66.52200317382812)">
                    <path fill="rgb(247,190,49)" fill-opacity="1"
                        d=" M2.6440000534057617,-0.4950000047683716 C2.6440000534057617,-0.4950000047683716 2.6050000190734863,-0.6349999904632568 2.6050000190734863,-0.6349999904632568 C2.2119998931884766,-2.0850000381469727 0.7200000286102295,-2.937999963760376 -0.7310000061988831,-2.5480000972747803 C-2.180999994277954,-2.1540000438690186 -3.0390000343322754,-0.6600000262260437 -2.6449999809265137,0.7900000214576721 C-2.6449999809265137,0.7900000214576721 -2.6059999465942383,0.9300000071525574 -2.6059999465942383,0.9300000071525574 C-2.2769999504089355,2.1410000324249268 -1.180999994277954,2.937999963760376 0.017000000923871994,2.937999963760376 C0.25200000405311584,2.937999963760376 0.49300000071525574,2.9059998989105225 0.7300000190734863,2.8429999351501465 C2.180999994277954,2.4489998817443848 3.0390000343322754,0.9549999833106995 2.6440000534057617,-0.4950000047683716z">
                    </path>
                </g>
            </g>
            <g style="display: block;"
                transform="matrix(2.3112001419067383,0,0,2.3112001419067383,69.81484985351562,52.847198486328125)"
                opacity="1">
                <g opacity="1" transform="matrix(1,0,0,1,25.944000244140625,29.042999267578125)">
                    <path fill="rgb(247,190,49)" fill-opacity="1"
                        d=" M-20.253999710083008,26.035999298095703 C-20.253999710083008,4.7220001220703125 -4.2820000648498535,-12.92199993133545 16.31999969482422,-15.583999633789062 C16.31999969482422,-15.583999633789062 13.102999687194824,-12.366999626159668 13.102999687194824,-12.366999626159668 C12.041000366210938,-11.305999755859375 12.041000366210938,-9.583000183105469 13.102999687194824,-8.520999908447266 C13.635000228881836,-7.988999843597412 14.331000328063965,-7.723999977111816 15.026000022888184,-7.723999977111816 C15.722000122070312,-7.723999977111816 16.417999267578125,-7.988999843597412 16.950000762939453,-8.520999908447266 C16.950000762939453,-8.520999908447266 24.631000518798828,-16.20199966430664 24.631000518798828,-16.20199966430664 C25.694000244140625,-17.263999938964844 25.694000244140625,-18.98699951171875 24.631000518798828,-20.048999786376953 C24.631000518798828,-20.048999786376953 16.950000762939453,-27.729999542236328 16.950000762939453,-27.729999542236328 C15.888999938964844,-28.792999267578125 14.163999557495117,-28.792999267578125 13.102999687194824,-27.729999542236328 C12.041000366210938,-26.667999267578125 12.041000366210938,-24.94499969482422 13.102999687194824,-23.882999420166016 C13.102999687194824,-23.882999420166016 15.96399974822998,-21.023000717163086 15.96399974822998,-21.023000717163086 C-7.473999977111816,-18.167999267578125 -25.694000244140625,1.840000033378601 -25.694000244140625,26.035999298095703 C-25.694000244140625,26.035999298095703 -25.694000244140625,26.108999252319336 -25.694000244140625,26.108999252319336 C-25.694000244140625,27.610000610351562 -24.47599983215332,28.792999267578125 -22.974000930786133,28.792999267578125 C-21.472000122070312,28.792999267578125 -20.253999710083008,27.538999557495117 -20.253999710083008,26.035999298095703z">
                    </path>
                </g>
            </g>
            <g style="display: block;"
                transform="matrix(2.3112001419067383,0,0,2.3112001419067383,69.8147964477539,52.84659957885742)"
                opacity="1">
                <g opacity="1" transform="matrix(0,0,0,0,90.8550033569336,43.34199905395508)">
                    <path fill="rgb(31,44,158)" fill-opacity="1"
                        d=" M-2.6449999809265137,0.7910000085830688 C-2.6449999809265137,0.7910000085830688 -2.6070001125335693,0.9309999942779541 -2.6070001125335693,0.9309999942779541 C-2.2780001163482666,2.1419999599456787 -1.180999994277954,2.937999963760376 0.017000000923871994,2.937999963760376 C0.25200000405311584,2.937999963760376 0.492000013589859,2.9079999923706055 0.7310000061988831,2.8429999351501465 C2.180000066757202,2.4489998817443848 3.0380001068115234,0.9549999833106995 2.6429998874664307,-0.4950000047683716 C2.6429998874664307,-0.4950000047683716 2.6050000190734863,-0.6340000033378601 2.6050000190734863,-0.6340000033378601 C2.2119998931884766,-2.0829999446868896 0.7179999947547913,-2.937999963760376 -0.7319999933242798,-2.546999931335449 C-2.180999994277954,-2.1540000438690186 -3.0380001068115234,-0.6600000262260437 -2.6449999809265137,0.7910000085830688z">
                    </path>
                </g>
            </g>
            <g style="display: block;"
                transform="matrix(2.3112001419067383,0,0,2.3112001419067383,69.81608581542969,52.84719467163086)"
                opacity="1">
                <g opacity="1" transform="matrix(0,0,0,0,86.38500213623047,32.5260009765625)">
                    <path fill="rgb(31,44,158)" fill-opacity="1"
                        d=" M-2.2990000247955322,1.6490000486373901 C-1.7910000085830688,2.503000020980835 -0.8880000114440918,2.9769999980926514 0.03799999877810478,2.9769999980926514 C0.5130000114440918,2.9769999980926514 0.9929999709129333,2.8529999256134033 1.4290000200271606,2.5910000801086426 C2.7209999561309814,1.8220000267028809 3.1419999599456787,0.15199999511241913 2.371000051498413,-1.1380000114440918 C2.371000051498413,-1.1380000114440918 2.3259999752044678,-1.2170000076293945 2.3259999752044678,-1.2170000076293945 C1.5800000429153442,-2.5220000743865967 -0.08100000023841858,-2.9760000705718994 -1.3839999437332153,-2.2300000190734863 C-2.690000057220459,-1.4839999675750732 -3.1429998874664307,0.1770000010728836 -2.3989999294281006,1.4819999933242798 C-2.3989999294281006,1.4819999933242798 -2.2990000247955322,1.6490000486373901 -2.2990000247955322,1.6490000486373901z">
                    </path>
                </g>
            </g>
            <g style="display: block;"
                transform="matrix(2.3112001419067383,0,0,2.3112001419067383,69.8140640258789,52.847633361816406)"
                opacity="1">
                <g opacity="1" transform="matrix(0,0,0,0,79.27799987792969,23.336000442504883)">
                    <path fill="rgb(31,44,158)" fill-opacity="1"
                        d=" M-1.871999979019165,2.1080000400543213 C-1.340999960899353,2.6389999389648438 -0.6460000276565552,2.9040000438690186 0.050999999046325684,2.9040000438690186 C0.7459999918937683,2.9040000438690186 1.444000005722046,2.6389999389648438 1.9730000495910645,2.1080000400543213 C3.0369999408721924,1.0460000038146973 3.0369999408721924,-0.6769999861717224 1.9730000495910645,-1.7389999628067017 C1.9730000495910645,-1.7389999628067017 1.8730000257492065,-1.840999960899353 1.8730000257492065,-1.840999960899353 C0.8119999766349792,-2.9040000438690186 -0.9129999876022339,-2.9040000438690186 -1.975000023841858,-1.840999960899353 C-3.0369999408721924,-0.7789999842643738 -3.0369999408721924,0.9440000057220459 -1.975000023841858,2.005000114440918 C-1.975000023841858,2.005000114440918 -1.871999979019165,2.1080000400543213 -1.871999979019165,2.1080000400543213z">
                    </path>
                </g>
            </g>
            <g style="display: block;"
                transform="matrix(2.3112001419067383,0,0,2.3112001419067383,69.81442260742188,52.847164154052734)"
                opacity="1">
                <g opacity="1" transform="matrix(0,0,0,0,70.0510025024414,16.170000076293945)">
                    <path fill="rgb(31,44,158)" fill-opacity="1"
                        d=" M-1.3389999866485596,2.572999954223633 C-0.906000018119812,2.828000068664551 -0.4320000112056732,2.947999954223633 0.035999998450279236,2.947999954223633 C0.9700000286102295,2.947999954223633 1.8769999742507935,2.4679999351501465 2.382999897003174,1.6039999723434448 C3.1449999809265137,0.3100000023841858 2.7109999656677246,-1.3559999465942383 1.4149999618530273,-2.117000102996826 C1.4149999618530273,-2.117000102996826 1.2630000114440918,-2.2060000896453857 1.2630000114440918,-2.2060000896453857 C-0.04100000113248825,-2.947999954223633 -1.6540000438690186,-2.4700000286102295 -2.4010000228881836,-1.1649999618530273 C-3.1449999809265137,0.13899999856948853 -2.6429998874664307,1.8279999494552612 -1.3389999866485596,2.572999954223633z">
                    </path>
                </g>
            </g>
            <g style="display: block;"
                transform="matrix(2.3112001419067383,0,0,2.3112001419067383,69.81489562988281,52.84857177734375)"
                opacity="1">
                <g opacity="1" transform="matrix(0,0,0,0,59.242000579833984,11.743000030517578)">
                    <path fill="rgb(31,44,158)" fill-opacity="1"
                        d=" M-0.7760000228881836,2.755000114440918 C-0.7760000228881836,2.755000114440918 -0.5920000076293945,2.802999973297119 -0.5920000076293945,2.802999973297119 C-0.3659999966621399,2.859999895095825 -0.14399999380111694,2.88700008392334 0.07699999958276749,2.88700008392334 C1.2940000295639038,2.88700008392334 2.4010000228881836,2.066999912261963 2.7139999866485596,0.8349999785423279 C3.0829999446868896,-0.6209999918937683 2.2009999752044678,-2.1010000705718994 0.7459999918937683,-2.4700000286102295 C0.7459999918937683,-2.4700000286102295 0.6499999761581421,-2.494999885559082 0.6499999761581421,-2.494999885559082 C-0.7990000247955322,-2.888000011444092 -2.2939999103546143,-2.0320000648498535 -2.688999891281128,-0.5820000171661377 C-3.0820000171661377,0.8669999837875366 -2.2260000705718994,2.359999895095825 -0.7760000228881836,2.755000114440918z">
                    </path>
                </g>
            </g>
            <g style="display: block;"
                transform="matrix(2.3112001419067383,0,0,2.3112001419067383,69.81463623046875,52.84812545776367)"
                opacity="1">
                <g opacity="1" transform="matrix(1,0,0,1,69.39800262451172,80.98300170898438)">
                    <path fill="rgb(31,44,158)" fill-opacity="1"
                        d=" M22.974000930786133,-28.65999984741211 C21.472000122070312,-28.65999984741211 20.253999710083008,-27.4060001373291 20.253999710083008,-25.90399932861328 C20.253999710083008,-4.5879998207092285 4.281000137329102,13.053999900817871 -16.319000244140625,15.717000007629395 C-16.319000244140625,15.717000007629395 -13.104000091552734,12.5 -13.104000091552734,12.5 C-12.041000366210938,11.439000129699707 -12.041000366210938,9.715999603271484 -13.104000091552734,8.654000282287598 C-14.166000366210938,7.591000080108643 -15.888999938964844,7.591000080108643 -16.950000762939453,8.654000282287598 C-16.950000762939453,8.654000282287598 -24.631999969482422,16.336000442504883 -24.631999969482422,16.336000442504883 C-25.69499969482422,17.39699935913086 -25.69499969482422,19.1200008392334 -24.631999969482422,20.180999755859375 C-24.631999969482422,20.180999755859375 -16.950000762939453,27.863000869750977 -16.950000762939453,27.863000869750977 C-16.420000076293945,28.393999099731445 -15.722999572753906,28.65999984741211 -15.026000022888184,28.65999984741211 C-14.329999923706055,28.65999984741211 -13.633000373840332,28.393999099731445 -13.104000091552734,27.863000869750977 C-12.041000366210938,26.801000595092773 -12.041000366210938,25.077999114990234 -13.104000091552734,24.017000198364258 C-13.104000091552734,24.017000198364258 -15.96500015258789,21.155000686645508 -15.96500015258789,21.155000686645508 C7.4730000495910645,18.301000595092773 25.694000244140625,-1.7059999704360962 25.694000244140625,-25.90399932861328 C25.694000244140625,-25.90399932861328 25.694000244140625,-25.975000381469727 25.694000244140625,-25.975000381469727 C25.694000244140625,-27.476999282836914 24.476999282836914,-28.65999984741211 22.974000930786133,-28.65999984741211z">
                    </path>
                </g>
            </g>
        </g>
    </g>
</svg>