<svg xmlns="http://www.w3.org/2000/svg" viewBox="0 0 600 600" width="600" height="600"
    style="width: 100%; height: 100%; transform: translate3d(0,0,0);" preserveAspectRatio="xMidYMid meet">
    <defs>
        <clipPath id="__lottie_element_2">
            <rect width="600" height="600" x="0" y="0"></rect>
        </clipPath>
        <clipPath id="__lottie_element_7">
            <path d="M0,0 L600,0 L600,600 L0,600z"></path>
        </clipPath>
        <clipPath id="__lottie_element_14">
            <path d="M0,0 L600,0 L600,600 L0,600z"></path>
        </clipPath>
        <clipPath id="__lottie_element_21">
            <path d="M0,0 L600,0 L600,600 L0,600z"></path>
        </clipPath>
    </defs>
    <g clip-path="url(#__lottie_element_2)">
        <g style="display: block;" transform="matrix(4.460000038146973,0,0,4.460000038146973,21.25,9.8699951171875)"
            opacity="1">
            <g opacity="1" transform="matrix(1,0,0,1,23.131000518798828,37.57099914550781)">
                <path stroke-linecap="round" stroke-linejoin="miter" fill-opacity="0" stroke-miterlimit="10"
                    stroke="rgb(0,131,255)" stroke-opacity="1" stroke-width="5"
                    d=" M-11.708999633789062,16.607999801635742 C-8.753000259399414,2.808000087738037 -0.29600000381469727,-9.187999725341797 11.708999633789062,-16.607999801635742">
                </path>
            </g>
            <g opacity="1" transform="matrix(1,0,0,1,27.027000427246094,94.37200164794922)">
                <path stroke-linecap="round" stroke-linejoin="miter" fill-opacity="0" stroke-miterlimit="10"
                    stroke="rgb(0,131,255)" stroke-opacity="1" stroke-width="5"
                    d=" M15.604999542236328,18.584999084472656 C-0.3149999976158142,12.133000373840332 -12.003999710083008,-1.7890000343322754 -15.604999542236328,-18.584999084472656">
                </path>
            </g>
            <g opacity="1" transform="matrix(1,0,0,1,68.97000122070312,115.77300262451172)">
                <path stroke-linecap="round" stroke-linejoin="miter" fill-opacity="0" stroke-miterlimit="10"
                    stroke="rgb(0,131,255)" stroke-opacity="1" stroke-width="5"
                    d=" M6.946000099182129,-0.9449999928474426 C2.4230000972747803,0.3100000023841858 -2.250999927520752,0.9449999928474426 -6.945000171661377,0.9409999847412109">
                </path>
            </g>
            <g opacity="1" transform="matrix(1,0,0,1,103.08000183105469,85.9260025024414)">
                <path stroke-linecap="round" stroke-linejoin="miter" fill-opacity="0" stroke-miterlimit="10"
                    stroke="rgb(0,131,255)" stroke-opacity="1" stroke-width="5"
                    d=" M10.675999641418457,-20.941999435424805 C10.689000129699707,-4.361000061035156 2.740999937057495,11.218000411987305 -10.689000129699707,20.941999435424805">
                </path>
            </g>
            <g opacity="1" transform="matrix(1,0,0,1,107.1709976196289,40.382999420166016)">
                <path stroke-linecap="round" stroke-linejoin="miter" fill-opacity="0" stroke-miterlimit="10"
                    stroke="rgb(0,131,255)" stroke-opacity="1" stroke-width="5"
                    d=" M-2.7780001163482666,-5.089000225067139 C-0.5490000247955322,-1.9160000085830688 1.3140000104904175,1.4980000257492065 2.7780001163482666,5.089000225067139">
                </path>
            </g>
            <g opacity="1" transform="matrix(1,0,0,1,72.0199966430664,17.351999282836914)">
                <path stroke-linecap="round" stroke-linejoin="miter" fill-opacity="0" stroke-miterlimit="10"
                    stroke="rgb(0,131,255)" stroke-opacity="1" stroke-width="5"
                    d=" M-17.98699951171875,-3.4860000610351562 C-15.343000411987305,-3.8949999809265137 -12.67199993133545,-4.099999904632568 -9.996000289916992,-4.098999977111816 C-0.07199999690055847,-4.114999771118164 9.645000457763672,-1.2630000114440918 17.986000061035156,4.114999771118164">
                </path>
            </g>
            <g opacity="1" transform="matrix(1,0,0,1,98.29499816894531,28.70599937438965)">
                <path fill="rgb(0,131,255)" fill-opacity="1"
                    d=" M4.1539998054504395,0 C4.1539998054504395,2.2939999103546143 2.2939999103546143,4.1539998054504395 0,4.1539998054504395 C-2.2939999103546143,4.1539998054504395 -4.1539998054504395,2.2939999103546143 -4.1539998054504395,0 C-4.1539998054504395,-2.2939999103546143 -2.2939999103546143,-4.1539998054504395 0,-4.1539998054504395 C2.2939999103546143,-4.1539998054504395 4.1539998054504395,-2.2939999103546143 4.1539998054504395,0z">
                </path>
            </g>
            <g opacity="1" transform="matrix(1,0,0,1,83.54199981689453,111.4520034790039)">
                <path fill="rgb(248,184,196)" fill-opacity="1"
                    d=" M4.1539998054504395,0 C4.1539998054504395,2.2939999103546143 2.2950000762939453,4.1539998054504395 0,4.1539998054504395 C-2.2939999103546143,4.1539998054504395 -4.1539998054504395,2.2939999103546143 -4.1539998054504395,0 C-4.1539998054504395,-2.2939999103546143 -2.2939999103546143,-4.1539998054504395 0,-4.1539998054504395 C2.2950000762939453,-4.1539998054504395 4.1539998054504395,-2.2939999103546143 4.1539998054504395,0z">
                </path>
            </g>
            <g opacity="1" transform="matrix(1,0,0,1,53.11899948120117,115.6050033569336)">
                <path fill="rgb(0,131,255)" fill-opacity="1"
                    d=" M4.1539998054504395,0 C4.1539998054504395,2.2939999103546143 2.2939999103546143,4.1539998054504395 0,4.1539998054504395 C-2.2939999103546143,4.1539998054504395 -4.1539998054504395,2.2939999103546143 -4.1539998054504395,0 C-4.1539998054504395,-2.2939999103546143 -2.2939999103546143,-4.1539998054504395 0,-4.1539998054504395 C2.2939999103546143,-4.1539998054504395 4.1539998054504395,-2.2939999103546143 4.1539998054504395,0z">
                </path>
            </g>
        </g>
        <g clip-path="url(#__lottie_element_21)" style="display: block;"
            transform="matrix(-0.9764266610145569,0.21584956347942352,-0.21584956347942352,-0.9764266610145569,657.682861328125,528.173095703125)"
            opacity="1">
            <g style="display: block;"
                transform="matrix(-0.8787839412689209,0.19426460564136505,-0.19426460564136505,-0.8787839412689209,-5.5650787353515625,301.7678527832031)"
                opacity="1">
                <g opacity="1" transform="matrix(1,0,0,1,-82.28500366210938,-15.28499984741211)">
                    <path fill="rgb(255,173,65)" fill-opacity="1"
                        d=" M19.715499877929688,-19.715499877929688 C19.715499877929688,-19.715499877929688 19.715499877929688,19.715499877929688 19.715499877929688,19.715499877929688 C19.715499877929688,19.715499877929688 -19.715499877929688,19.715499877929688 -19.715499877929688,19.715499877929688 C-19.715499877929688,19.715499877929688 -19.715499877929688,-19.715499877929688 -19.715499877929688,-19.715499877929688 C-19.715499877929688,-19.715499877929688 19.715499877929688,-19.715499877929688 19.715499877929688,-19.715499877929688z">
                    </path>
                    <path stroke-linecap="butt" stroke-linejoin="miter" fill-opacity="0" stroke-miterlimit="4"
                        stroke="rgb(255,255,255)" stroke-opacity="1" stroke-width="0"
                        d=" M19.715499877929688,-19.715499877929688 C19.715499877929688,-19.715499877929688 19.715499877929688,19.715499877929688 19.715499877929688,19.715499877929688 C19.715499877929688,19.715499877929688 -19.715499877929688,19.715499877929688 -19.715499877929688,19.715499877929688 C-19.715499877929688,19.715499877929688 -19.715499877929688,-19.715499877929688 -19.715499877929688,-19.715499877929688 C-19.715499877929688,-19.715499877929688 19.715499877929688,-19.715499877929688 19.715499877929688,-19.715499877929688z">
                    </path>
                </g>
            </g>
        </g>
        <g clip-path="url(#__lottie_element_14)" style="display: block;" transform="matrix(1,0,0,1,0,0)" opacity="1">
            <g style="display: block;"
                transform="matrix(0.949999988079071,0,0,0.949999988079071,288.625,300.01251220703125)" opacity="1">
                <g opacity="1" transform="matrix(1,0,0,1,0,0)">
                    <path fill="rgb(255,173,65)" fill-opacity="1"
                        d=" M-244,-23.25 C-244,-23.25 -244.25,23.25 -244.25,23.25 C-244.25,23.25 -203.75,0.25 -203.75,0.25 C-203.75,0.25 -244,-23.25 -244,-23.25z">
                    </path>
                    <path stroke-linecap="butt" stroke-linejoin="miter" fill-opacity="0" stroke-miterlimit="4"
                        stroke="rgb(255,255,255)" stroke-opacity="1" stroke-width="0"
                        d=" M-244,-23.25 C-244,-23.25 -244.25,23.25 -244.25,23.25 C-244.25,23.25 -203.75,0.25 -203.75,0.25 C-203.75,0.25 -244,-23.25 -244,-23.25z">
                    </path>
                </g>
            </g>
        </g>
        <g clip-path="url(#__lottie_element_7)" style="display: block;"
            transform="matrix(0.3645715117454529,0.9311754107475281,-0.9311754107475281,0.3645715117454529,469.98114013671875,-88.72406005859375)"
            opacity="1">
            <g style="display: block;"
                transform="matrix(0.3434063196182251,0.8857607245445251,-0.8857607245445251,0.3434063196182251,149.33628845214844,503.3795471191406)"
                opacity="1">
                <g opacity="1" transform="matrix(1,0,0,1,0,0)">
                    <path fill="rgb(0,131,255)" fill-opacity="1"
                        d=" M-244,-23.25 C-244,-23.25 -244.25,23.25 -244.25,23.25 C-244.25,23.25 -203.75,0.25 -203.75,0.25 C-203.75,0.25 -244,-23.25 -244,-23.25z">
                    </path>
                    <path stroke-linecap="butt" stroke-linejoin="miter" fill-opacity="0" stroke-miterlimit="4"
                        stroke="rgb(255,255,255)" stroke-opacity="1" stroke-width="0"
                        d=" M-244,-23.25 C-244,-23.25 -244.25,23.25 -244.25,23.25 C-244.25,23.25 -203.75,0.25 -203.75,0.25 C-203.75,0.25 -244,-23.25 -244,-23.25z">
                    </path>
                </g>
            </g>
        </g>
        <g style="display: block;" transform="matrix(4.460000038146973,0,0,4.460000038146973,21.25,9.8699951171875)"
            opacity="1">
            <g opacity="1" transform="matrix(1,0,0,1,61.86199951171875,64.7020034790039)">
                <path fill="rgb(0,131,255)" fill-opacity="1"
                    d=" M39.39099884033203,0 C39.39099884033203,21.7549991607666 21.7549991607666,39.391998291015625 -0.0010000000474974513,39.391998291015625 C-21.756000518798828,39.391998291015625 -39.393001556396484,21.7549991607666 -39.393001556396484,0 C-39.393001556396484,-21.756000518798828 -21.756000518798828,-39.391998291015625 -0.0010000000474974513,-39.391998291015625 C-0.0010000000474974513,-39.391998291015625 0.0010000000474974513,-39.391998291015625 0.0010000000474974513,-39.391998291015625 C21.756999969482422,-39.391998291015625 39.393001556396484,-21.756000518798828 39.393001556396484,0">
                </path>
            </g>
            <g opacity="1" transform="matrix(1,0,0,1,61.86199951171875,56.702999114990234)">
                <path fill="rgb(255,255,255)" fill-opacity="1"
                    d=" M11.229999542236328,-0.0010000000474974513 C11.230999946594238,6.202000141143799 6.203999996185303,11.229999542236328 0.0010000000474974513,11.230999946594238 C-6.202000141143799,11.230999946594238 -11.230999946594238,6.203999996185303 -11.232000350952148,0.0010000000474974513 C-11.232000350952148,-6.202000141143799 -6.204999923706055,-11.229999542236328 -0.0020000000949949026,-11.230999946594238 C-0.0020000000949949026,-11.230999946594238 0.0010000000474974513,-11.230999946594238 0.0010000000474974513,-11.230999946594238 C6.203000068664551,-11.229999542236328 11.229999542236328,-6.203000068664551 11.229999542236328,-0.0010000000474974513z">
                </path>
            </g>
            <g opacity="1" transform="matrix(1,0,0,1,61.8650016784668,90.4800033569336)">
                <path fill="rgb(255,255,255)" fill-opacity="1"
                    d=" M24.21500015258789,5.300000190734863 C17.53499984741211,10.5 9.125,13.609999656677246 -0.004999999888241291,13.609999656677246 C-9.135000228881836,13.609999656677246 -17.53499984741211,10.5 -24.21500015258789,5.289999961853027 C-20.274999618530273,-5.800000190734863 -10.914999961853027,-13.609999656677246 -0.004999999888241291,-13.609999656677246 C10.914999961853027,-13.609999656677246 20.274999618530273,-5.800000190734863 24.21500015258789,5.300000190734863z">
                </path>
            </g>
            <g opacity="1" transform="matrix(1,0,0,1,61.86199951171875,56.702999114990234)">
                <path fill="rgb(255,255,255)" fill-opacity="1"
                    d=" M11.229999542236328,-0.0010000000474974513 C11.230999946594238,6.202000141143799 6.203999996185303,11.229999542236328 0.0010000000474974513,11.230999946594238 C-6.202000141143799,11.230999946594238 -11.230999946594238,6.203999996185303 -11.232000350952148,0.0010000000474974513 C-11.232000350952148,-6.202000141143799 -6.204999923706055,-11.229999542236328 -0.0020000000949949026,-11.230999946594238 C-0.0020000000949949026,-11.230999946594238 0.0010000000474974513,-11.230999946594238 0.0010000000474974513,-11.230999946594238 C6.203000068664551,-11.229999542236328 11.229999542236328,-6.203000068664551 11.229999542236328,-0.0010000000474974513z">
                </path>
            </g>
        </g>
    </g>
</svg>