<svg xmlns="http://www.w3.org/2000/svg" viewBox="0 0 2000 2000" width="2000" height="2000"
    style="width: 100%; height: 100%; transform: translate3d(0,0,0);" preserveAspectRatio="xMidYMid meet">
    <defs>
        <clipPath id="__lottie_element_2">
            <rect width="2000" height="2000" x="0" y="0"></rect>
        </clipPath>
    </defs>
    <g clip-path="url(#__lottie_element_2)">
        <g style="display: block;" transform="matrix(0.25,0,0,0.25,480,690)" opacity="1">
            <g opacity="1" transform="matrix(1,0,0,1,1012.25,985)">
                <path fill="rgb(100,126,152)" fill-opacity="1"
                    d=" M648.89501953125,-115.32499694824219 C648.89501953125,-115.32499694824219 536.9760131835938,-115.32499694824219 536.9760131835938,-115.32499694824219 C522.14697265625,-184.6300048828125 494.25,-249.21200561523438 455.9179992675781,-306.1059875488281 C455.9179992675781,-306.1059875488281 534.5590209960938,-384.74700927734375 534.5590209960938,-384.74700927734375 C491.614013671875,-444.4960021972656 438.67498779296875,-496.7770080566406 378.3760070800781,-539.1729736328125 C378.3760070800781,-539.1729736328125 299.5159912109375,-460.31201171875 299.5159912109375,-460.31201171875 C242.7310028076172,-497.32598876953125 178.58900451660156,-524.2349853515625 109.83300018310547,-538.072998046875 C109.83300018310547,-538.072998046875 109.83300018310547,-649.7750244140625 109.83300018310547,-649.7750244140625 C74.13800048828125,-655.8150024414062 37.452999114990234,-659 0,-659 C-37.452999114990234,-659 -74.13800048828125,-655.8150024414062 -109.83399963378906,-649.7750244140625 C-109.83399963378906,-649.7750244140625 -109.83399963378906,-538.072998046875 -109.83399963378906,-538.072998046875 C-178.58900451660156,-524.2349853515625 -242.7310028076172,-497.32598876953125 -299.5159912109375,-460.31201171875 C-299.5159912109375,-460.31201171875 -378.3760070800781,-539.1729736328125 -378.3760070800781,-539.1729736328125 C-438.67401123046875,-496.7770080566406 -491.614013671875,-444.4960021972656 -534.5590209960938,-384.74700927734375 C-534.5590209960938,-384.74700927734375 -455.9179992675781,-306.1059875488281 -455.9179992675781,-306.1059875488281 C-494.25,-249.21200561523438 -522.14697265625,-184.6300048828125 -536.9749755859375,-115.32499694824219 C-536.9749755859375,-115.32499694824219 -648.89599609375,-115.32499694824219 -648.89599609375,-115.32499694824219 C-655.4849853515625,-77.87200164794922 -659,-39.31999969482422 -659,0 C-659,35.474998474121094 -656.1439819335938,70.40299987792969 -650.7630004882812,104.34200286865234 C-650.7630004882812,104.34200286865234 -539.1719970703125,104.34200286865234 -539.1719970703125,104.34200286865234 C-525.552001953125,175.1840057373047 -498.3139953613281,241.1929931640625 -460.3110046386719,299.5140075683594 C-460.3110046386719,299.5140075683594 -539.1719970703125,378.3760070800781 -539.1719970703125,378.3760070800781 C-496.7760009765625,438.67498779296875 -444.4949951171875,491.614013671875 -384.74700927734375,534.5579833984375 C-384.74700927734375,534.5579833984375 -306.1050109863281,455.9179992675781 -306.1050109863281,455.9179992675781 C-247.6739959716797,495.2380065917969 -181.22500610351562,523.6849975585938 -109.83399963378906,538.072998046875 C-109.83399963378906,538.072998046875 -109.83399963378906,649.7730102539062 -109.83399963378906,649.7730102539062 C-74.13800048828125,655.8140258789062 -37.452999114990234,659 0,659 C37.452999114990234,659 74.13800048828125,655.8140258789062 109.83300018310547,649.7730102539062 C109.83300018310547,649.7730102539062 109.83300018310547,538.072998046875 109.83300018310547,538.072998046875 C181.22500610351562,523.6849975585938 247.6739959716797,495.2380065917969 306.1050109863281,455.9179992675781 C306.1050109863281,455.9179992675781 384.7460021972656,534.5579833984375 384.7460021972656,534.5579833984375 C444.4949951171875,491.614013671875 496.7760009765625,438.67498779296875 539.1719970703125,378.3760070800781 C539.1719970703125,378.3760070800781 460.3110046386719,299.5140075683594 460.3110046386719,299.5140075683594 C498.31298828125,241.1929931640625 525.552001953125,175.1840057373047 539.1719970703125,104.34200286865234 C539.1719970703125,104.34200286865234 650.7630004882812,104.34200286865234 650.7630004882812,104.34200286865234 C656.14501953125,70.40299987792969 659,35.474998474121094 659,0 C659,-39.31999969482422 655.4849853515625,-77.87200164794922 648.89501953125,-115.32499694824219z M254.37399291992188,93.5770034790039 C253.05599975585938,97.2020034790039 251.6280059814453,100.8270034790039 250.09100341796875,104.34200286865234 C223.1820068359375,168.0449981689453 172.8780059814453,219.44700622558594 109.83300018310547,247.6739959716797 C107.08799743652344,248.99200439453125 104.34200286865234,250.1999969482422 101.48600006103516,251.2989959716797 C69.41500091552734,264.5880126953125 34.15800094604492,271.8380126953125 -2.746000051498413,271.8380126953125 C-38.22200012207031,271.8380126953125 -72.0510025024414,265.13800048828125 -103.02400207519531,252.83599853515625 C-105.33100128173828,252.06700134277344 -107.63700103759766,251.07899475097656 -109.83399963378906,250.08999633789062 C-175.4029998779297,222.41200256347656 -227.9040069580078,169.91200256347656 -255.58299255371094,104.34200286865234 C-256.57000732421875,102.14399719238281 -257.5589904785156,99.83799743652344 -258.3280029296875,97.53199768066406 C-270.6289978027344,66.55799865722656 -277.3290100097656,32.72999954223633 -277.3290100097656,-2.746000051498413 C-277.3290100097656,-39.650001525878906 -270.08099365234375,-74.90599822998047 -256.7909851074219,-106.97799682617188 C-255.69200134277344,-109.83399963378906 -254.48399353027344,-112.5790023803711 -253.16600036621094,-115.32499694824219 C-224.93800354003906,-178.36900329589844 -173.53700256347656,-228.67300415039062 -109.83399963378906,-255.58299255371094 C-106.31800079345703,-257.1199951171875 -102.69400024414062,-258.5480041503906 -99.06999969482422,-259.8659973144531 C-69.08499908447266,-271.1789855957031 -36.685001373291016,-277.3290100097656 -2.746000051498413,-277.3290100097656 C32.72999954223633,-277.3290100097656 66.55899810791016,-270.6300048828125 97.53199768066406,-258.3280029296875 C101.70600128173828,-256.7909851074219 105.87999725341797,-255.0330047607422 109.83300018310547,-253.16600036621094 C171.01100158691406,-225.70799255371094 220.21600341796875,-176.5030059814453 247.6739959716797,-115.32499694824219 C249.54100036621094,-111.37100219726562 251.2989959716797,-107.1969985961914 252.83700561523438,-103.02400207519531 C265.13800048828125,-72.0510025024414 271.8380126953125,-38.222999572753906 271.8380126953125,-2.746000051498413 C271.8380126953125,31.191999435424805 265.68701171875,63.59299850463867 254.37399291992188,93.5770034790039z">
                </path>
            </g>
        </g>
        <g style="display: block;" transform="matrix(0.41999998688697815,0,0,0.41999998688697815,796,412)" opacity="1">
            <g opacity="1" transform="matrix(1,0,0,1,1012.25,985)">
                <path fill="rgb(76,99,122)" fill-opacity="1"
                    d=" M648.89501953125,-115.32499694824219 C648.89501953125,-115.32499694824219 536.9760131835938,-115.32499694824219 536.9760131835938,-115.32499694824219 C522.14697265625,-184.6300048828125 494.25,-249.21200561523438 455.9179992675781,-306.1059875488281 C455.9179992675781,-306.1059875488281 534.5590209960938,-384.74700927734375 534.5590209960938,-384.74700927734375 C491.614013671875,-444.4960021972656 438.67498779296875,-496.7770080566406 378.3760070800781,-539.1729736328125 C378.3760070800781,-539.1729736328125 299.5159912109375,-460.31201171875 299.5159912109375,-460.31201171875 C242.7310028076172,-497.32598876953125 178.58900451660156,-524.2349853515625 109.83300018310547,-538.072998046875 C109.83300018310547,-538.072998046875 109.83300018310547,-649.7750244140625 109.83300018310547,-649.7750244140625 C74.13800048828125,-655.8150024414062 37.452999114990234,-659 0,-659 C-37.452999114990234,-659 -74.13800048828125,-655.8150024414062 -109.83399963378906,-649.7750244140625 C-109.83399963378906,-649.7750244140625 -109.83399963378906,-538.072998046875 -109.83399963378906,-538.072998046875 C-178.58900451660156,-524.2349853515625 -242.7310028076172,-497.32598876953125 -299.5159912109375,-460.31201171875 C-299.5159912109375,-460.31201171875 -378.3760070800781,-539.1729736328125 -378.3760070800781,-539.1729736328125 C-438.67401123046875,-496.7770080566406 -491.614013671875,-444.4960021972656 -534.5590209960938,-384.74700927734375 C-534.5590209960938,-384.74700927734375 -455.9179992675781,-306.1059875488281 -455.9179992675781,-306.1059875488281 C-494.25,-249.21200561523438 -522.14697265625,-184.6300048828125 -536.9749755859375,-115.32499694824219 C-536.9749755859375,-115.32499694824219 -648.89599609375,-115.32499694824219 -648.89599609375,-115.32499694824219 C-655.4849853515625,-77.87200164794922 -659,-39.31999969482422 -659,0 C-659,35.474998474121094 -656.1439819335938,70.40299987792969 -650.7630004882812,104.34200286865234 C-650.7630004882812,104.34200286865234 -539.1719970703125,104.34200286865234 -539.1719970703125,104.34200286865234 C-525.552001953125,175.1840057373047 -498.3139953613281,241.1929931640625 -460.3110046386719,299.5140075683594 C-460.3110046386719,299.5140075683594 -539.1719970703125,378.3760070800781 -539.1719970703125,378.3760070800781 C-496.7760009765625,438.67498779296875 -444.4949951171875,491.614013671875 -384.74700927734375,534.5579833984375 C-384.74700927734375,534.5579833984375 -306.1050109863281,455.9179992675781 -306.1050109863281,455.9179992675781 C-247.6739959716797,495.2380065917969 -181.22500610351562,523.6849975585938 -109.83399963378906,538.072998046875 C-109.83399963378906,538.072998046875 -109.83399963378906,649.7730102539062 -109.83399963378906,649.7730102539062 C-74.13800048828125,655.8140258789062 -37.452999114990234,659 0,659 C37.452999114990234,659 74.13800048828125,655.8140258789062 109.83300018310547,649.7730102539062 C109.83300018310547,649.7730102539062 109.83300018310547,538.072998046875 109.83300018310547,538.072998046875 C181.22500610351562,523.6849975585938 247.6739959716797,495.2380065917969 306.1050109863281,455.9179992675781 C306.1050109863281,455.9179992675781 384.7460021972656,534.5579833984375 384.7460021972656,534.5579833984375 C444.4949951171875,491.614013671875 496.7760009765625,438.67498779296875 539.1719970703125,378.3760070800781 C539.1719970703125,378.3760070800781 460.3110046386719,299.5140075683594 460.3110046386719,299.5140075683594 C498.31298828125,241.1929931640625 525.552001953125,175.1840057373047 539.1719970703125,104.34200286865234 C539.1719970703125,104.34200286865234 650.7630004882812,104.34200286865234 650.7630004882812,104.34200286865234 C656.14501953125,70.40299987792969 659,35.474998474121094 659,0 C659,-39.31999969482422 655.4849853515625,-77.87200164794922 648.89501953125,-115.32499694824219z M254.37399291992188,93.5770034790039 C253.05599975585938,97.2020034790039 251.6280059814453,100.8270034790039 250.09100341796875,104.34200286865234 C223.1820068359375,168.0449981689453 172.8780059814453,219.44700622558594 109.83300018310547,247.6739959716797 C107.08799743652344,248.99200439453125 104.34200286865234,250.1999969482422 101.48600006103516,251.2989959716797 C69.41500091552734,264.5880126953125 34.15800094604492,271.8380126953125 -2.746000051498413,271.8380126953125 C-38.22200012207031,271.8380126953125 -72.0510025024414,265.13800048828125 -103.02400207519531,252.83599853515625 C-105.33100128173828,252.06700134277344 -107.63700103759766,251.07899475097656 -109.83399963378906,250.08999633789062 C-175.4029998779297,222.41200256347656 -227.9040069580078,169.91200256347656 -255.58299255371094,104.34200286865234 C-256.57000732421875,102.14399719238281 -257.5589904785156,99.83799743652344 -258.3280029296875,97.53199768066406 C-270.6289978027344,66.55799865722656 -277.3290100097656,32.72999954223633 -277.3290100097656,-2.746000051498413 C-277.3290100097656,-39.650001525878906 -270.08099365234375,-74.90599822998047 -256.7909851074219,-106.97799682617188 C-255.69200134277344,-109.83399963378906 -254.48399353027344,-112.5790023803711 -253.16600036621094,-115.32499694824219 C-224.93800354003906,-178.36900329589844 -173.53700256347656,-228.67300415039062 -109.83399963378906,-255.58299255371094 C-106.31800079345703,-257.1199951171875 -102.69400024414062,-258.5480041503906 -99.06999969482422,-259.8659973144531 C-69.08499908447266,-271.1789855957031 -36.685001373291016,-277.3290100097656 -2.746000051498413,-277.3290100097656 C32.72999954223633,-277.3290100097656 66.55899810791016,-270.6300048828125 97.53199768066406,-258.3280029296875 C101.70600128173828,-256.7909851074219 105.87999725341797,-255.0330047607422 109.83300018310547,-253.16600036621094 C171.01100158691406,-225.70799255371094 220.21600341796875,-176.5030059814453 247.6739959716797,-115.32499694824219 C249.54100036621094,-111.37100219726562 251.2989959716797,-107.1969985961914 252.83700561523438,-103.02400207519531 C265.13800048828125,-72.0510025024414 271.8380126953125,-38.222999572753906 271.8380126953125,-2.746000051498413 C271.8380126953125,31.191999435424805 265.68701171875,63.59299850463867 254.37399291992188,93.5770034790039z">
                </path>
            </g>
        </g>
        <g style="display: block;" transform="matrix(0.3499999940395355,0,0,0.3499999940395355,650,974)" opacity="1">
            <g opacity="1" transform="matrix(1,0,0,1,1012.25,985)">
                <path fill="rgb(67,109,149)" fill-opacity="1"
                    d=" M648.89501953125,-115.32499694824219 C648.89501953125,-115.32499694824219 536.9760131835938,-115.32499694824219 536.9760131835938,-115.32499694824219 C522.14697265625,-184.6300048828125 494.25,-249.21200561523438 455.9179992675781,-306.1059875488281 C455.9179992675781,-306.1059875488281 534.5590209960938,-384.74700927734375 534.5590209960938,-384.74700927734375 C491.614013671875,-444.4960021972656 438.67498779296875,-496.7770080566406 378.3760070800781,-539.1729736328125 C378.3760070800781,-539.1729736328125 299.5159912109375,-460.31201171875 299.5159912109375,-460.31201171875 C242.7310028076172,-497.32598876953125 178.58900451660156,-524.2349853515625 109.83300018310547,-538.072998046875 C109.83300018310547,-538.072998046875 109.83300018310547,-649.7750244140625 109.83300018310547,-649.7750244140625 C74.13800048828125,-655.8150024414062 37.452999114990234,-659 0,-659 C-37.452999114990234,-659 -74.13800048828125,-655.8150024414062 -109.83399963378906,-649.7750244140625 C-109.83399963378906,-649.7750244140625 -109.83399963378906,-538.072998046875 -109.83399963378906,-538.072998046875 C-178.58900451660156,-524.2349853515625 -242.7310028076172,-497.32598876953125 -299.5159912109375,-460.31201171875 C-299.5159912109375,-460.31201171875 -378.3760070800781,-539.1729736328125 -378.3760070800781,-539.1729736328125 C-438.67401123046875,-496.7770080566406 -491.614013671875,-444.4960021972656 -534.5590209960938,-384.74700927734375 C-534.5590209960938,-384.74700927734375 -455.9179992675781,-306.1059875488281 -455.9179992675781,-306.1059875488281 C-494.25,-249.21200561523438 -522.14697265625,-184.6300048828125 -536.9749755859375,-115.32499694824219 C-536.9749755859375,-115.32499694824219 -648.89599609375,-115.32499694824219 -648.89599609375,-115.32499694824219 C-655.4849853515625,-77.87200164794922 -659,-39.31999969482422 -659,0 C-659,35.474998474121094 -656.1439819335938,70.40299987792969 -650.7630004882812,104.34200286865234 C-650.7630004882812,104.34200286865234 -539.1719970703125,104.34200286865234 -539.1719970703125,104.34200286865234 C-525.552001953125,175.1840057373047 -498.3139953613281,241.1929931640625 -460.3110046386719,299.5140075683594 C-460.3110046386719,299.5140075683594 -539.1719970703125,378.3760070800781 -539.1719970703125,378.3760070800781 C-496.7760009765625,438.67498779296875 -444.4949951171875,491.614013671875 -384.74700927734375,534.5579833984375 C-384.74700927734375,534.5579833984375 -306.1050109863281,455.9179992675781 -306.1050109863281,455.9179992675781 C-247.6739959716797,495.2380065917969 -181.22500610351562,523.6849975585938 -109.83399963378906,538.072998046875 C-109.83399963378906,538.072998046875 -109.83399963378906,649.7730102539062 -109.83399963378906,649.7730102539062 C-74.13800048828125,655.8140258789062 -37.452999114990234,659 0,659 C37.452999114990234,659 74.13800048828125,655.8140258789062 109.83300018310547,649.7730102539062 C109.83300018310547,649.7730102539062 109.83300018310547,538.072998046875 109.83300018310547,538.072998046875 C181.22500610351562,523.6849975585938 247.6739959716797,495.2380065917969 306.1050109863281,455.9179992675781 C306.1050109863281,455.9179992675781 384.7460021972656,534.5579833984375 384.7460021972656,534.5579833984375 C444.4949951171875,491.614013671875 496.7760009765625,438.67498779296875 539.1719970703125,378.3760070800781 C539.1719970703125,378.3760070800781 460.3110046386719,299.5140075683594 460.3110046386719,299.5140075683594 C498.31298828125,241.1929931640625 525.552001953125,175.1840057373047 539.1719970703125,104.34200286865234 C539.1719970703125,104.34200286865234 650.7630004882812,104.34200286865234 650.7630004882812,104.34200286865234 C656.14501953125,70.40299987792969 659,35.474998474121094 659,0 C659,-39.31999969482422 655.4849853515625,-77.87200164794922 648.89501953125,-115.32499694824219z M254.37399291992188,93.5770034790039 C253.05599975585938,97.2020034790039 251.6280059814453,100.8270034790039 250.09100341796875,104.34200286865234 C223.1820068359375,168.0449981689453 172.8780059814453,219.44700622558594 109.83300018310547,247.6739959716797 C107.08799743652344,248.99200439453125 104.34200286865234,250.1999969482422 101.48600006103516,251.2989959716797 C69.41500091552734,264.5880126953125 34.15800094604492,271.8380126953125 -2.746000051498413,271.8380126953125 C-38.22200012207031,271.8380126953125 -72.0510025024414,265.13800048828125 -103.02400207519531,252.83599853515625 C-105.33100128173828,252.06700134277344 -107.63700103759766,251.07899475097656 -109.83399963378906,250.08999633789062 C-175.4029998779297,222.41200256347656 -227.9040069580078,169.91200256347656 -255.58299255371094,104.34200286865234 C-256.57000732421875,102.14399719238281 -257.5589904785156,99.83799743652344 -258.3280029296875,97.53199768066406 C-270.6289978027344,66.55799865722656 -277.3290100097656,32.72999954223633 -277.3290100097656,-2.746000051498413 C-277.3290100097656,-39.650001525878906 -270.08099365234375,-74.90599822998047 -256.7909851074219,-106.97799682617188 C-255.69200134277344,-109.83399963378906 -254.48399353027344,-112.5790023803711 -253.16600036621094,-115.32499694824219 C-224.93800354003906,-178.36900329589844 -173.53700256347656,-228.67300415039062 -109.83399963378906,-255.58299255371094 C-106.31800079345703,-257.1199951171875 -102.69400024414062,-258.5480041503906 -99.06999969482422,-259.8659973144531 C-69.08499908447266,-271.1789855957031 -36.685001373291016,-277.3290100097656 -2.746000051498413,-277.3290100097656 C32.72999954223633,-277.3290100097656 66.55899810791016,-270.6300048828125 97.53199768066406,-258.3280029296875 C101.70600128173828,-256.7909851074219 105.87999725341797,-255.0330047607422 109.83300018310547,-253.16600036621094 C171.01100158691406,-225.70799255371094 220.21600341796875,-176.5030059814453 247.6739959716797,-115.32499694824219 C249.54100036621094,-111.37100219726562 251.2989959716797,-107.1969985961914 252.83700561523438,-103.02400207519531 C265.13800048828125,-72.0510025024414 271.8380126953125,-38.222999572753906 271.8380126953125,-2.746000051498413 C271.8380126953125,31.191999435424805 265.68701171875,63.59299850463867 254.37399291992188,93.5770034790039z">
                </path>
            </g>
        </g>
    </g>
</svg>