<svg xmlns="http://www.w3.org/2000/svg" viewBox="0 0 110 106" width="110" height="106" style="width: 100%; height: 100%; transform: translate3d(0,0,0);" preserveAspectRatio="xMidYMid meet"><defs><clipPath id="__lottie_element_2"><rect width="110" height="106" x="0" y="0"></rect></clipPath></defs><g clip-path="url(#__lottie_element_2)"><g style="display: block;" transform="matrix(1,0,0,1,70.88995361328125,27.246017456054688)" opacity="1"><g opacity="1" transform="matrix(1,0,0,1,0,0)"><path fill="rgb(236,125,125)" fill-opacity="1" d=" M1,0 C1.551900029182434,0 2,0.4481000006198883 2,1 C2,1.551900029182434 1.551900029182434,2 1,2 C0.4481000006198883,2 0,1.551900029182434 0,1 C0,0.4481000006198883 0.4481000006198883,0 1,0z"></path><path stroke-linecap="square" stroke-linejoin="miter" fill-opacity="0" stroke-miterlimit="1" stroke="rgb(0,0,0)" stroke-opacity="1" stroke-width="1" d=" M1,0 C1.551900029182434,0 2,0.4481000006198883 2,1 C2,1.551900029182434 1.551900029182434,2 1,2 C0.4481000006198883,2 0,1.551900029182434 0,1 C0,0.4481000006198883 0.4481000006198883,0 1,0z"></path></g></g><g style="display: block;" transform="matrix(1,0,0,1,49.888427734375,48.36895751953125)" opacity="1"><g opacity="1" transform="matrix(1,0,0,1,0,0)"><path fill="rgb(236,125,125)" fill-opacity="1" d=" M7,0.5 C10.587349891662598,0.5 13.5,3.4126501083374023 13.5,7 C13.5,10.587349891662598 10.587349891662598,13.5 7,13.5 C3.4126501083374023,13.5 0.5,10.587349891662598 0.5,7 C0.5,3.4126501083374023 3.4126501083374023,0.5 7,0.5z"></path><path stroke-linecap="square" stroke-linejoin="miter" fill-opacity="0" stroke-miterlimit="1" stroke="rgb(0,0,0)" stroke-opacity="1" stroke-width="1" d=" M7,0.5 C10.587349891662598,0.5 13.5,3.4126501083374023 13.5,7 C13.5,10.587349891662598 10.587349891662598,13.5 7,13.5 C3.4126501083374023,13.5 0.5,10.587349891662598 0.5,7 C0.5,3.4126501083374023 3.4126501083374023,0.5 7,0.5z"></path></g></g><g style="display: block;" transform="matrix(1,0,0,1,40.00146484375,49)" opacity="1"><g opacity="1" transform="matrix(1,0,0,1,0,0)"><path fill="rgb(236,125,125)" fill-opacity="1" d=" M7,0.5 C10.587349891662598,0.5 13.5,3.4126501083374023 13.5,7 C13.5,10.587349891662598 10.587349891662598,13.5 7,13.5 C3.4126501083374023,13.5 0.5,10.587349891662598 0.5,7 C0.5,3.4126501083374023 3.4126501083374023,0.5 7,0.5z"></path><path stroke-linecap="square" stroke-linejoin="miter" fill-opacity="0" stroke-miterlimit="1" stroke="rgb(0,0,0)" stroke-opacity="1" stroke-width="1" d=" M7,0.5 C10.587349891662598,0.5 13.5,3.4126501083374023 13.5,7 C13.5,10.587349891662598 10.587349891662598,13.5 7,13.5 C3.4126501083374023,13.5 0.5,10.587349891662598 0.5,7 C0.5,3.4126501083374023 3.4126501083374023,0.5 7,0.5z"></path></g></g><g style="display: block;" transform="matrix(1,0,0,1,58.99993896484375,50.2459716796875)" opacity="1"><g opacity="1" transform="matrix(1,0,0,1,0,0)"><path fill="rgb(236,125,125)" fill-opacity="1" d=" M5,0.5 C7.483550071716309,0.5 9.5,2.5164499282836914 9.5,5 C9.5,7.483550071716309 7.483550071716309,9.5 5,9.5 C2.5164499282836914,9.5 0.5,7.483550071716309 0.5,5 C0.5,2.5164499282836914 2.5164499282836914,0.5 5,0.5z"></path><path stroke-linecap="square" stroke-linejoin="miter" fill-opacity="0" stroke-miterlimit="1" stroke="rgb(0,0,0)" stroke-opacity="1" stroke-width="1" d=" M5,0.5 C7.483550071716309,0.5 9.5,2.5164499282836914 9.5,5 C9.5,7.483550071716309 7.483550071716309,9.5 5,9.5 C2.5164499282836914,9.5 0.5,7.483550071716309 0.5,5 C0.5,2.5164499282836914 2.5164499282836914,0.5 5,0.5z"></path></g></g><g style="display: block;" transform="matrix(1,0,0,1,58.00146484375,38.36897277832031)" opacity="1"><g opacity="1" transform="matrix(1,0,0,1,0,0)"><path fill="rgb(205,205,205)" fill-opacity="1" d=" M16,12.126399993896484 C14.800000190734863,12.126399993896484 14.296299934387207,11.459799766540527 14.1943998336792,11.126399993896484 C13.149999618530273,11.126399993896484 13.296299934387207,9.459770202636719 13.5,8.626429557800293 C13.5,8.626429557800293 22.5,1.1264300346374512 22.5,1.1264300346374512 C23,0.9597640037536621 24.200000762939453,0.8264309763908386 25,1.6264300346374512 C25.799999237060547,2.4264299869537354 25.33329963684082,3.626430034637451 25,4.126430034637451 C25,4.126430034637451 16,12.126399993896484 16,12.126399993896484z"></path><path stroke-linecap="square" stroke-linejoin="miter" fill-opacity="0" stroke-miterlimit="1" stroke="rgb(0,0,0)" stroke-opacity="0" stroke-width="0" d=" M16,12.126399993896484 C14.800000190734863,12.126399993896484 14.296299934387207,11.459799766540527 14.1943998336792,11.126399993896484 C13.149999618530273,11.126399993896484 13.296299934387207,9.459770202636719 13.5,8.626429557800293 C13.5,8.626429557800293 22.5,1.1264300346374512 22.5,1.1264300346374512 C23,0.9597640037536621 24.200000762939453,0.8264309763908386 25,1.6264300346374512 C25.799999237060547,2.4264299869537354 25.33329963684082,3.626430034637451 25,4.126430034637451 C25,4.126430034637451 16,12.126399993896484 16,12.126399993896484z"></path></g><g opacity="1" transform="matrix(1,0,0,1,0,0)"><path fill="rgb(0,0,0)" fill-opacity="0" d=" M14.1943998336792,11.126399993896484 C14.296299934387207,11.459799766540527 14.800000190734863,12.126399993896484 16,12.126399993896484 C16,12.126399993896484 25,4.126430034637451 25,4.126430034637451 C25.33329963684082,3.626430034637451 25.799999237060547,2.4264299869537354 25,1.6264300346374512 C24.200000762939453,0.8264309763908386 23,0.9597640037536621 22.5,1.1264300346374512 C22.5,1.1264300346374512 13.5,8.626429557800293 13.5,8.626429557800293 C13.296299934387207,9.459770202636719 13.149999618530273,11.126399993896484 14.1943998336792,11.126399993896484z M1,23.626399993896484 C1,23.626399993896484 14.1943998336792,11.126399993896484 14.1943998336792,11.126399993896484 M20,5.626430034637451 C20,5.626430034637451 14.1943998336792,11.126399993896484 14.1943998336792,11.126399993896484"></path><path stroke-linecap="square" stroke-linejoin="miter" fill-opacity="0" stroke-miterlimit="1" stroke="rgb(0,0,0)" stroke-opacity="1" stroke-width="1" d=" M14.1943998336792,11.126399993896484 C14.296299934387207,11.459799766540527 14.800000190734863,12.126399993896484 16,12.126399993896484 C16,12.126399993896484 25,4.126430034637451 25,4.126430034637451 C25.33329963684082,3.626430034637451 25.799999237060547,2.4264299869537354 25,1.6264300346374512 C24.200000762939453,0.8264309763908386 23,0.9597640037536621 22.5,1.1264300346374512 C22.5,1.1264300346374512 13.5,8.626429557800293 13.5,8.626429557800293 C13.296299934387207,9.459770202636719 13.149999618530273,11.126399993896484 14.1943998336792,11.126399993896484z M1,23.626399993896484 C1,23.626399993896484 14.1943998336792,11.126399993896484 14.1943998336792,11.126399993896484 M20,5.626430034637451 C20,5.626430034637451 14.1943998336792,11.126399993896484 14.1943998336792,11.126399993896484"></path></g></g><g style="display: block;" transform="matrix(1,0,0,1,67.388427734375,39.00001525878906)" opacity="1"><g opacity="1" transform="matrix(1,0,0,1,0,0)"><path fill="rgb(236,125,125)" fill-opacity="1" d=" M1,0 C1.551900029182434,0 2,0.4481000006198883 2,1 C2,1.551900029182434 1.551900029182434,2 1,2 C0.4481000006198883,2 0,1.551900029182434 0,1 C0,0.4481000006198883 0.4481000006198883,0 1,0z"></path><path stroke-linecap="square" stroke-linejoin="miter" fill-opacity="0" stroke-miterlimit="1" stroke="rgb(0,0,0)" stroke-opacity="1" stroke-width="1" d=" M1,0 C1.551900029182434,0 2,0.4481000006198883 2,1 C2,1.551900029182434 1.551900029182434,2 1,2 C0.4481000006198883,2 0,1.551900029182434 0,1 C0,0.4481000006198883 0.4481000006198883,0 1,0z"></path></g></g><g style="display: block;" transform="matrix(1,0,0,1,24.11297607421875,52.87699890136719)" opacity="1"><g opacity="1" transform="matrix(1,0,0,1,0,0)"><path fill="rgb(255,230,230)" fill-opacity="1" d=" M42.07809829711914,32 C35.911399841308594,32.16669845581055 22.578100204467773,32.400001525878906 18.578100204467773,32 C15.762800216674805,31.7185001373291 14.433600425720215,29.76919937133789 13.893199920654297,28 C13.665800094604492,27.25550079345703 13.578100204467773,26.542999267578125 13.578100204467773,26 C13.578100204467773,26 11.967000007629395,5.861680030822754 11.967000007629395,5.861680030822754 C9.170729637145996,5.907790184020996 3.378109931945801,5.972340106964111 2.5781099796295166,5.861680030822754 C2.5781099796295166,5.861680030822754 2.53629994392395,5.855760097503662 2.53629994392395,5.855760097503662 C1.5780099630355835,5.716700077056885 1.5710400342941284,5.4717302322387695 1.0781099796295166,3.5 C0.6781110167503357,1.899999976158142 1.9114400148391724,1.1666699647903442 2.5781099796295166,1 C2.5781099796295166,1 11.578100204467773,1 11.578100204467773,1 C11.578100204467773,1 48.07809829711914,1 48.07809829711914,1 C48.07809829711914,1 57.57809829711914,1 57.57809829711914,1 C59.07809829711914,1.5 59.2489013671875,2.658360004425049 58.57809829711914,4 C57.57809829711914,6 49.86009979248047,5.333330154418945 47.75120162963867,5 C47.68410110473633,5.79748010635376 47.61249923706055,6.63539981842041 47.53739929199219,7.5 C46.95539855957031,14.20110034942627 46.160701751708984,22.504600524902344 45.57809829711914,26 C45.45280075073242,26.75189971923828 45.301300048828125,27.41550064086914 45.13169860839844,28 C44.21860122680664,31.146499633789062 42.78089904785156,32 42.07809829711914,32z"></path><path stroke-linecap="square" stroke-linejoin="miter" fill-opacity="0" stroke-miterlimit="1" stroke="rgb(0,0,0)" stroke-opacity="0" stroke-width="0" d=" M42.07809829711914,32 C35.911399841308594,32.16669845581055 22.578100204467773,32.400001525878906 18.578100204467773,32 C15.762800216674805,31.7185001373291 14.433600425720215,29.76919937133789 13.893199920654297,28 C13.665800094604492,27.25550079345703 13.578100204467773,26.542999267578125 13.578100204467773,26 C13.578100204467773,26 11.967000007629395,5.861680030822754 11.967000007629395,5.861680030822754 C9.170729637145996,5.907790184020996 3.378109931945801,5.972340106964111 2.5781099796295166,5.861680030822754 C2.5781099796295166,5.861680030822754 2.53629994392395,5.855760097503662 2.53629994392395,5.855760097503662 C1.5780099630355835,5.716700077056885 1.5710400342941284,5.4717302322387695 1.0781099796295166,3.5 C0.6781110167503357,1.899999976158142 1.9114400148391724,1.1666699647903442 2.5781099796295166,1 C2.5781099796295166,1 11.578100204467773,1 11.578100204467773,1 C11.578100204467773,1 48.07809829711914,1 48.07809829711914,1 C48.07809829711914,1 57.57809829711914,1 57.57809829711914,1 C59.07809829711914,1.5 59.2489013671875,2.658360004425049 58.57809829711914,4 C57.57809829711914,6 49.86009979248047,5.333330154418945 47.75120162963867,5 C47.68410110473633,5.79748010635376 47.61249923706055,6.63539981842041 47.53739929199219,7.5 C46.95539855957031,14.20110034942627 46.160701751708984,22.504600524902344 45.57809829711914,26 C45.45280075073242,26.75189971923828 45.301300048828125,27.41550064086914 45.13169860839844,28 C44.21860122680664,31.146499633789062 42.78089904785156,32 42.07809829711914,32z"></path></g><g opacity="1" transform="matrix(1,0,0,1,0,0)"><path fill="rgb(0,0,0)" fill-opacity="0" d=" M47.75120162963867,5 C47.244598388671875,10.33329963684082 46.49259948730469,18.299999237060547 47.53739929199219,7.5 M47.75120162963867,5 C47.68410110473633,5.79748010635376 47.61249923706055,6.63539981842041 47.53739929199219,7.5 C47.53739929199219,7.5 47.75120162963867,5 47.75120162963867,5z M45.13169860839844,28 C45.301300048828125,27.41550064086914 45.45280075073242,26.75189971923828 45.57809829711914,26 C46.160701751708984,22.504600524902344 46.95539855957031,14.20110034942627 47.53739929199219,7.5 M13.893199920654297,28 C13.893199920654297,28 45.13169860839844,28 45.13169860839844,28 M13.893199920654297,28 C14.433600425720215,29.76919937133789 15.762800216674805,31.7185001373291 18.578100204467773,32 C22.578100204467773,32.400001525878906 35.911399841308594,32.16669845581055 42.07809829711914,32 C42.78089904785156,32 44.21860122680664,31.146499633789062 45.13169860839844,28 C45.13169860839844,28 13.893199920654297,28 13.893199920654297,28z M13.893199920654297,28 C13.665800094604492,27.25550079345703 13.578100204467773,26.542999267578125 13.578100204467773,26 C13.578100204467773,26 11.967000007629395,5.861680030822754 11.967000007629395,5.861680030822754 C11.967000007629395,5.861680030822754 13.893199920654297,28 13.893199920654297,28z M48.07809829711914,1 C47.989200592041016,2.126230001449585 47.87820053100586,3.490679979324341 47.75120162963867,5 M48.07809829711914,1 C48.07809829711914,1 57.57809829711914,1 57.57809829711914,1 C59.07809829711914,1.5 59.2489013671875,2.658360004425049 58.57809829711914,4 C57.57809829711914,6 49.86009979248047,5.333330154418945 47.75120162963867,5 C47.75120162963867,5 48.07809829711914,1 48.07809829711914,1z M11.578100204467773,1 C11.578100204467773,1 11.967000007629395,5.861680030822754 11.967000007629395,5.861680030822754 M11.578100204467773,1 C11.578100204467773,1 2.5781099796295166,1 2.5781099796295166,1 C1.9114400148391724,1.1666699647903442 0.6781110167503357,1.899999976158142 1.0781099796295166,3.5 C1.5710400342941284,5.4717302322387695 1.5780099630355835,5.716700077056885 2.53629994392395,5.855760097503662 C2.5500400066375732,5.857759952545166 2.5639700889587402,5.859729766845703 2.5781099796295166,5.861680030822754 C3.378109931945801,5.972340106964111 9.170729637145996,5.907790184020996 11.967000007629395,5.861680030822754 C11.967000007629395,5.861680030822754 11.578100204467773,1 11.578100204467773,1z M11.578100204467773,1 C11.578100204467773,1 48.07809829711914,1 48.07809829711914,1 C48.07809829711914,1 11.578100204467773,1 11.578100204467773,1z"></path><path stroke-linecap="square" stroke-linejoin="miter" fill-opacity="0" stroke-miterlimit="1" stroke="rgb(0,0,0)" stroke-opacity="1" stroke-width="1" d=" M47.75120162963867,5 C47.244598388671875,10.33329963684082 46.49259948730469,18.299999237060547 47.53739929199219,7.5 M47.75120162963867,5 C47.68410110473633,5.79748010635376 47.61249923706055,6.63539981842041 47.53739929199219,7.5 C47.53739929199219,7.5 47.75120162963867,5 47.75120162963867,5z M45.13169860839844,28 C45.301300048828125,27.41550064086914 45.45280075073242,26.75189971923828 45.57809829711914,26 C46.160701751708984,22.504600524902344 46.95539855957031,14.20110034942627 47.53739929199219,7.5 M13.893199920654297,28 C13.893199920654297,28 45.13169860839844,28 45.13169860839844,28 M13.893199920654297,28 C14.433600425720215,29.76919937133789 15.762800216674805,31.7185001373291 18.578100204467773,32 C22.578100204467773,32.400001525878906 35.911399841308594,32.16669845581055 42.07809829711914,32 C42.78089904785156,32 44.21860122680664,31.146499633789062 45.13169860839844,28 C45.13169860839844,28 13.893199920654297,28 13.893199920654297,28z M13.893199920654297,28 C13.665800094604492,27.25550079345703 13.578100204467773,26.542999267578125 13.578100204467773,26 C13.578100204467773,26 11.967000007629395,5.861680030822754 11.967000007629395,5.861680030822754 C11.967000007629395,5.861680030822754 13.893199920654297,28 13.893199920654297,28z M48.07809829711914,1 C47.989200592041016,2.126230001449585 47.87820053100586,3.490679979324341 47.75120162963867,5 M48.07809829711914,1 C48.07809829711914,1 57.57809829711914,1 57.57809829711914,1 C59.07809829711914,1.5 59.2489013671875,2.658360004425049 58.57809829711914,4 C57.57809829711914,6 49.86009979248047,5.333330154418945 47.75120162963867,5 C47.75120162963867,5 48.07809829711914,1 48.07809829711914,1z M11.578100204467773,1 C11.578100204467773,1 11.967000007629395,5.861680030822754 11.967000007629395,5.861680030822754 M11.578100204467773,1 C11.578100204467773,1 2.5781099796295166,1 2.5781099796295166,1 C1.9114400148391724,1.1666699647903442 0.6781110167503357,1.899999976158142 1.0781099796295166,3.5 C1.5710400342941284,5.4717302322387695 1.5780099630355835,5.716700077056885 2.53629994392395,5.855760097503662 C2.5500400066375732,5.857759952545166 2.5639700889587402,5.859729766845703 2.5781099796295166,5.861680030822754 C3.378109931945801,5.972340106964111 9.170729637145996,5.907790184020996 11.967000007629395,5.861680030822754 C11.967000007629395,5.861680030822754 11.578100204467773,1 11.578100204467773,1z M11.578100204467773,1 C11.578100204467773,1 48.07809829711914,1 48.07809829711914,1 C48.07809829711914,1 11.578100204467773,1 11.578100204467773,1z"></path></g><g opacity="1" transform="matrix(1,0,0,1,0,0)"><path fill="rgb(0,0,0)" fill-opacity="0" d=" M42.07809829711914,14 C42.07809829711914,14 42.07809829711914,26 42.07809829711914,26"></path><path stroke-linecap="square" stroke-linejoin="miter" fill-opacity="0" stroke-miterlimit="1" stroke="rgb(0,0,0)" stroke-opacity="1" stroke-width="1" d=" M42.07809829711914,14 C42.07809829711914,14 42.07809829711914,26 42.07809829711914,26"></path></g><g opacity="1" transform="matrix(1,0,0,1,0,0)"><path fill="rgb(0,0,0)" fill-opacity="0" d=" M40.07809829711914,20 C40.07809829711914,20 40.07809829711914,26 40.07809829711914,26"></path><path stroke-linecap="square" stroke-linejoin="miter" fill-opacity="0" stroke-miterlimit="1" stroke="rgb(0,0,0)" stroke-opacity="1" stroke-width="1" d=" M40.07809829711914,20 C40.07809829711914,20 40.07809829711914,26 40.07809829711914,26"></path></g><g opacity="1" transform="matrix(1,0,0,1,0,0)"><path fill="rgb(0,0,0)" fill-opacity="0" d=" M38.07809829711914,22 C38.07809829711914,22 38.07809829711914,26 38.07809829711914,26"></path><path stroke-linecap="square" stroke-linejoin="miter" fill-opacity="0" stroke-miterlimit="1" stroke="rgb(0,0,0)" stroke-opacity="1" stroke-width="1" d=" M38.07809829711914,22 C38.07809829711914,22 38.07809829711914,26 38.07809829711914,26"></path></g></g><g style="display: block;" transform="matrix(1,0,0,1,34.5,27.991973876953125)" opacity="1"><g opacity="1" transform="matrix(1,0,0,1,0,0)"><path fill="rgb(255,229,229)" fill-opacity="1" d=" M17.77050018310547,6.224999904632568 C19.803300857543945,6.224999904632568 20.34429931640625,7.393700122833252 20.61479949951172,7.978050231933594 C20.61479949951172,7.978050231933594 11.044099807739258,13.843999862670898 11.044099807739258,13.843999862670898 C10.416000366210938,13.387900352478027 10.147500038146973,11.925000190734863 10.655699729919434,10.5 C11.137900352478027,9.148130416870117 12.837499618530273,7.873809814453125 13.196700096130371,7.650000095367432 C14.72130012512207,6.699999809265137 15.737700462341309,6.224999904632568 17.77050018310547,6.224999904632568z"></path><path stroke-linecap="square" stroke-linejoin="miter" fill-opacity="0" stroke-miterlimit="1" stroke="rgb(0,0,0)" stroke-opacity="0" stroke-width="0" d=" M17.77050018310547,6.224999904632568 C19.803300857543945,6.224999904632568 20.34429931640625,7.393700122833252 20.61479949951172,7.978050231933594 C20.61479949951172,7.978050231933594 11.044099807739258,13.843999862670898 11.044099807739258,13.843999862670898 C10.416000366210938,13.387900352478027 10.147500038146973,11.925000190734863 10.655699729919434,10.5 C11.137900352478027,9.148130416870117 12.837499618530273,7.873809814453125 13.196700096130371,7.650000095367432 C14.72130012512207,6.699999809265137 15.737700462341309,6.224999904632568 17.77050018310547,6.224999904632568z"></path></g><g opacity="1" transform="matrix(1,0,0,1,0,0)"><path fill="rgb(0,0,0)" fill-opacity="0" d=" M20.61479949951172,7.978050231933594 C20.61479949951172,7.978050231933594 11.044099807739258,13.843999862670898 11.044099807739258,13.843999862670898 M20.61479949951172,7.978050231933594 C20.34429931640625,7.393700122833252 19.803300857543945,6.224999904632568 17.77050018310547,6.224999904632568 C15.737700462341309,6.224999904632568 14.72130012512207,6.699999809265137 13.196700096130371,7.650000095367432 C12.837499618530273,7.873809814453125 11.137900352478027,9.148130416870117 10.655699729919434,10.5 C10.147500038146973,11.925000190734863 10.416000366210938,13.387900352478027 11.044099807739258,13.843999862670898 C11.044099807739258,13.843999862670898 20.61479949951172,7.978050231933594 20.61479949951172,7.978050231933594z M32,1 C32,1 20.61479949951172,7.978050231933594 20.61479949951172,7.978050231933594 M1,20 C1,20 11.044099807739258,13.843999862670898 11.044099807739258,13.843999862670898"></path><path stroke-linecap="square" stroke-linejoin="miter" fill-opacity="0" stroke-miterlimit="1" stroke="rgb(0,0,0)" stroke-opacity="1" stroke-width="1" d=" M20.61479949951172,7.978050231933594 C20.61479949951172,7.978050231933594 11.044099807739258,13.843999862670898 11.044099807739258,13.843999862670898 M20.61479949951172,7.978050231933594 C20.34429931640625,7.393700122833252 19.803300857543945,6.224999904632568 17.77050018310547,6.224999904632568 C15.737700462341309,6.224999904632568 14.72130012512207,6.699999809265137 13.196700096130371,7.650000095367432 C12.837499618530273,7.873809814453125 11.137900352478027,9.148130416870117 10.655699729919434,10.5 C10.147500038146973,11.925000190734863 10.416000366210938,13.387900352478027 11.044099807739258,13.843999862670898 C11.044099807739258,13.843999862670898 20.61479949951172,7.978050231933594 20.61479949951172,7.978050231933594z M32,1 C32,1 20.61479949951172,7.978050231933594 20.61479949951172,7.978050231933594 M1,20 C1,20 11.044099807739258,13.843999862670898 11.044099807739258,13.843999862670898"></path></g></g></g></svg>