<svg xmlns="http://www.w3.org/2000/svg" viewBox="0 0 512 512" width="512" height="512"
    style="width: 100%; height: 100%; transform: translate3d(0,0,0);" preserveAspectRatio="xMidYMid meet">
    <defs>
        <clipPath id="__lottie_element_2">
            <rect width="512" height="512" x="0" y="0"></rect>
        </clipPath>
    </defs>
    <g clip-path="url(#__lottie_element_2)">
        <g style="display: block;" transform="matrix(1,0,0,1,0,13)" opacity="1">
            <g opacity="1" transform="matrix(0,0,0,0,343.375,74.28500366210938)">
                <path fill="rgb(44,52,71)" fill-opacity="1"
                    d=" M3.7160000801086426,-2.5329999923706055 C3.7160000801086426,-2.5329999923706055 7.111999988555908,-1.6180000305175781 7.111999988555908,-1.6180000305175781 C8.765999794006348,-1.1729999780654907 8.765999794006348,1.1740000247955322 7.111999988555908,1.61899995803833 C7.111999988555908,1.61899995803833 3.7160000801086426,2.5339999198913574 3.7160000801086426,2.5339999198913574 C3.1389999389648438,2.688999891281128 2.687999963760376,3.140000104904175 2.5320000648498535,3.7170000076293945 C2.5320000648498535,3.7170000076293945 1.6180000305175781,7.11299991607666 1.6180000305175781,7.11299991607666 C1.1729999780654907,8.767000198364258 -1.1749999523162842,8.767000198364258 -1.6200000047683716,7.11299991607666 C-1.6200000047683716,7.11299991607666 -2.5339999198913574,3.7170000076293945 -2.5339999198913574,3.7170000076293945 C-2.688999891281128,3.140000104904175 -3.140000104904175,2.688999891281128 -3.7179999351501465,2.5339999198913574 C-3.7179999351501465,2.5339999198913574 -7.11299991607666,1.61899995803833 -7.11299991607666,1.61899995803833 C-8.767000198364258,1.1740000247955322 -8.767000198364258,-1.1729999780654907 -7.11299991607666,-1.6180000305175781 C-7.11299991607666,-1.6180000305175781 -3.7179999351501465,-2.5329999923706055 -3.7179999351501465,-2.5329999923706055 C-3.140000104904175,-2.687999963760376 -2.688999891281128,-3.1389999389648438 -2.5339999198913574,-3.7160000801086426 C-2.5339999198913574,-3.7160000801086426 -1.6200000047683716,-7.11299991607666 -1.6200000047683716,-7.11299991607666 C-1.1749999523162842,-8.767000198364258 1.1729999780654907,-8.767000198364258 1.6180000305175781,-7.11299991607666 C1.6180000305175781,-7.11299991607666 2.5320000648498535,-3.7160000801086426 2.5320000648498535,-3.7160000801086426 C2.687999963760376,-3.1389999389648438 3.1389999389648438,-2.687999963760376 3.7160000801086426,-2.5329999923706055z">
                </path>
            </g>
            <g opacity="1" transform="matrix(0,0,0,0,160.70799255371094,27.17099952697754)">
                <path fill="rgb(44,52,71)" fill-opacity="1"
                    d=" M5.388999938964844,-3.6740000247955322 C5.388999938964844,-3.6740000247955322 10.312999725341797,-2.3469998836517334 10.312999725341797,-2.3469998836517334 C12.711000442504883,-1.7009999752044678 12.711000442504883,1.7020000219345093 10.312999725341797,2.3480000495910645 C10.312999725341797,2.3480000495910645 5.388999938964844,3.6740000247955322 5.388999938964844,3.6740000247955322 C4.552000045776367,3.8989999294281006 3.8989999294281006,4.552000045776367 3.6730000972747803,5.388999938964844 C3.6730000972747803,5.388999938964844 2.3480000495910645,10.312999725341797 2.3480000495910645,10.312999725341797 C1.7009999752044678,12.711999893188477 -1.7009999752044678,12.711999893188477 -2.3469998836517334,10.312999725341797 C-2.3469998836517334,10.312999725341797 -3.6730000972747803,5.388999938964844 -3.6730000972747803,5.388999938964844 C-3.8980000019073486,4.552000045776367 -4.551000118255615,3.8989999294281006 -5.388000011444092,3.6740000247955322 C-5.388000011444092,3.6740000247955322 -10.312000274658203,2.3480000495910645 -10.312000274658203,2.3480000495910645 C-12.711000442504883,1.7020000219345093 -12.711000442504883,-1.7009999752044678 -10.312000274658203,-2.3469998836517334 C-10.312000274658203,-2.3469998836517334 -5.388000011444092,-3.6740000247955322 -5.388000011444092,-3.6740000247955322 C-4.551000118255615,-3.8989999294281006 -3.8980000019073486,-4.552000045776367 -3.6730000972747803,-5.388999938964844 C-3.6730000972747803,-5.388999938964844 -2.3469998836517334,-10.312000274658203 -2.3469998836517334,-10.312000274658203 C-1.7009999752044678,-12.711000442504883 1.7009999752044678,-12.711000442504883 2.3480000495910645,-10.312000274658203 C2.3480000495910645,-10.312000274658203 3.6730000972747803,-5.388999938964844 3.6730000972747803,-5.388999938964844 C3.8989999294281006,-4.552000045776367 4.552000045776367,-3.8989999294281006 5.388999938964844,-3.6740000247955322z">
                </path>
            </g>
            <g opacity="1" transform="matrix(0,0,0,0,413.8059997558594,212.6510009765625)">
                <path fill="rgb(44,52,71)" fill-opacity="1"
                    d=" M3.7160000801086426,-2.5329999923706055 C3.7160000801086426,-2.5329999923706055 7.111999988555908,-1.61899995803833 7.111999988555908,-1.61899995803833 C8.767000198364258,-1.1740000247955322 8.767000198364258,1.1740000247955322 7.111999988555908,1.61899995803833 C7.111999988555908,1.61899995803833 3.7160000801086426,2.5329999923706055 3.7160000801086426,2.5329999923706055 C3.1389999389648438,2.688999891281128 2.688999891281128,3.140000104904175 2.5329999923706055,3.7170000076293945 C2.5329999923706055,3.7170000076293945 1.61899995803833,7.11299991607666 1.61899995803833,7.11299991607666 C1.1729999780654907,8.767000198364258 -1.1740000247955322,8.767000198364258 -1.61899995803833,7.11299991607666 C-1.61899995803833,7.11299991607666 -2.5339999198913574,3.7170000076293945 -2.5339999198913574,3.7170000076293945 C-2.688999891281128,3.140000104904175 -3.1389999389648438,2.688999891281128 -3.7170000076293945,2.5329999923706055 C-3.7170000076293945,2.5329999923706055 -7.11299991607666,1.61899995803833 -7.11299991607666,1.61899995803833 C-8.767000198364258,1.1740000247955322 -8.767000198364258,-1.1740000247955322 -7.11299991607666,-1.61899995803833 C-7.11299991607666,-1.61899995803833 -3.7170000076293945,-2.5329999923706055 -3.7170000076293945,-2.5329999923706055 C-3.1389999389648438,-2.688999891281128 -2.688999891281128,-3.1389999389648438 -2.5339999198913574,-3.7160000801086426 C-2.5339999198913574,-3.7160000801086426 -1.61899995803833,-7.11299991607666 -1.61899995803833,-7.11299991607666 C-1.1740000247955322,-8.767000198364258 1.1729999780654907,-8.767000198364258 1.61899995803833,-7.11299991607666 C1.61899995803833,-7.11299991607666 2.5329999923706055,-3.7160000801086426 2.5329999923706055,-3.7160000801086426 C2.688999891281128,-3.1389999389648438 3.1389999389648438,-2.688999891281128 3.7160000801086426,-2.5329999923706055z">
                </path>
            </g>
        </g>
        <g style="display: block;"
            transform="matrix(-0.9980442523956299,0.06251181662082672,-0.06251181662082672,-0.9980442523956299,547.5023193359375,466.49627685546875)"
            opacity="1">
            <g opacity="1" transform="matrix(0,0,0,0,343.375,74.28500366210938)">
                <path fill="rgb(44,52,71)" fill-opacity="1"
                    d=" M3.7160000801086426,-2.5329999923706055 C3.7160000801086426,-2.5329999923706055 7.111999988555908,-1.6180000305175781 7.111999988555908,-1.6180000305175781 C8.765999794006348,-1.1729999780654907 8.765999794006348,1.1740000247955322 7.111999988555908,1.61899995803833 C7.111999988555908,1.61899995803833 3.7160000801086426,2.5339999198913574 3.7160000801086426,2.5339999198913574 C3.1389999389648438,2.688999891281128 2.687999963760376,3.140000104904175 2.5320000648498535,3.7170000076293945 C2.5320000648498535,3.7170000076293945 1.6180000305175781,7.11299991607666 1.6180000305175781,7.11299991607666 C1.1729999780654907,8.767000198364258 -1.1749999523162842,8.767000198364258 -1.6200000047683716,7.11299991607666 C-1.6200000047683716,7.11299991607666 -2.5339999198913574,3.7170000076293945 -2.5339999198913574,3.7170000076293945 C-2.688999891281128,3.140000104904175 -3.140000104904175,2.688999891281128 -3.7179999351501465,2.5339999198913574 C-3.7179999351501465,2.5339999198913574 -7.11299991607666,1.61899995803833 -7.11299991607666,1.61899995803833 C-8.767000198364258,1.1740000247955322 -8.767000198364258,-1.1729999780654907 -7.11299991607666,-1.6180000305175781 C-7.11299991607666,-1.6180000305175781 -3.7179999351501465,-2.5329999923706055 -3.7179999351501465,-2.5329999923706055 C-3.140000104904175,-2.687999963760376 -2.688999891281128,-3.1389999389648438 -2.5339999198913574,-3.7160000801086426 C-2.5339999198913574,-3.7160000801086426 -1.6200000047683716,-7.11299991607666 -1.6200000047683716,-7.11299991607666 C-1.1749999523162842,-8.767000198364258 1.1729999780654907,-8.767000198364258 1.6180000305175781,-7.11299991607666 C1.6180000305175781,-7.11299991607666 2.5320000648498535,-3.7160000801086426 2.5320000648498535,-3.7160000801086426 C2.687999963760376,-3.1389999389648438 3.1389999389648438,-2.687999963760376 3.7160000801086426,-2.5329999923706055z">
                </path>
            </g>
            <g opacity="1" transform="matrix(0,0,0,0,160.70799255371094,27.17099952697754)">
                <path fill="rgb(44,52,71)" fill-opacity="1"
                    d=" M5.388999938964844,-3.6740000247955322 C5.388999938964844,-3.6740000247955322 10.312999725341797,-2.3469998836517334 10.312999725341797,-2.3469998836517334 C12.711000442504883,-1.7009999752044678 12.711000442504883,1.7020000219345093 10.312999725341797,2.3480000495910645 C10.312999725341797,2.3480000495910645 5.388999938964844,3.6740000247955322 5.388999938964844,3.6740000247955322 C4.552000045776367,3.8989999294281006 3.8989999294281006,4.552000045776367 3.6730000972747803,5.388999938964844 C3.6730000972747803,5.388999938964844 2.3480000495910645,10.312999725341797 2.3480000495910645,10.312999725341797 C1.7009999752044678,12.711999893188477 -1.7009999752044678,12.711999893188477 -2.3469998836517334,10.312999725341797 C-2.3469998836517334,10.312999725341797 -3.6730000972747803,5.388999938964844 -3.6730000972747803,5.388999938964844 C-3.8980000019073486,4.552000045776367 -4.551000118255615,3.8989999294281006 -5.388000011444092,3.6740000247955322 C-5.388000011444092,3.6740000247955322 -10.312000274658203,2.3480000495910645 -10.312000274658203,2.3480000495910645 C-12.711000442504883,1.7020000219345093 -12.711000442504883,-1.7009999752044678 -10.312000274658203,-2.3469998836517334 C-10.312000274658203,-2.3469998836517334 -5.388000011444092,-3.6740000247955322 -5.388000011444092,-3.6740000247955322 C-4.551000118255615,-3.8989999294281006 -3.8980000019073486,-4.552000045776367 -3.6730000972747803,-5.388999938964844 C-3.6730000972747803,-5.388999938964844 -2.3469998836517334,-10.312000274658203 -2.3469998836517334,-10.312000274658203 C-1.7009999752044678,-12.711000442504883 1.7009999752044678,-12.711000442504883 2.3480000495910645,-10.312000274658203 C2.3480000495910645,-10.312000274658203 3.6730000972747803,-5.388999938964844 3.6730000972747803,-5.388999938964844 C3.8989999294281006,-4.552000045776367 4.552000045776367,-3.8989999294281006 5.388999938964844,-3.6740000247955322z">
                </path>
            </g>
            <g opacity="1" transform="matrix(0,0,0,0,413.8059997558594,212.6510009765625)">
                <path fill="rgb(44,52,71)" fill-opacity="1"
                    d=" M3.7160000801086426,-2.5329999923706055 C3.7160000801086426,-2.5329999923706055 7.111999988555908,-1.61899995803833 7.111999988555908,-1.61899995803833 C8.767000198364258,-1.1740000247955322 8.767000198364258,1.1740000247955322 7.111999988555908,1.61899995803833 C7.111999988555908,1.61899995803833 3.7160000801086426,2.5329999923706055 3.7160000801086426,2.5329999923706055 C3.1389999389648438,2.688999891281128 2.688999891281128,3.140000104904175 2.5329999923706055,3.7170000076293945 C2.5329999923706055,3.7170000076293945 1.61899995803833,7.11299991607666 1.61899995803833,7.11299991607666 C1.1729999780654907,8.767000198364258 -1.1740000247955322,8.767000198364258 -1.61899995803833,7.11299991607666 C-1.61899995803833,7.11299991607666 -2.5339999198913574,3.7170000076293945 -2.5339999198913574,3.7170000076293945 C-2.688999891281128,3.140000104904175 -3.1389999389648438,2.688999891281128 -3.7170000076293945,2.5329999923706055 C-3.7170000076293945,2.5329999923706055 -7.11299991607666,1.61899995803833 -7.11299991607666,1.61899995803833 C-8.767000198364258,1.1740000247955322 -8.767000198364258,-1.1740000247955322 -7.11299991607666,-1.61899995803833 C-7.11299991607666,-1.61899995803833 -3.7170000076293945,-2.5329999923706055 -3.7170000076293945,-2.5329999923706055 C-3.1389999389648438,-2.688999891281128 -2.688999891281128,-3.1389999389648438 -2.5339999198913574,-3.7160000801086426 C-2.5339999198913574,-3.7160000801086426 -1.61899995803833,-7.11299991607666 -1.61899995803833,-7.11299991607666 C-1.1740000247955322,-8.767000198364258 1.1729999780654907,-8.767000198364258 1.61899995803833,-7.11299991607666 C1.61899995803833,-7.11299991607666 2.5329999923706055,-3.7160000801086426 2.5329999923706055,-3.7160000801086426 C2.688999891281128,-3.1389999389648438 3.1389999389648438,-2.688999891281128 3.7160000801086426,-2.5329999923706055z">
                </path>
            </g>
        </g>
        <g style="display: block;" transform="matrix(1,0,0,1,0,0)" opacity="1">
            <g opacity="1" transform="matrix(1,0,0,1,358.0790100097656,96.13600158691406)">
                <path fill="rgb(44,52,71)" fill-opacity="1"
                    d=" M7.320000171661377,0 C7.320000171661377,-4.041999816894531 4.043000221252441,-7.320000171661377 0,-7.320000171661377 C-4.041999816894531,-7.320000171661377 -7.320000171661377,-4.041999816894531 -7.320000171661377,0 C-7.320000171661377,4.041999816894531 -4.041999816894531,7.320000171661377 0,7.320000171661377 C4.043000221252441,7.320000171661377 7.320000171661377,4.041999816894531 7.320000171661377,0z">
                </path>
            </g>
            <g opacity="1" transform="matrix(1,0,0,1,426.1839904785156,229.2519989013672)">
                <path fill="rgb(44,52,71)" fill-opacity="1"
                    d=" M2.9719998836517334,0 C2.9719998836517334,-1.6419999599456787 1.6410000324249268,-2.9719998836517334 0,-2.9719998836517334 C-1.6410000324249268,-2.9719998836517334 -2.9719998836517334,-1.6419999599456787 -2.9719998836517334,0 C-2.9719998836517334,1.6419999599456787 -1.6410000324249268,2.9719998836517334 0,2.9719998836517334 C1.6410000324249268,2.9719998836517334 2.9719998836517334,1.6419999599456787 2.9719998836517334,0z">
                </path>
            </g>
            <g opacity="1" transform="matrix(1,0,0,1,219.02499389648438,459.08099365234375)">
                <path fill="rgb(44,52,71)" fill-opacity="1"
                    d=" M11.479999542236328,0 C11.479999542236328,-6.340000152587891 6.340000152587891,-11.479000091552734 0.0010000000474974513,-11.479000091552734 C-6.339000225067139,-11.479000091552734 -11.479000091552734,-6.340000152587891 -11.479000091552734,0 C-11.479000091552734,6.340000152587891 -6.339000225067139,11.479000091552734 0.0010000000474974513,11.479000091552734 C6.340000152587891,11.479000091552734 11.479999542236328,6.340000152587891 11.479999542236328,0z">
                </path>
            </g>
            <g opacity="1" transform="matrix(1,0,0,1,254.6959991455078,451.23199462890625)">
                <path fill="rgb(44,52,71)" fill-opacity="1"
                    d=" M4.488999843597412,0 C4.488999843597412,-2.4790000915527344 2.4790000915527344,-4.48799991607666 0,-4.48799991607666 C-2.4790000915527344,-4.48799991607666 -4.488999843597412,-2.4790000915527344 -4.488999843597412,0 C-4.488999843597412,2.4790000915527344 -2.4790000915527344,4.48799991607666 0,4.48799991607666 C2.4790000915527344,4.48799991607666 4.488999843597412,2.4790000915527344 4.488999843597412,0z">
                </path>
            </g>
            <g opacity="1" transform="matrix(1,0,0,1,271.052001953125,58.176998138427734)">
                <path fill="rgb(44,52,71)" fill-opacity="1"
                    d=" M-5.693999767303467,-5.739999771118164 C-8.86400032043457,-2.5950000286102295 -8.883999824523926,2.5250000953674316 -5.738999843597412,5.695000171661377 C-2.5940001010894775,8.864999771118164 2.5250000953674316,8.883999824523926 5.695000171661377,5.738999843597412 C8.864999771118164,2.5940001010894775 8.883999824523926,-2.5250000953674316 5.739999771118164,-5.695000171661377 C2.5950000286102295,-8.864999771118164 -2.5239999294281006,-8.885000228881836 -5.693999767303467,-5.739999771118164z">
                </path>
            </g>
            <g opacity="1" transform="matrix(1,0,0,1,446.1239929199219,294.79400634765625)">
                <path fill="rgb(44,52,71)" fill-opacity="1"
                    d=" M-3.7809998989105225,-3.811000108718872 C-5.885000228881836,-1.722000002861023 -5.900000095367432,1.6759999990463257 -3.812000036239624,3.7809998989105225 C-1.7239999771118164,5.885000228881836 1.6749999523162842,5.89900016784668 3.7799999713897705,3.811000108718872 C5.885000228881836,1.722000002861023 5.89900016784668,-1.6749999523162842 3.809999942779541,-3.7809998989105225 C1.722000002861023,-5.885000228881836 -1.6770000457763672,-5.89900016784668 -3.7809998989105225,-3.811000108718872z">
                </path>
            </g>
            <g opacity="1" transform="matrix(1,0,0,1,237.88800048828125,27.17099952697754)">
                <path fill="rgb(44,52,71)" fill-opacity="1"
                    d=" M-3.1619999408721924,-3.187000036239624 C-4.921999931335449,-1.440999984741211 -4.933000087738037,1.4010000228881836 -3.186000108718872,3.1610000133514404 C-1.440000057220459,4.921000003814697 1.4010000228881836,4.932000160217285 3.1610000133514404,3.186000108718872 C4.921000003814697,1.440000057220459 4.933000087738037,-1.4010000228881836 3.187000036239624,-3.1610000133514404 C1.440999984741211,-4.921000003814697 -1.4010000228881836,-4.933000087738037 -3.1619999408721924,-3.187000036239624z">
                </path>
            </g>
            <g opacity="1" transform="matrix(1,0,0,1,84.61299896240234,284.0570068359375)">
                <path fill="rgb(44,52,71)" fill-opacity="1"
                    d=" M-0.7670000195503235,-11.45300006866455 C-7.0929999351501465,-11.029999732971191 -11.876999855041504,-5.559000015258789 -11.454999923706055,0.765999972820282 C-11.031000137329102,7.0920000076293945 -5.559000015258789,11.876999855041504 0.765999972820282,11.45300006866455 C7.0920000076293945,11.029000282287598 11.876999855041504,5.559999942779541 11.454000473022461,-0.765999972820282 C11.029999732971191,-7.0929999351501465 5.558000087738037,-11.876999855041504 -0.7670000195503235,-11.45300006866455z">
                </path>
            </g>
            <g opacity="1" transform="matrix(1,0,0,1,48.380001068115234,196.75999450683594)">
                <path fill="rgb(44,52,71)" fill-opacity="1"
                    d=" M-0.29899999499320984,-4.479000091552734 C-2.7730000019073486,-4.313000202178955 -4.644000053405762,-2.1740000247955322 -4.478000164031982,0.29899999499320984 C-4.313000202178955,2.7730000019073486 -2.1730000972747803,4.644000053405762 0.3009999990463257,4.478000164031982 C2.7739999294281006,4.313000202178955 4.644000053405762,2.1740000247955322 4.479000091552734,-0.29899999499320984 C4.313000202178955,-2.7720000743865967 2.174999952316284,-4.644999980926514 -0.29899999499320984,-4.479000091552734z">
                </path>
            </g>
        </g>
        <g style="display: block;"
            transform="matrix(0.7501898407936096,0.23387357592582703,-0.23387357592582703,0.7501898407936096,82.33148193359375,-154.8037109375)"
            opacity="1">
            <g opacity="1" transform="matrix(1,0,0,1,105.60199737548828,292.1080017089844)">
                <path fill="rgb(230,230,230)" fill-opacity="1"
                    d=" M41.91899871826172,14.305999755859375 C41.91899871826172,14.305999755859375 -41.91899871826172,14.305999755859375 -41.91899871826172,14.305999755859375 C-45.73699951171875,14.305999755859375 -48.83300018310547,11.211999893188477 -48.83300018310547,7.39300012588501 C-48.83300018310547,7.39300012588501 -48.83300018310547,-7.392000198364258 -48.83300018310547,-7.392000198364258 C-48.83300018310547,-11.211000442504883 -45.73699951171875,-14.305999755859375 -41.91899871826172,-14.305999755859375 C-41.91899871826172,-14.305999755859375 41.91899871826172,-14.305999755859375 41.91899871826172,-14.305999755859375 C45.73699951171875,-14.305999755859375 48.83300018310547,-11.211000442504883 48.83300018310547,-7.392000198364258 C48.83300018310547,-7.392000198364258 48.83300018310547,7.39300012588501 48.83300018310547,7.39300012588501 C48.83300018310547,11.211999893188477 45.73699951171875,14.305999755859375 41.91899871826172,14.305999755859375z">
                </path>
            </g>
            <g opacity="1" transform="matrix(1,0,0,1,121.30400085449219,292.1080017089844)">
                <path fill="rgb(216,216,216)" fill-opacity="1"
                    d=" M-33.13199996948242,14.305999755859375 C-33.13199996948242,14.305999755859375 26.216999053955078,14.305999755859375 26.216999053955078,14.305999755859375 C30.03499984741211,14.305999755859375 33.13199996948242,11.211999893188477 33.13199996948242,7.39300012588501 C33.13199996948242,7.39300012588501 33.13199996948242,-7.392000198364258 33.13199996948242,-7.392000198364258 C33.13199996948242,-11.211000442504883 30.03499984741211,-14.305999755859375 26.216999053955078,-14.305999755859375 C26.216999053955078,-14.305999755859375 14.928999900817871,-14.305999755859375 14.928999900817871,-14.305999755859375 C14.928999900817871,-14.305999755859375 -1.090999960899353,14.305999755859375 -33.13199996948242,14.305999755859375z">
                </path>
            </g>
            <g opacity="1" transform="matrix(1,0,0,1,105.60299682617188,343.3760070800781)">
                <path fill="rgb(48,124,255)" fill-opacity="1"
                    d=" M42.68000030517578,-36.96099853515625 C42.68000030517578,-36.96099853515625 -42.68000030517578,-36.96099853515625 -42.68000030517578,-36.96099853515625 C-42.68000030517578,-36.96099853515625 -42.68000030517578,23.280000686645508 -42.68000030517578,23.280000686645508 C-42.68000030517578,30.836000442504883 -36.55400085449219,36.96099853515625 -28.999000549316406,36.96099853515625 C-28.999000549316406,36.96099853515625 28.999000549316406,36.96099853515625 28.999000549316406,36.96099853515625 C36.55500030517578,36.96099853515625 42.68000030517578,30.836000442504883 42.68000030517578,23.280000686645508 C42.68000030517578,23.280000686645508 42.68000030517578,-36.96099853515625 42.68000030517578,-36.96099853515625z">
                </path>
            </g>
            <g opacity="1" transform="matrix(1,0,0,1,115.20500183105469,343.3760070800781)">
                <path fill="rgb(34,116,216)" fill-opacity="1"
                    d=" M33.07699966430664,-36.96099853515625 C33.07699966430664,-36.96099853515625 -11.98900032043457,-36.96099853515625 -11.98900032043457,-36.96099853515625 C2.187000036239624,-32.608001708984375 19.8799991607666,-21.347000122070312 19.8799991607666,-4.6020002365112305 C19.8799991607666,26.468000411987305 1.5230000019073486,32.270999908447266 -33.07699966430664,36.96099853515625 C-33.07699966430664,36.96099853515625 19.395999908447266,36.96099853515625 19.395999908447266,36.96099853515625 C26.95199966430664,36.96099853515625 33.07699966430664,30.836000442504883 33.07699966430664,23.280000686645508 C33.07699966430664,23.280000686645508 33.07699966430664,-36.96099853515625 33.07699966430664,-36.96099853515625z">
                </path>
            </g>
            <g opacity="1" transform="matrix(1,0,0,1,64.95999908447266,292.1090087890625)">
                <path fill="rgb(239,241,244)" fill-opacity="1"
                    d=" M1.2769999504089355,7.392000198364258 C1.2769999504089355,7.392000198364258 1.2769999504089355,-7.39300012588501 1.2769999504089355,-7.39300012588501 C1.2769999504089355,-11.211999893188477 4.373000144958496,-14.307000160217285 8.190999984741211,-14.307000160217285 C8.190999984741211,-14.307000160217285 -1.2769999504089355,-14.307000160217285 -1.2769999504089355,-14.307000160217285 C-5.09499979019165,-14.307000160217285 -8.190999984741211,-11.211999893188477 -8.190999984741211,-7.39300012588501 C-8.190999984741211,-7.39300012588501 -8.190999984741211,7.392000198364258 -8.190999984741211,7.392000198364258 C-8.190999984741211,11.211000442504883 -5.09499979019165,14.305999755859375 -1.2769999504089355,14.305999755859375 C-1.2769999504089355,14.305999755859375 8.190999984741211,14.305999755859375 8.190999984741211,14.305999755859375 C4.373000144958496,14.305999755859375 1.2769999504089355,11.211000442504883 1.2769999504089355,7.392000198364258z">
                </path>
            </g>
            <g opacity="1" transform="matrix(1,0,0,1,74.49700164794922,343.3760070800781)">
                <path fill="rgb(101,161,249)" fill-opacity="1"
                    d=" M-2.1070001125335693,23.280000686645508 C-2.1070001125335693,23.280000686645508 -2.1070001125335693,-36.96099853515625 -2.1070001125335693,-36.96099853515625 C-2.1070001125335693,-36.96099853515625 -11.574000358581543,-36.96099853515625 -11.574000358581543,-36.96099853515625 C-11.574000358581543,-36.96099853515625 -11.574000358581543,23.280000686645508 -11.574000358581543,23.280000686645508 C-11.574000358581543,30.836000442504883 -5.447999954223633,36.96099853515625 2.1070001125335693,36.96099853515625 C2.1070001125335693,36.96099853515625 11.574000358581543,36.96099853515625 11.574000358581543,36.96099853515625 C4.01800012588501,36.96099853515625 -2.1070001125335693,30.836000442504883 -2.1070001125335693,23.280000686645508z">
                </path>
            </g>
            <g opacity="1" transform="matrix(1,0,0,1,105.60299682617188,343.3760070800781)">
                <path fill="rgb(255,255,255)" fill-opacity="1"
                    d=" M22.158000946044922,-8.795999526977539 C22.158000946044922,-8.795999526977539 8.79699993133545,-8.795999526977539 8.79699993133545,-8.795999526977539 C8.79699993133545,-8.795999526977539 8.79699993133545,-22.156999588012695 8.79699993133545,-22.156999588012695 C8.79699993133545,-22.156999588012695 -8.795999526977539,-22.156999588012695 -8.795999526977539,-22.156999588012695 C-8.795999526977539,-22.156999588012695 -8.795999526977539,-8.795999526977539 -8.795999526977539,-8.795999526977539 C-8.795999526977539,-8.795999526977539 -22.158000946044922,-8.795999526977539 -22.158000946044922,-8.795999526977539 C-22.158000946044922,-8.795999526977539 -22.158000946044922,8.795999526977539 -22.158000946044922,8.795999526977539 C-22.158000946044922,8.795999526977539 -8.795999526977539,8.795999526977539 -8.795999526977539,8.795999526977539 C-8.795999526977539,8.795999526977539 -8.795999526977539,22.156999588012695 -8.795999526977539,22.156999588012695 C-8.795999526977539,22.156999588012695 8.79699993133545,22.156999588012695 8.79699993133545,22.156999588012695 C8.79699993133545,22.156999588012695 8.79699993133545,8.795999526977539 8.79699993133545,8.795999526977539 C8.79699993133545,8.795999526977539 22.158000946044922,8.795999526977539 22.158000946044922,8.795999526977539 C22.158000946044922,8.795999526977539 22.158000946044922,-8.795999526977539 22.158000946044922,-8.795999526977539z">
                </path>
            </g>
            <g opacity="1" transform="matrix(1,0,0,1,105.60199737548828,292.1080017089844)">
                <path stroke-linecap="round" stroke-linejoin="round" fill-opacity="0" stroke="rgb(44,52,71)"
                    stroke-opacity="1" stroke-width="4"
                    d=" M41.91899871826172,14.305999755859375 C41.91899871826172,14.305999755859375 -41.91899871826172,14.305999755859375 -41.91899871826172,14.305999755859375 C-45.73699951171875,14.305999755859375 -48.83300018310547,11.211999893188477 -48.83300018310547,7.39300012588501 C-48.83300018310547,7.39300012588501 -48.83300018310547,-7.392000198364258 -48.83300018310547,-7.392000198364258 C-48.83300018310547,-11.211000442504883 -45.73699951171875,-14.305999755859375 -41.91899871826172,-14.305999755859375 C-41.91899871826172,-14.305999755859375 41.91899871826172,-14.305999755859375 41.91899871826172,-14.305999755859375 C45.73699951171875,-14.305999755859375 48.83300018310547,-11.211000442504883 48.83300018310547,-7.392000198364258 C48.83300018310547,-7.392000198364258 48.83300018310547,7.39300012588501 48.83300018310547,7.39300012588501 C48.83300018310547,11.211999893188477 45.73699951171875,14.305999755859375 41.91899871826172,14.305999755859375z">
                </path>
            </g>
            <g opacity="1" transform="matrix(1,0,0,1,105.60299682617188,343.3760070800781)">
                <path stroke-linecap="round" stroke-linejoin="round" fill-opacity="0" stroke="rgb(44,52,71)"
                    stroke-opacity="1" stroke-width="4"
                    d=" M42.68000030517578,-36.96099853515625 C42.68000030517578,-36.96099853515625 -42.68000030517578,-36.96099853515625 -42.68000030517578,-36.96099853515625 C-42.68000030517578,-36.96099853515625 -42.68000030517578,23.280000686645508 -42.68000030517578,23.280000686645508 C-42.68000030517578,30.836000442504883 -36.55400085449219,36.96099853515625 -28.999000549316406,36.96099853515625 C-28.999000549316406,36.96099853515625 28.999000549316406,36.96099853515625 28.999000549316406,36.96099853515625 C36.55500030517578,36.96099853515625 42.68000030517578,30.836000442504883 42.68000030517578,23.280000686645508 C42.68000030517578,23.280000686645508 42.68000030517578,-36.96099853515625 42.68000030517578,-36.96099853515625z">
                </path>
            </g>
            <g opacity="1" transform="matrix(1,0,0,1,105.60299682617188,343.3760070800781)">
                <path stroke-linecap="round" stroke-linejoin="round" fill-opacity="0" stroke="rgb(44,52,71)"
                    stroke-opacity="1" stroke-width="4"
                    d=" M22.158000946044922,-8.795999526977539 C22.158000946044922,-8.795999526977539 8.79699993133545,-8.795999526977539 8.79699993133545,-8.795999526977539 C8.79699993133545,-8.795999526977539 8.79699993133545,-22.156999588012695 8.79699993133545,-22.156999588012695 C8.79699993133545,-22.156999588012695 -8.795999526977539,-22.156999588012695 -8.795999526977539,-22.156999588012695 C-8.795999526977539,-22.156999588012695 -8.795999526977539,-8.795999526977539 -8.795999526977539,-8.795999526977539 C-8.795999526977539,-8.795999526977539 -22.158000946044922,-8.795999526977539 -22.158000946044922,-8.795999526977539 C-22.158000946044922,-8.795999526977539 -22.158000946044922,8.795999526977539 -22.158000946044922,8.795999526977539 C-22.158000946044922,8.795999526977539 -8.795999526977539,8.795999526977539 -8.795999526977539,8.795999526977539 C-8.795999526977539,8.795999526977539 -8.795999526977539,22.156999588012695 -8.795999526977539,22.156999588012695 C-8.795999526977539,22.156999588012695 8.79699993133545,22.156999588012695 8.79699993133545,22.156999588012695 C8.79699993133545,22.156999588012695 8.79699993133545,8.795999526977539 8.79699993133545,8.795999526977539 C8.79699993133545,8.795999526977539 22.158000946044922,8.795999526977539 22.158000946044922,8.795999526977539 C22.158000946044922,8.795999526977539 22.158000946044922,-8.795999526977539 22.158000946044922,-8.795999526977539z">
                </path>
            </g>
            <g opacity="1" transform="matrix(1,0,0,1,0,0)">
                <path stroke-linecap="round" stroke-linejoin="round" fill-opacity="0" stroke="rgb(189,189,189)"
                    stroke-opacity="1" stroke-width="4"
                    d=" M67.05599975585938,284.04998779296875 C67.05599975585938,284.04998779296875 67.05599975585938,300.87298583984375 67.05599975585938,300.87298583984375">
                </path>
            </g>
            <g opacity="1" transform="matrix(1,0,0,1,0,0)">
                <path stroke-linecap="round" stroke-linejoin="round" fill-opacity="0" stroke="rgb(189,189,189)"
                    stroke-opacity="1" stroke-width="4"
                    d=" M76.89800262451172,284.04998779296875 C76.89800262451172,284.04998779296875 76.89800262451172,300.87298583984375 76.89800262451172,300.87298583984375">
                </path>
            </g>
            <g opacity="1" transform="matrix(1,0,0,1,0,0)">
                <path stroke-linecap="round" stroke-linejoin="round" fill-opacity="0" stroke="rgb(189,189,189)"
                    stroke-opacity="1" stroke-width="4"
                    d=" M86.73899841308594,284.04998779296875 C86.73899841308594,284.04998779296875 86.73899841308594,300.87298583984375 86.73899841308594,300.87298583984375">
                </path>
            </g>
            <g opacity="1" transform="matrix(1,0,0,1,0,0)">
                <path stroke-linecap="round" stroke-linejoin="round" fill-opacity="0" stroke="rgb(189,189,189)"
                    stroke-opacity="1" stroke-width="4"
                    d=" M96.58000183105469,284.04998779296875 C96.58000183105469,284.04998779296875 96.58000183105469,300.87298583984375 96.58000183105469,300.87298583984375">
                </path>
            </g>
            <g opacity="1" transform="matrix(1,0,0,1,0,0)">
                <path stroke-linecap="round" stroke-linejoin="round" fill-opacity="0" stroke="rgb(189,189,189)"
                    stroke-opacity="1" stroke-width="4"
                    d=" M106.4219970703125,284.04998779296875 C106.4219970703125,284.04998779296875 106.4219970703125,300.87298583984375 106.4219970703125,300.87298583984375">
                </path>
            </g>
            <g opacity="1" transform="matrix(1,0,0,1,0,0)">
                <path stroke-linecap="round" stroke-linejoin="round" fill-opacity="0" stroke="rgb(189,189,189)"
                    stroke-opacity="1" stroke-width="4"
                    d=" M116.26399993896484,284.04998779296875 C116.26399993896484,284.04998779296875 116.26399993896484,300.87298583984375 116.26399993896484,300.87298583984375">
                </path>
            </g>
            <g opacity="1" transform="matrix(1,0,0,1,0,0)">
                <path stroke-linecap="round" stroke-linejoin="round" fill-opacity="0" stroke="rgb(189,189,189)"
                    stroke-opacity="1" stroke-width="4"
                    d=" M126.1050033569336,284.04998779296875 C126.1050033569336,284.04998779296875 126.1050033569336,300.87298583984375 126.1050033569336,300.87298583984375">
                </path>
            </g>
            <g opacity="1" transform="matrix(1,0,0,1,0,0)">
                <path stroke-linecap="round" stroke-linejoin="round" fill-opacity="0" stroke="rgb(189,189,189)"
                    stroke-opacity="1" stroke-width="4"
                    d=" M135.94700622558594,284.04998779296875 C135.94700622558594,284.04998779296875 135.94700622558594,300.87298583984375 135.94700622558594,300.87298583984375">
                </path>
            </g>
            <g opacity="1" transform="matrix(1,0,0,1,0,0)">
                <path stroke-linecap="round" stroke-linejoin="round" fill-opacity="0" stroke="rgb(189,189,189)"
                    stroke-opacity="1" stroke-width="4"
                    d=" M145.78799438476562,284.04998779296875 C145.78799438476562,284.04998779296875 145.78799438476562,300.87298583984375 145.78799438476562,300.87298583984375">
                </path>
            </g>
            <g opacity="1" transform="matrix(1,0,0,1,0,0)">
                <path stroke-linecap="round" stroke-linejoin="round" fill-opacity="0" stroke="rgb(44,52,71)"
                    stroke-opacity="1" stroke-width="4"
                    d=" M66.23600006103516,283.6969909667969 C66.23600006103516,283.6969909667969 66.23600006103516,300.5199890136719 66.23600006103516,300.5199890136719">
                </path>
            </g>
            <g opacity="1" transform="matrix(1,0,0,1,0,0)">
                <path stroke-linecap="round" stroke-linejoin="round" fill-opacity="0" stroke="rgb(44,52,71)"
                    stroke-opacity="1" stroke-width="4"
                    d=" M76.0780029296875,283.6969909667969 C76.0780029296875,283.6969909667969 76.0780029296875,300.5199890136719 76.0780029296875,300.5199890136719">
                </path>
            </g>
            <g opacity="1" transform="matrix(1,0,0,1,0,0)">
                <path stroke-linecap="round" stroke-linejoin="round" fill-opacity="0" stroke="rgb(44,52,71)"
                    stroke-opacity="1" stroke-width="4"
                    d=" M85.91999816894531,283.6969909667969 C85.91999816894531,283.6969909667969 85.91999816894531,300.5199890136719 85.91999816894531,300.5199890136719">
                </path>
            </g>
            <g opacity="1" transform="matrix(1,0,0,1,0,0)">
                <path stroke-linecap="round" stroke-linejoin="round" fill-opacity="0" stroke="rgb(44,52,71)"
                    stroke-opacity="1" stroke-width="4"
                    d=" M95.76100158691406,283.6969909667969 C95.76100158691406,283.6969909667969 95.76100158691406,300.5199890136719 95.76100158691406,300.5199890136719">
                </path>
            </g>
            <g opacity="1" transform="matrix(1,0,0,1,0,0)">
                <path stroke-linecap="round" stroke-linejoin="round" fill-opacity="0" stroke="rgb(44,52,71)"
                    stroke-opacity="1" stroke-width="4"
                    d=" M105.60299682617188,283.6969909667969 C105.60299682617188,283.6969909667969 105.60299682617188,300.5199890136719 105.60299682617188,300.5199890136719">
                </path>
            </g>
            <g opacity="1" transform="matrix(1,0,0,1,0,0)">
                <path stroke-linecap="round" stroke-linejoin="round" fill-opacity="0" stroke="rgb(44,52,71)"
                    stroke-opacity="1" stroke-width="4"
                    d=" M115.44400024414062,283.6969909667969 C115.44400024414062,283.6969909667969 115.44400024414062,300.5199890136719 115.44400024414062,300.5199890136719">
                </path>
            </g>
            <g opacity="1" transform="matrix(1,0,0,1,0,0)">
                <path stroke-linecap="round" stroke-linejoin="round" fill-opacity="0" stroke="rgb(44,52,71)"
                    stroke-opacity="1" stroke-width="4"
                    d=" M125.28600311279297,283.6969909667969 C125.28600311279297,283.6969909667969 125.28600311279297,300.5199890136719 125.28600311279297,300.5199890136719">
                </path>
            </g>
            <g opacity="1" transform="matrix(1,0,0,1,0,0)">
                <path stroke-linecap="round" stroke-linejoin="round" fill-opacity="0" stroke="rgb(44,52,71)"
                    stroke-opacity="1" stroke-width="4"
                    d=" M135.1280059814453,283.6969909667969 C135.1280059814453,283.6969909667969 135.1280059814453,300.5199890136719 135.1280059814453,300.5199890136719">
                </path>
            </g>
            <g opacity="1" transform="matrix(1,0,0,1,0,0)">
                <path stroke-linecap="round" stroke-linejoin="round" fill-opacity="0" stroke="rgb(44,52,71)"
                    stroke-opacity="1" stroke-width="4"
                    d=" M144.968994140625,283.6969909667969 C144.968994140625,283.6969909667969 144.968994140625,300.5199890136719 144.968994140625,300.5199890136719">
                </path>
            </g>
        </g>
        <g style="display: block;"
            transform="matrix(0.9020704030990601,-0.7379155158996582,0.7379155158996582,0.9020704030990601,-80.05757904052734,279.2530822753906)"
            opacity="1">
            <g opacity="1" transform="matrix(1,0,0,1,77.46399688720703,178.5970001220703)">
                <path fill="rgb(206,207,208)" fill-opacity="1"
                    d=" M21.090999603271484,49.0359992980957 C21.090999603271484,49.0359992980957 -27.983999252319336,45.165000915527344 -27.983999252319336,45.165000915527344 C-32.81399917602539,44.78499984741211 -36.43199920654297,40.577999114990234 -36.084999084472656,35.744998931884766 C-36.084999084472656,35.744998931884766 -30.57900047302246,-40.87900161743164 -30.57900047302246,-40.87900161743164 C-30.22800064086914,-45.75899887084961 -25.969999313354492,-49.42100143432617 -21.091999053955078,-49.0359992980957 C-21.091999053955078,-49.0359992980957 27.983999252319336,-45.16600036621094 27.983999252319336,-45.16600036621094 C32.81399917602539,-44.78499984741211 36.43199920654297,-40.577999114990234 36.08399963378906,-35.744998931884766 C36.08399963378906,-35.744998931884766 30.577999114990234,40.87900161743164 30.577999114990234,40.87900161743164 C30.22800064086914,45.7599983215332 25.9689998626709,49.42100143432617 21.090999603271484,49.0359992980957z">
                </path>
                <path stroke-linecap="round" stroke-linejoin="round" fill-opacity="0" stroke="rgb(44,52,71)"
                    stroke-opacity="1" stroke-width="4"
                    d=" M21.090999603271484,49.0359992980957 C21.090999603271484,49.0359992980957 -27.983999252319336,45.165000915527344 -27.983999252319336,45.165000915527344 C-32.81399917602539,44.78499984741211 -36.43199920654297,40.577999114990234 -36.084999084472656,35.744998931884766 C-36.084999084472656,35.744998931884766 -30.57900047302246,-40.87900161743164 -30.57900047302246,-40.87900161743164 C-30.22800064086914,-45.75899887084961 -25.969999313354492,-49.42100143432617 -21.091999053955078,-49.0359992980957 C-21.091999053955078,-49.0359992980957 27.983999252319336,-45.16600036621094 27.983999252319336,-45.16600036621094 C32.81399917602539,-44.78499984741211 36.43199920654297,-40.577999114990234 36.08399963378906,-35.744998931884766 C36.08399963378906,-35.744998931884766 30.577999114990234,40.87900161743164 30.577999114990234,40.87900161743164 C30.22800064086914,45.7599983215332 25.9689998626709,49.42100143432617 21.090999603271484,49.0359992980957z">
                </path>
            </g>
            <g opacity="1" transform="matrix(1,0,0,1,77.46299743652344,178.5970001220703)">
                <path fill="rgb(239,239,239)" fill-opacity="1"
                    d=" M9.838000297546387,52.198001861572266 C9.838000297546387,52.198001861572266 -37.34199905395508,38.17300033569336 -37.34199905395508,38.17300033569336 C-42.03499984741211,36.777000427246094 -44.69200134277344,31.823999404907227 -43.2599983215332,27.142000198364258 C-43.2599983215332,27.142000198364258 -20.7810001373291,-46.327999114990234 -20.7810001373291,-46.327999114990234 C-19.36400032043457,-50.95800018310547 -14.477999687194824,-53.57899856567383 -9.838000297546387,-52.19900131225586 C-9.838000297546387,-52.19900131225586 37.34199905395508,-38.17300033569336 37.34199905395508,-38.17300033569336 C42.03499984741211,-36.77799987792969 44.69200134277344,-31.825000762939453 43.2599983215332,-27.14299964904785 C43.2599983215332,-27.14299964904785 20.7810001373291,46.327999114990234 20.7810001373291,46.327999114990234 C19.36400032043457,50.95800018310547 14.479000091552734,53.577999114990234 9.838000297546387,52.198001861572266z">
                </path>
            </g>
            <g opacity="1" transform="matrix(1,0,0,1,81.5250015258789,183.427001953125)">
                <path fill="rgb(225,225,225)" fill-opacity="1"
                    d=" M-40.63100051879883,33.571998596191406 C-40.63100051879883,33.571998596191406 5.775000095367432,47.36800003051758 5.775000095367432,47.36800003051758 C10.416000366210938,48.74800109863281 15.302000045776367,46.12699890136719 16.7189998626709,41.49700164794922 C16.7189998626709,41.49700164794922 39.198001861572266,-31.97100067138672 39.198001861572266,-31.97100067138672 C40.63100051879883,-36.65399932861328 37.972999572753906,-41.606998443603516 33.279998779296875,-43.00299835205078 C33.279998779296875,-43.00299835205078 13.949999809265137,-48.749000549316406 13.949999809265137,-48.749000549316406 C24.572999954223633,-40.68299865722656 32.55500030517578,-27.308000564575195 22.166000366210938,-1.2680000066757202 C10.149999618530273,28.849000930786133 -25.672000885009766,33.03200149536133 -40.63100051879883,33.571998596191406z">
                </path>
            </g>
            <g opacity="1" transform="matrix(1,0,0,1,77.46299743652344,178.5970001220703)">
                <path stroke-linecap="round" stroke-linejoin="round" fill-opacity="0" stroke="rgb(44,52,71)"
                    stroke-opacity="1" stroke-width="4"
                    d=" M9.838000297546387,52.198001861572266 C9.838000297546387,52.198001861572266 -37.34199905395508,38.17300033569336 -37.34199905395508,38.17300033569336 C-42.03499984741211,36.777000427246094 -44.69200134277344,31.823999404907227 -43.2599983215332,27.142000198364258 C-43.2599983215332,27.142000198364258 -20.7810001373291,-46.327999114990234 -20.7810001373291,-46.327999114990234 C-19.36400032043457,-50.95800018310547 -14.477999687194824,-53.57899856567383 -9.838000297546387,-52.19900131225586 C-9.838000297546387,-52.19900131225586 37.34199905395508,-38.17300033569336 37.34199905395508,-38.17300033569336 C42.03499984741211,-36.77799987792969 44.69200134277344,-31.825000762939453 43.2599983215332,-27.14299964904785 C43.2599983215332,-27.14299964904785 20.7810001373291,46.327999114990234 20.7810001373291,46.327999114990234 C19.36400032043457,50.95800018310547 14.479000091552734,53.577999114990234 9.838000297546387,52.198001861572266z">
                </path>
            </g>
            <g opacity="1" transform="matrix(1,0,0,1,87.75299835205078,146.63800048828125)">
                <path stroke-linecap="round" stroke-linejoin="round" fill-opacity="0" stroke="rgb(44,52,71)"
                    stroke-opacity="1" stroke-width="4"
                    d=" M-22.795000076293945,-7.110000133514404 C-22.795000076293945,-7.110000133514404 22.795000076293945,7.110000133514404 22.795000076293945,7.110000133514404">
                </path>
            </g>
            <g opacity="1" transform="matrix(1,0,0,1,84.802001953125,156.28500366210938)">
                <path stroke-linecap="round" stroke-linejoin="round" fill-opacity="0" stroke="rgb(44,52,71)"
                    stroke-opacity="1" stroke-width="4"
                    d=" M-22.79400062561035,-7.110000133514404 C-22.79400062561035,-7.110000133514404 22.795000076293945,7.110000133514404 22.795000076293945,7.110000133514404">
                </path>
            </g>
            <g opacity="1" transform="matrix(1,0,0,1,81.85199737548828,165.9320068359375)">
                <path stroke-linecap="round" stroke-linejoin="round" fill-opacity="0" stroke="rgb(44,52,71)"
                    stroke-opacity="1" stroke-width="4"
                    d=" M-22.795000076293945,-7.110000133514404 C-22.795000076293945,-7.110000133514404 22.795000076293945,7.110000133514404 22.795000076293945,7.110000133514404">
                </path>
            </g>
            <g opacity="1" transform="matrix(1,0,0,1,78.9010009765625,175.5780029296875)">
                <path stroke-linecap="round" stroke-linejoin="round" fill-opacity="0" stroke="rgb(44,52,71)"
                    stroke-opacity="1" stroke-width="4"
                    d=" M-22.79400062561035,-7.110000133514404 C-22.79400062561035,-7.110000133514404 22.795000076293945,7.110000133514404 22.795000076293945,7.110000133514404">
                </path>
            </g>
            <g opacity="1" transform="matrix(1,0,0,1,75.94999694824219,185.22500610351562)">
                <path stroke-linecap="round" stroke-linejoin="round" fill-opacity="0" stroke="rgb(44,52,71)"
                    stroke-opacity="1" stroke-width="4"
                    d=" M-22.795000076293945,-7.110000133514404 C-22.795000076293945,-7.110000133514404 22.795000076293945,7.110000133514404 22.795000076293945,7.110000133514404">
                </path>
            </g>
            <g opacity="1" transform="matrix(1,0,0,1,73,194.8719940185547)">
                <path stroke-linecap="round" stroke-linejoin="round" fill-opacity="0" stroke="rgb(44,52,71)"
                    stroke-opacity="1" stroke-width="4"
                    d=" M-22.795000076293945,-7.110000133514404 C-22.795000076293945,-7.110000133514404 22.79400062561035,7.110000133514404 22.79400062561035,7.110000133514404">
                </path>
            </g>
            <g opacity="1" transform="matrix(1,0,0,1,70.04900360107422,204.5189971923828)">
                <path stroke-linecap="round" stroke-linejoin="round" fill-opacity="0" stroke="rgb(44,52,71)"
                    stroke-opacity="1" stroke-width="4"
                    d=" M-22.795000076293945,-7.110000133514404 C-22.795000076293945,-7.110000133514404 22.795000076293945,7.110000133514404 22.795000076293945,7.110000133514404">
                </path>
            </g>
        </g>
        <g style="display: block;"
            transform="matrix(0.7522309422492981,-0.6588995456695557,0.6588995456695557,0.7522309422492981,-138.92434692382812,394.0544738769531)"
            opacity="1">
            <g opacity="1" transform="matrix(1,0,0,1,425.739990234375,354.2669982910156)">
                <path fill="rgb(242,100,100)" fill-opacity="1"
                    d=" M48.678001403808594,36.65999984741211 C48.678001403808594,36.65999984741211 -48.676998138427734,36.65999984741211 -48.676998138427734,36.65999984741211 C-52.95899963378906,36.65999984741211 -56.43000030517578,33.1879997253418 -56.43000030517578,28.906999588012695 C-56.43000030517578,28.906999588012695 -56.43000030517578,-28.9060001373291 -56.43000030517578,-28.9060001373291 C-56.43000030517578,-33.18899917602539 -52.95899963378906,-36.65999984741211 -48.676998138427734,-36.65999984741211 C-48.676998138427734,-36.65999984741211 48.678001403808594,-36.65999984741211 48.678001403808594,-36.65999984741211 C52.95899963378906,-36.65999984741211 56.43000030517578,-33.18899917602539 56.43000030517578,-28.9060001373291 C56.43000030517578,-28.9060001373291 56.43000030517578,28.906999588012695 56.43000030517578,28.906999588012695 C56.43000030517578,33.1879997253418 52.95899963378906,36.65999984741211 48.678001403808594,36.65999984741211z">
                </path>
            </g>
            <g opacity="1" transform="matrix(1,0,0,1,375.677001953125,354.2669982910156)">
                <path fill="rgb(255,161,161)" fill-opacity="1"
                    d=" M-1.3860000371932983,28.9060001373291 C-1.3860000371932983,28.9060001373291 -1.3860000371932983,-28.9060001373291 -1.3860000371932983,-28.9060001373291 C-1.3860000371932983,-33.18899917602539 2.0850000381469727,-36.65999984741211 6.367000102996826,-36.65999984741211 C6.367000102996826,-36.65999984741211 1.3849999904632568,-36.65999984741211 1.3849999904632568,-36.65999984741211 C-2.8959999084472656,-36.65999984741211 -6.367000102996826,-33.18899917602539 -6.367000102996826,-28.9060001373291 C-6.367000102996826,-28.9060001373291 -6.367000102996826,28.9060001373291 -6.367000102996826,28.9060001373291 C-6.367000102996826,33.1870002746582 -2.8959999084472656,36.65999984741211 1.3849999904632568,36.65999984741211 C1.3849999904632568,36.65999984741211 6.367000102996826,36.65999984741211 6.367000102996826,36.65999984741211 C2.0850000381469727,36.65999984741211 -1.3860000371932983,33.1870002746582 -1.3860000371932983,28.9060001373291z">
                </path>
            </g>
            <g opacity="1" transform="matrix(1,0,0,1,435.4800109863281,354.2669982910156)">
                <path fill="rgb(220,82,82)" fill-opacity="1"
                    d=" M38.9379997253418,-36.659000396728516 C38.9379997253418,-36.659000396728516 24.038000106811523,-36.659000396728516 24.038000106811523,-36.659000396728516 C23.64299964904785,-15.930999755859375 16.424999237060547,36.659000396728516 -46.68899917602539,36.659000396728516 C-46.68899917602539,36.659000396728516 38.9379997253418,36.659000396728516 38.9379997253418,36.659000396728516 C43.21900177001953,36.659000396728516 46.689998626708984,33.1879997253418 46.689998626708984,28.9060001373291 C46.689998626708984,28.9060001373291 46.689998626708984,-28.9060001373291 46.689998626708984,-28.9060001373291 C46.689998626708984,-33.1879997253418 43.21900177001953,-36.659000396728516 38.9379997253418,-36.659000396728516z">
                </path>
            </g>
            <g opacity="1" transform="matrix(1,0,0,1,425.739990234375,354.2669982910156)">
                <path stroke-linecap="round" stroke-linejoin="round" fill-opacity="0" stroke="rgb(44,52,71)"
                    stroke-opacity="1" stroke-width="4"
                    d=" M48.678001403808594,36.65999984741211 C48.678001403808594,36.65999984741211 -48.676998138427734,36.65999984741211 -48.676998138427734,36.65999984741211 C-52.95899963378906,36.65999984741211 -56.43000030517578,33.1879997253418 -56.43000030517578,28.906999588012695 C-56.43000030517578,28.906999588012695 -56.43000030517578,-28.9060001373291 -56.43000030517578,-28.9060001373291 C-56.43000030517578,-33.18899917602539 -52.95899963378906,-36.65999984741211 -48.676998138427734,-36.65999984741211 C-48.676998138427734,-36.65999984741211 48.678001403808594,-36.65999984741211 48.678001403808594,-36.65999984741211 C52.95899963378906,-36.65999984741211 56.43000030517578,-33.18899917602539 56.43000030517578,-28.9060001373291 C56.43000030517578,-28.9060001373291 56.43000030517578,28.906999588012695 56.43000030517578,28.906999588012695 C56.43000030517578,33.1879997253418 52.95899963378906,36.65999984741211 48.678001403808594,36.65999984741211z">
                </path>
            </g>
            <g opacity="1" transform="matrix(1,0,0,1,425.739990234375,354.2669982910156)">
                <path fill="rgb(255,255,255)" fill-opacity="1"
                    d=" M19.408000946044922,-7.703999996185303 C19.408000946044922,-7.703999996185303 7.704999923706055,-7.703999996185303 7.704999923706055,-7.703999996185303 C7.704999923706055,-7.703999996185303 7.704999923706055,-19.408000946044922 7.704999923706055,-19.408000946044922 C7.704999923706055,-19.408000946044922 -7.704999923706055,-19.408000946044922 -7.704999923706055,-19.408000946044922 C-7.704999923706055,-19.408000946044922 -7.704999923706055,-7.703999996185303 -7.704999923706055,-7.703999996185303 C-7.704999923706055,-7.703999996185303 -19.408000946044922,-7.703999996185303 -19.408000946044922,-7.703999996185303 C-19.408000946044922,-7.703999996185303 -19.408000946044922,7.704999923706055 -19.408000946044922,7.704999923706055 C-19.408000946044922,7.704999923706055 -7.704999923706055,7.704999923706055 -7.704999923706055,7.704999923706055 C-7.704999923706055,7.704999923706055 -7.704999923706055,19.408000946044922 -7.704999923706055,19.408000946044922 C-7.704999923706055,19.408000946044922 7.704999923706055,19.408000946044922 7.704999923706055,19.408000946044922 C7.704999923706055,19.408000946044922 7.704999923706055,7.704999923706055 7.704999923706055,7.704999923706055 C7.704999923706055,7.704999923706055 19.408000946044922,7.704999923706055 19.408000946044922,7.704999923706055 C19.408000946044922,7.704999923706055 19.408000946044922,-7.703999996185303 19.408000946044922,-7.703999996185303z">
                </path>
                <path stroke-linecap="round" stroke-linejoin="round" fill-opacity="0" stroke="rgb(44,52,71)"
                    stroke-opacity="1" stroke-width="4"
                    d=" M19.408000946044922,-7.703999996185303 C19.408000946044922,-7.703999996185303 7.704999923706055,-7.703999996185303 7.704999923706055,-7.703999996185303 C7.704999923706055,-7.703999996185303 7.704999923706055,-19.408000946044922 7.704999923706055,-19.408000946044922 C7.704999923706055,-19.408000946044922 -7.704999923706055,-19.408000946044922 -7.704999923706055,-19.408000946044922 C-7.704999923706055,-19.408000946044922 -7.704999923706055,-7.703999996185303 -7.704999923706055,-7.703999996185303 C-7.704999923706055,-7.703999996185303 -19.408000946044922,-7.703999996185303 -19.408000946044922,-7.703999996185303 C-19.408000946044922,-7.703999996185303 -19.408000946044922,7.704999923706055 -19.408000946044922,7.704999923706055 C-19.408000946044922,7.704999923706055 -7.704999923706055,7.704999923706055 -7.704999923706055,7.704999923706055 C-7.704999923706055,7.704999923706055 -7.704999923706055,19.408000946044922 -7.704999923706055,19.408000946044922 C-7.704999923706055,19.408000946044922 7.704999923706055,19.408000946044922 7.704999923706055,19.408000946044922 C7.704999923706055,19.408000946044922 7.704999923706055,7.704999923706055 7.704999923706055,7.704999923706055 C7.704999923706055,7.704999923706055 19.408000946044922,7.704999923706055 19.408000946044922,7.704999923706055 C19.408000946044922,7.704999923706055 19.408000946044922,-7.703999996185303 19.408000946044922,-7.703999996185303z">
                </path>
            </g>
            <g opacity="1" transform="matrix(1,0,0,1,425.739990234375,311.77801513671875)">
                <path stroke-linecap="round" stroke-linejoin="round" fill-opacity="0" stroke="rgb(44,52,71)"
                    stroke-opacity="1" stroke-width="4"
                    d=" M14.27400016784668,-5.829999923706055 C14.27400016784668,-5.829999923706055 -14.27299976348877,-5.829999923706055 -14.27299976348877,-5.829999923706055 C-16.54800033569336,-5.829999923706055 -18.393999099731445,-3.9839999675750732 -18.393999099731445,-1.7079999446868896 C-18.393999099731445,-1.7079999446868896 -18.393999099731445,5.828999996185303 -18.393999099731445,5.828999996185303 C-18.393999099731445,5.828999996185303 18.393999099731445,5.828999996185303 18.393999099731445,5.828999996185303 C18.393999099731445,5.828999996185303 18.393999099731445,-1.7079999446868896 18.393999099731445,-1.7079999446868896 C18.393999099731445,-3.9839999675750732 16.548999786376953,-5.829999923706055 14.27400016784668,-5.829999923706055z">
                </path>
            </g>
            <g opacity="1" transform="matrix(1,0,0,1,426.0369873046875,305.947998046875)">
                <path fill="rgb(48,124,255)" fill-opacity="1"
                    d=" M10.342000007629395,3.75600004196167 C10.342000007629395,3.75600004196167 -10.343000411987305,3.75600004196167 -10.343000411987305,3.75600004196167 C-11.199000358581543,3.75600004196167 -11.892999649047852,3.062000036239624 -11.892999649047852,2.2049999237060547 C-11.892999649047852,2.2049999237060547 -11.892999649047852,-2.2049999237060547 -11.892999649047852,-2.2049999237060547 C-11.892999649047852,-3.061000108718872 -11.199000358581543,-3.75600004196167 -10.343000411987305,-3.75600004196167 C-10.343000411987305,-3.75600004196167 10.342000007629395,-3.75600004196167 10.342000007629395,-3.75600004196167 C11.197999954223633,-3.75600004196167 11.892999649047852,-3.061000108718872 11.892999649047852,-2.2049999237060547 C11.892999649047852,-2.2049999237060547 11.892999649047852,2.2049999237060547 11.892999649047852,2.2049999237060547 C11.892999649047852,3.062000036239624 11.197999954223633,3.75600004196167 10.342000007629395,3.75600004196167z">
                </path>
                <path stroke-linecap="round" stroke-linejoin="round" fill-opacity="0" stroke="rgb(44,52,71)"
                    stroke-opacity="1" stroke-width="4"
                    d=" M10.342000007629395,3.75600004196167 C10.342000007629395,3.75600004196167 -10.343000411987305,3.75600004196167 -10.343000411987305,3.75600004196167 C-11.199000358581543,3.75600004196167 -11.892999649047852,3.062000036239624 -11.892999649047852,2.2049999237060547 C-11.892999649047852,2.2049999237060547 -11.892999649047852,-2.2049999237060547 -11.892999649047852,-2.2049999237060547 C-11.892999649047852,-3.061000108718872 -11.199000358581543,-3.75600004196167 -10.343000411987305,-3.75600004196167 C-10.343000411987305,-3.75600004196167 10.342000007629395,-3.75600004196167 10.342000007629395,-3.75600004196167 C11.197999954223633,-3.75600004196167 11.892999649047852,-3.061000108718872 11.892999649047852,-2.2049999237060547 C11.892999649047852,-2.2049999237060547 11.892999649047852,2.2049999237060547 11.892999649047852,2.2049999237060547 C11.892999649047852,3.062000036239624 11.197999954223633,3.75600004196167 10.342000007629395,3.75600004196167z">
                </path>
            </g>
        </g>
        <g style="display: block;"
            transform="matrix(0.8228999972343445,0,0,0.8228999972343445,111.10699462890625,-73.13809967041016)"
            opacity="1">
            <g opacity="1" transform="matrix(1,0,0,1,386.7099914550781,198.33299255371094)">
                <path fill="rgb(89,94,116)" fill-opacity="1"
                    d=" M-0.17900000512599945,46.426998138427734 C-17.142000198364258,46.33000183105469 -30.739999771118164,32.3129997253418 -30.739999771118164,15.350000381469727 C-30.739999771118164,15.350000381469727 -30.739999771118164,-32.994998931884766 -30.739999771118164,-32.994998931884766 C-30.739999771118164,-40.46699905395508 -24.683000564575195,-46.5260009765625 -17.209999084472656,-46.5260009765625 C-17.209999084472656,-46.5260009765625 -17.209999084472656,-41.99599838256836 -17.209999084472656,-41.99599838256836 C-22.18199920654297,-41.99599838256836 -26.211000442504883,-37.965999603271484 -26.211000442504883,-32.994998931884766 C-26.211000442504883,-32.994998931884766 -26.211000442504883,15.399999618530273 -26.211000442504883,15.399999618530273 C-26.211000442504883,29.86400032043457 -14.618000030517578,41.814998626708984 -0.15399999916553497,41.89799880981445 C14.369999885559082,41.98099899291992 26.211999893188477,30.191999435424805 26.211999893188477,15.687999725341797 C26.211999893188477,15.687999725341797 26.211999893188477,-32.994998931884766 26.211999893188477,-32.994998931884766 C26.211999893188477,-37.965999603271484 22.18199920654297,-41.99599838256836 17.211000442504883,-41.99599838256836 C17.211000442504883,-41.99599838256836 17.211000442504883,-46.5260009765625 17.211000442504883,-46.5260009765625 C24.683000564575195,-46.5260009765625 30.740999221801758,-40.46699905395508 30.740999221801758,-32.994998931884766 C30.740999221801758,-32.994998931884766 30.740999221801758,15.687999725341797 30.740999221801758,15.687999725341797 C30.740999221801758,32.69900131225586 16.85300064086914,46.525001525878906 -0.17900000512599945,46.426998138427734z">
                </path>
                <path fill="rgb(44,52,71)" fill-opacity="1"
                    d=" M-0.17900000512599945,46.426998138427734 C-17.142000198364258,46.33000183105469 -30.739999771118164,32.3129997253418 -30.739999771118164,15.350000381469727 C-30.739999771118164,15.350000381469727 -30.739999771118164,-32.994998931884766 -30.739999771118164,-32.994998931884766 C-30.739999771118164,-40.46699905395508 -24.683000564575195,-46.5260009765625 -17.209999084472656,-46.5260009765625 C-17.209999084472656,-46.5260009765625 -17.209999084472656,-41.99599838256836 -17.209999084472656,-41.99599838256836 C-22.18199920654297,-41.99599838256836 -26.211000442504883,-37.965999603271484 -26.211000442504883,-32.994998931884766 C-26.211000442504883,-32.994998931884766 -26.211000442504883,15.399999618530273 -26.211000442504883,15.399999618530273 C-26.211000442504883,29.86400032043457 -14.618000030517578,41.814998626708984 -0.15399999916553497,41.89799880981445 C14.369999885559082,41.98099899291992 26.211999893188477,30.191999435424805 26.211999893188477,15.687999725341797 C26.211999893188477,15.687999725341797 26.211999893188477,-32.994998931884766 26.211999893188477,-32.994998931884766 C26.211999893188477,-37.965999603271484 22.18199920654297,-41.99599838256836 17.211000442504883,-41.99599838256836 C17.211000442504883,-41.99599838256836 17.211000442504883,-46.5260009765625 17.211000442504883,-46.5260009765625 C24.683000564575195,-46.5260009765625 30.740999221801758,-40.46699905395508 30.740999221801758,-32.994998931884766 C30.740999221801758,-32.994998931884766 30.740999221801758,15.687999725341797 30.740999221801758,15.687999725341797 C30.740999221801758,32.69900131225586 16.85300064086914,46.525001525878906 -0.17900000512599945,46.426998138427734z">
                </path>
            </g>
            <g opacity="1" transform="matrix(1,0,0,1,418.80999755859375,261.489013671875)">
                <path fill="rgb(44,52,71)" fill-opacity="1"
                    d=" M-20.3799991607666,18.992000579833984 C-20.3799991607666,18.992000579833984 -21.107999801635742,18.992000579833984 -21.107999801635742,18.992000579833984 C-28.18000030517578,18.992000579833984 -33.9109992980957,13.260000228881836 -33.9109992980957,6.186999797821045 C-33.9109992980957,6.186999797821045 -33.9109992980957,-17.18000030517578 -33.9109992980957,-17.18000030517578 C-33.9109992980957,-18.180999755859375 -33.10100173950195,-18.992000579833984 -32.099998474121094,-18.992000579833984 C-31.100000381469727,-18.992000579833984 -30.288999557495117,-18.180999755859375 -30.288999557495117,-17.18000030517578 C-30.288999557495117,-17.18000030517578 -30.288999557495117,5.823999881744385 -30.288999557495117,5.823999881744385 C-30.288999557495117,11.095999717712402 -26.014999389648438,15.369000434875488 -20.743000030517578,15.369000434875488 C-15.472000122070312,15.369000434875488 -11.199000358581543,11.095999717712402 -11.199000358581543,5.823999881744385 C-11.199000358581543,5.823999881744385 -11.199000358581543,2.3540000915527344 -11.199000358581543,2.3540000915527344 C-11.199000358581543,-0.44600000977516174 -8.928999900817871,-2.7170000076293945 -6.127999782562256,-2.7170000076293945 C-6.127999782562256,-2.7170000076293945 6.810999870300293,-2.7170000076293945 6.810999870300293,-2.7170000076293945 C9.612000465393066,-2.7170000076293945 11.883000373840332,-0.44600000977516174 11.883000373840332,2.3540000915527344 C11.883000373840332,2.3540000915527344 11.883000373840332,7.761000156402588 11.883000373840332,7.761000156402588 C11.883000373840332,8.76099967956543 12.694000244140625,9.571999549865723 13.694000244140625,9.571999549865723 C13.694000244140625,9.571999549865723 32.0989990234375,9.571999549865723 32.0989990234375,9.571999549865723 C33.099998474121094,9.571999549865723 33.9109992980957,10.383999824523926 33.9109992980957,11.383999824523926 C33.9109992980957,12.385000228881836 33.099998474121094,13.194999694824219 32.0989990234375,13.194999694824219 C32.0989990234375,13.194999694824219 13.331000328063965,13.194999694824219 13.331000328063965,13.194999694824219 C10.529999732971191,13.194999694824219 8.260000228881836,10.925000190734863 8.260000228881836,8.12399959564209 C8.260000228881836,8.12399959564209 8.260000228881836,2.7179999351501465 8.260000228881836,2.7179999351501465 C8.260000228881836,1.718000054359436 7.448999881744385,0.906000018119812 6.447999954223633,0.906000018119812 C6.447999954223633,0.906000018119812 -5.763999938964844,0.906000018119812 -5.763999938964844,0.906000018119812 C-6.764999866485596,0.906000018119812 -7.576000213623047,1.718000054359436 -7.576000213623047,2.7179999351501465 C-7.576000213623047,2.7179999351501465 -7.576000213623047,6.186999797821045 -7.576000213623047,6.186999797821045 C-7.576000213623047,13.260000228881836 -13.307999610900879,18.992000579833984 -20.3799991607666,18.992000579833984z">
                </path>
                <path stroke-linecap="butt" stroke-linejoin="miter" fill-opacity="0" stroke-miterlimit="10"
                    stroke="rgb(44,52,71)" stroke-opacity="1" stroke-width="3"
                    d=" M-20.3799991607666,18.992000579833984 C-20.3799991607666,18.992000579833984 -21.107999801635742,18.992000579833984 -21.107999801635742,18.992000579833984 C-28.18000030517578,18.992000579833984 -33.9109992980957,13.260000228881836 -33.9109992980957,6.186999797821045 C-33.9109992980957,6.186999797821045 -33.9109992980957,-17.18000030517578 -33.9109992980957,-17.18000030517578 C-33.9109992980957,-18.180999755859375 -33.10100173950195,-18.992000579833984 -32.099998474121094,-18.992000579833984 C-31.100000381469727,-18.992000579833984 -30.288999557495117,-18.180999755859375 -30.288999557495117,-17.18000030517578 C-30.288999557495117,-17.18000030517578 -30.288999557495117,5.823999881744385 -30.288999557495117,5.823999881744385 C-30.288999557495117,11.095999717712402 -26.014999389648438,15.369000434875488 -20.743000030517578,15.369000434875488 C-15.472000122070312,15.369000434875488 -11.199000358581543,11.095999717712402 -11.199000358581543,5.823999881744385 C-11.199000358581543,5.823999881744385 -11.199000358581543,2.3540000915527344 -11.199000358581543,2.3540000915527344 C-11.199000358581543,-0.44600000977516174 -8.928999900817871,-2.7170000076293945 -6.127999782562256,-2.7170000076293945 C-6.127999782562256,-2.7170000076293945 6.810999870300293,-2.7170000076293945 6.810999870300293,-2.7170000076293945 C9.612000465393066,-2.7170000076293945 11.883000373840332,-0.44600000977516174 11.883000373840332,2.3540000915527344 C11.883000373840332,2.3540000915527344 11.883000373840332,7.761000156402588 11.883000373840332,7.761000156402588 C11.883000373840332,8.76099967956543 12.694000244140625,9.571999549865723 13.694000244140625,9.571999549865723 C13.694000244140625,9.571999549865723 32.0989990234375,9.571999549865723 32.0989990234375,9.571999549865723 C33.099998474121094,9.571999549865723 33.9109992980957,10.383999824523926 33.9109992980957,11.383999824523926 C33.9109992980957,12.385000228881836 33.099998474121094,13.194999694824219 32.0989990234375,13.194999694824219 C32.0989990234375,13.194999694824219 13.331000328063965,13.194999694824219 13.331000328063965,13.194999694824219 C10.529999732971191,13.194999694824219 8.260000228881836,10.925000190734863 8.260000228881836,8.12399959564209 C8.260000228881836,8.12399959564209 8.260000228881836,2.7179999351501465 8.260000228881836,2.7179999351501465 C8.260000228881836,1.718000054359436 7.448999881744385,0.906000018119812 6.447999954223633,0.906000018119812 C6.447999954223633,0.906000018119812 -5.763999938964844,0.906000018119812 -5.763999938964844,0.906000018119812 C-6.764999866485596,0.906000018119812 -7.576000213623047,1.718000054359436 -7.576000213623047,2.7179999351501465 C-7.576000213623047,2.7179999351501465 -7.576000213623047,6.186999797821045 -7.576000213623047,6.186999797821045 C-7.576000213623047,13.260000228881836 -13.307999610900879,18.992000579833984 -20.3799991607666,18.992000579833984z">
                </path>
            </g>
            <g opacity="1" transform="matrix(1,0,0,1,451.56201171875,272.87200927734375)">
                <path fill="rgb(98,171,244)" fill-opacity="1"
                    d=" M9.425000190734863,0 C9.425000190734863,-5.204999923706055 5.204999923706055,-9.425000190734863 0,-9.425000190734863 C-5.204999923706055,-9.425000190734863 -9.425000190734863,-5.204999923706055 -9.425000190734863,0 C-9.425000190734863,5.204999923706055 -5.204999923706055,9.425000190734863 0,9.425000190734863 C5.204999923706055,9.425000190734863 9.425000190734863,5.204999923706055 9.425000190734863,0z">
                </path>
                <path stroke-linecap="round" stroke-linejoin="round" fill-opacity="0" stroke="rgb(44,52,71)"
                    stroke-opacity="1" stroke-width="4"
                    d=" M9.425000190734863,0 C9.425000190734863,-5.204999923706055 5.204999923706055,-9.425000190734863 0,-9.425000190734863 C-5.204999923706055,-9.425000190734863 -9.425000190734863,-5.204999923706055 -9.425000190734863,0 C-9.425000190734863,5.204999923706055 -5.204999923706055,9.425000190734863 0,9.425000190734863 C5.204999923706055,9.425000190734863 9.425000190734863,5.204999923706055 9.425000190734863,0z">
                </path>
            </g>
            <g opacity="1" transform="matrix(1,0,0,1,451.56201171875,272.87200927734375)">
                <path fill="rgb(44,52,71)" fill-opacity="1"
                    d=" M4.440000057220459,0 C4.440000057220459,-2.4519999027252197 2.4519999027252197,-4.439000129699707 0,-4.439000129699707 C-2.453000068664551,-4.439000129699707 -4.440000057220459,-2.4519999027252197 -4.440000057220459,0 C-4.440000057220459,2.4519999027252197 -2.453000068664551,4.439000129699707 0,4.439000129699707 C2.4519999027252197,4.439000129699707 4.440000057220459,2.4519999027252197 4.440000057220459,0z">
                </path>
            </g>
            <g opacity="1" transform="matrix(1,0,0,1,386.7099914550781,217.60000610351562)">
                <path fill="rgb(98,171,244)" fill-opacity="1"
                    d=" M23.945999145507812,-29.427000045776367 C23.945999145507812,-29.427000045776367 23.945999145507812,-3.578000068664551 23.945999145507812,-3.578000068664551 C23.945999145507812,9.62600040435791 13.204000473022461,20.367000579833984 0,20.367000579833984 C-13.204000473022461,20.367000579833984 -23.947999954223633,9.62600040435791 -23.947999954223633,-3.578000068664551 C-23.947999954223633,-3.578000068664551 -23.947999954223633,-29.427000045776367 -23.947999954223633,-29.427000045776367 C-23.947999954223633,-29.427000045776367 -33.005001068115234,-29.427000045776367 -33.005001068115234,-29.427000045776367 C-33.005001068115234,-29.427000045776367 -33.005001068115234,-3.578000068664551 -33.005001068115234,-3.578000068664551 C-33.005001068115234,14.619999885559082 -18.200000762939453,29.427000045776367 0,29.427000045776367 C18.198999404907227,29.427000045776367 33.005001068115234,14.619999885559082 33.005001068115234,-3.578000068664551 C33.005001068115234,-3.578000068664551 33.005001068115234,-29.427000045776367 33.005001068115234,-29.427000045776367 C33.005001068115234,-29.427000045776367 23.945999145507812,-29.427000045776367 23.945999145507812,-29.427000045776367z">
                </path>
                <path stroke-linecap="round" stroke-linejoin="round" fill-opacity="0" stroke="rgb(44,52,71)"
                    stroke-opacity="1" stroke-width="4"
                    d=" M23.945999145507812,-29.427000045776367 C23.945999145507812,-29.427000045776367 23.945999145507812,-3.578000068664551 23.945999145507812,-3.578000068664551 C23.945999145507812,9.62600040435791 13.204000473022461,20.367000579833984 0,20.367000579833984 C-13.204000473022461,20.367000579833984 -23.947999954223633,9.62600040435791 -23.947999954223633,-3.578000068664551 C-23.947999954223633,-3.578000068664551 -23.947999954223633,-29.427000045776367 -23.947999954223633,-29.427000045776367 C-23.947999954223633,-29.427000045776367 -33.005001068115234,-29.427000045776367 -33.005001068115234,-29.427000045776367 C-33.005001068115234,-29.427000045776367 -33.005001068115234,-3.578000068664551 -33.005001068115234,-3.578000068664551 C-33.005001068115234,14.619999885559082 -18.200000762939453,29.427000045776367 0,29.427000045776367 C18.198999404907227,29.427000045776367 33.005001068115234,14.619999885559082 33.005001068115234,-3.578000068664551 C33.005001068115234,-3.578000068664551 33.005001068115234,-29.427000045776367 33.005001068115234,-29.427000045776367 C33.005001068115234,-29.427000045776367 23.945999145507812,-29.427000045776367 23.945999145507812,-29.427000045776367z">
                </path>
            </g>
            <g opacity="1" transform="matrix(1,0,0,1,371.48199462890625,155.9720001220703)">
                <path fill="rgb(89,94,116)" fill-opacity="1"
                    d=" M4.993000030517578,0 C4.993000030517578,3.7939999103546143 2.756999969482422,6.869999885559082 0,6.869999885559082 C-2.757999897003174,6.869999885559082 -4.993000030517578,3.7939999103546143 -4.993000030517578,0 C-4.993000030517578,-3.7939999103546143 -2.757999897003174,-6.869999885559082 0,-6.869999885559082 C2.756999969482422,-6.869999885559082 4.993000030517578,-3.7939999103546143 4.993000030517578,0z">
                </path>
                <path stroke-linecap="butt" stroke-linejoin="miter" fill-opacity="0" stroke-miterlimit="10"
                    stroke="rgb(44,52,71)" stroke-opacity="1" stroke-width="4"
                    d=" M4.993000030517578,0 C4.993000030517578,3.7939999103546143 2.756999969482422,6.869999885559082 0,6.869999885559082 C-2.757999897003174,6.869999885559082 -4.993000030517578,3.7939999103546143 -4.993000030517578,0 C-4.993000030517578,-3.7939999103546143 -2.757999897003174,-6.869999885559082 0,-6.869999885559082 C2.756999969482422,-6.869999885559082 4.993000030517578,-3.7939999103546143 4.993000030517578,0z">
                </path>
            </g>
            <g opacity="1" transform="matrix(1,0,0,1,401.9389953613281,155.44700622558594)">
                <path fill="rgb(89,94,116)" fill-opacity="1"
                    d=" M4.993000030517578,-0.0010000000474974513 C4.993000030517578,3.7929999828338623 2.757999897003174,6.869999885559082 0,6.869999885559082 C-2.757999897003174,6.869999885559082 -4.993000030517578,3.7929999828338623 -4.993000030517578,-0.0010000000474974513 C-4.993000030517578,-3.7950000762939453 -2.757999897003174,-6.869999885559082 0,-6.869999885559082 C2.757999897003174,-6.869999885559082 4.993000030517578,-3.7950000762939453 4.993000030517578,-0.0010000000474974513z">
                </path>
                <path stroke-linecap="butt" stroke-linejoin="miter" fill-opacity="0" stroke-miterlimit="10"
                    stroke="rgb(44,52,71)" stroke-opacity="1" stroke-width="4"
                    d=" M4.993000030517578,-0.0010000000474974513 C4.993000030517578,3.7929999828338623 2.757999897003174,6.869999885559082 0,6.869999885559082 C-2.757999897003174,6.869999885559082 -4.993000030517578,3.7929999828338623 -4.993000030517578,-0.0010000000474974513 C-4.993000030517578,-3.7950000762939453 -2.757999897003174,-6.869999885559082 0,-6.869999885559082 C2.757999897003174,-6.869999885559082 4.993000030517578,-3.7950000762939453 4.993000030517578,-0.0010000000474974513z">
                </path>
            </g>
        </g>
        <g style="display: block;"
            transform="matrix(1.2982699871063232,0,0,1.2982699871063232,-54.900604248046875,-69.26629638671875)"
            opacity="1">
            <g opacity="1" transform="matrix(1,0,0,1,239.47300720214844,250.53799438476562)">
                <path fill="rgb(218,238,255)" fill-opacity="1"
                    d=" M19.875999450683594,98.5250015258789 C19.875999450683594,98.5250015258789 0.0010000000474974513,109.66699981689453 0.0010000000474974513,109.66699981689453 C0.0010000000474974513,109.66699981689453 -19.87700080871582,98.5250015258789 -19.87700080871582,98.5250015258789 C-65.28500366210938,73.0719985961914 -93.40299987792969,25.07699966430664 -93.40299987792969,-26.97800064086914 C-93.40299987792969,-26.97800064086914 -93.40299987792969,-96.03600311279297 -93.40299987792969,-96.03600311279297 C-93.40299987792969,-96.03600311279297 0.0010000000474974513,-109.66699981689453 0.0010000000474974513,-109.66699981689453 C0.0010000000474974513,-109.66699981689453 93.4020004272461,-96.03600311279297 93.4020004272461,-96.03600311279297 C93.4020004272461,-96.03600311279297 93.4020004272461,-26.97800064086914 93.4020004272461,-26.97800064086914 C93.4020004272461,25.07699966430664 65.28399658203125,73.0719985961914 19.875999450683594,98.5250015258789z">
                </path>
            </g>
            <g opacity="1" transform="matrix(1,0,0,1,195.0919952392578,250.53799438476562)">
                <path fill="rgb(245,249,252)" fill-opacity="1"
                    d=" M33.7869987487793,98.52400207519531 C-11.621000289916992,73.0719985961914 -39.73899841308594,25.07699966430664 -39.73899841308594,-26.97800064086914 C-39.73899841308594,-26.97800064086914 -39.73899841308594,-96.03700256347656 -39.73899841308594,-96.03700256347656 C-39.73899841308594,-96.03700256347656 49.02199935913086,-108.98999786376953 49.02199935913086,-108.98999786376953 C49.02199935913086,-108.98999786376953 44.38100051879883,-109.66699981689453 44.38100051879883,-109.66699981689453 C44.38100051879883,-109.66699981689453 -49.02199935913086,-96.03700256347656 -49.02199935913086,-96.03700256347656 C-49.02199935913086,-96.03700256347656 -49.02199935913086,-26.97800064086914 -49.02199935913086,-26.97800064086914 C-49.02199935913086,25.07699966430664 -20.902999877929688,73.0719985961914 24.503999710083008,98.52400207519531 C24.503999710083008,98.52400207519531 44.38100051879883,109.66699981689453 44.38100051879883,109.66699981689453 C44.38100051879883,109.66699981689453 49.02199935913086,107.06400299072266 49.02199935913086,107.06400299072266 C49.02199935913086,107.06400299072266 33.7869987487793,98.52400207519531 33.7869987487793,98.52400207519531z">
                </path>
            </g>
            <g opacity="1" transform="matrix(1,0,0,1,239.47300720214844,249.67599487304688)">
                <path fill="rgb(98,171,244)" fill-opacity="1"
                    d=" M-12.439000129699707,80.38600158691406 C-50.07899856567383,59.28799819946289 -73.46199798583984,19.37700080871582 -73.46199798583984,-23.773000717163086 C-73.46199798583984,-23.773000717163086 -73.46199798583984,-76.63899993896484 -73.46199798583984,-76.63899993896484 C-73.46199798583984,-76.63899993896484 0,-87.36000061035156 0,-87.36000061035156 C0,-87.36000061035156 73.46199798583984,-76.63899993896484 73.46199798583984,-76.63899993896484 C73.46199798583984,-76.63899993896484 73.46199798583984,-23.773000717163086 73.46199798583984,-23.773000717163086 C73.46199798583984,19.37700080871582 50.08000183105469,59.28799819946289 12.4399995803833,80.38600158691406 C12.4399995803833,80.38600158691406 0,87.36000061035156 0,87.36000061035156 C0,87.36000061035156 -12.439000129699707,80.38600158691406 -12.439000129699707,80.38600158691406z">
                </path>
            </g>
            <g opacity="1" transform="matrix(1,0,0,1,259.25,252.75799560546875)">
                <path fill="rgb(75,159,213)" fill-opacity="1"
                    d=" M53.685001373291016,-26.854999542236328 C53.685001373291016,-26.854999542236328 53.685001373291016,-79.72100067138672 53.685001373291016,-79.72100067138672 C53.685001373291016,-79.72100067138672 22.476999282836914,-84.2760009765625 22.476999282836914,-84.2760009765625 C22.312999725341797,-59.25899887084961 16.913999557495117,34.665000915527344 -53.683998107910156,61.89500045776367 C-47.191001892089844,67.74299621582031 -40.01499938964844,72.93199920654297 -32.215999603271484,77.3030014038086 C-32.215999603271484,77.3030014038086 -19.775999069213867,84.2760009765625 -19.775999069213867,84.2760009765625 C-19.775999069213867,84.2760009765625 -7.336999893188477,77.3030014038086 -7.336999893188477,77.3030014038086 C30.302000045776367,56.20500183105469 53.685001373291016,16.29400062561035 53.685001373291016,-26.854999542236328z">
                </path>
            </g>
            <g opacity="1" transform="matrix(1,0,0,1,239.47300720214844,250.53799438476562)">
                <path stroke-linecap="round" stroke-linejoin="round" fill-opacity="0" stroke="rgb(44,52,71)"
                    stroke-opacity="1" stroke-width="4"
                    d=" M19.875999450683594,98.5250015258789 C19.875999450683594,98.5250015258789 0.0010000000474974513,109.66699981689453 0.0010000000474974513,109.66699981689453 C0.0010000000474974513,109.66699981689453 -19.87700080871582,98.5250015258789 -19.87700080871582,98.5250015258789 C-65.28500366210938,73.0719985961914 -93.40299987792969,25.07699966430664 -93.40299987792969,-26.97800064086914 C-93.40299987792969,-26.97800064086914 -93.40299987792969,-96.03600311279297 -93.40299987792969,-96.03600311279297 C-93.40299987792969,-96.03600311279297 0.0010000000474974513,-109.66699981689453 0.0010000000474974513,-109.66699981689453 C0.0010000000474974513,-109.66699981689453 93.4020004272461,-96.03600311279297 93.4020004272461,-96.03600311279297 C93.4020004272461,-96.03600311279297 93.4020004272461,-26.97800064086914 93.4020004272461,-26.97800064086914 C93.4020004272461,25.07699966430664 65.28399658203125,73.0719985961914 19.875999450683594,98.5250015258789z">
                </path>
            </g>
            <g opacity="1" transform="matrix(1,0,0,1,239.47300720214844,249.67599487304688)">
                <path stroke-linecap="round" stroke-linejoin="round" fill-opacity="0" stroke="rgb(44,52,71)"
                    stroke-opacity="1" stroke-width="4"
                    d=" M-12.439000129699707,80.38600158691406 C-50.07899856567383,59.28799819946289 -73.46199798583984,19.37700080871582 -73.46199798583984,-23.773000717163086 C-73.46199798583984,-23.773000717163086 -73.46199798583984,-76.63899993896484 -73.46199798583984,-76.63899993896484 C-73.46199798583984,-76.63899993896484 0,-87.36000061035156 0,-87.36000061035156 C0,-87.36000061035156 73.46199798583984,-76.63899993896484 73.46199798583984,-76.63899993896484 C73.46199798583984,-76.63899993896484 73.46199798583984,-23.773000717163086 73.46199798583984,-23.773000717163086 C73.46199798583984,19.37700080871582 50.08000183105469,59.28799819946289 12.4399995803833,80.38600158691406 C12.4399995803833,80.38600158691406 0,87.36000061035156 0,87.36000061035156 C0,87.36000061035156 -12.439000129699707,80.38600158691406 -12.439000129699707,80.38600158691406z">
                </path>
            </g>
            <g opacity="1" transform="matrix(1,0,0,1,239.47300720214844,234.20399475097656)">
                <path fill="rgb(255,255,255)" fill-opacity="1"
                    d=" M43.597999572753906,-17.308000564575195 C43.597999572753906,-17.308000564575195 17.308000564575195,-17.308000564575195 17.308000564575195,-17.308000564575195 C17.308000564575195,-17.308000564575195 17.308000564575195,-43.59700012207031 17.308000564575195,-43.59700012207031 C17.308000564575195,-43.59700012207031 -17.308000564575195,-43.59700012207031 -17.308000564575195,-43.59700012207031 C-17.308000564575195,-43.59700012207031 -17.308000564575195,-17.308000564575195 -17.308000564575195,-17.308000564575195 C-17.308000564575195,-17.308000564575195 -43.597999572753906,-17.308000564575195 -43.597999572753906,-17.308000564575195 C-43.597999572753906,-17.308000564575195 -43.597999572753906,17.308000564575195 -43.597999572753906,17.308000564575195 C-43.597999572753906,17.308000564575195 -17.308000564575195,17.308000564575195 -17.308000564575195,17.308000564575195 C-17.308000564575195,17.308000564575195 -17.308000564575195,43.59700012207031 -17.308000564575195,43.59700012207031 C-17.308000564575195,43.59700012207031 17.308000564575195,43.59700012207031 17.308000564575195,43.59700012207031 C17.308000564575195,43.59700012207031 17.308000564575195,17.308000564575195 17.308000564575195,17.308000564575195 C17.308000564575195,17.308000564575195 43.597999572753906,17.308000564575195 43.597999572753906,17.308000564575195 C43.597999572753906,17.308000564575195 43.597999572753906,-17.308000564575195 43.597999572753906,-17.308000564575195z">
                </path>
                <path stroke-linecap="round" stroke-linejoin="round" fill-opacity="0" stroke="rgb(44,52,71)"
                    stroke-opacity="1" stroke-width="4"
                    d=" M43.597999572753906,-17.308000564575195 C43.597999572753906,-17.308000564575195 17.308000564575195,-17.308000564575195 17.308000564575195,-17.308000564575195 C17.308000564575195,-17.308000564575195 17.308000564575195,-43.59700012207031 17.308000564575195,-43.59700012207031 C17.308000564575195,-43.59700012207031 -17.308000564575195,-43.59700012207031 -17.308000564575195,-43.59700012207031 C-17.308000564575195,-43.59700012207031 -17.308000564575195,-17.308000564575195 -17.308000564575195,-17.308000564575195 C-17.308000564575195,-17.308000564575195 -43.597999572753906,-17.308000564575195 -43.597999572753906,-17.308000564575195 C-43.597999572753906,-17.308000564575195 -43.597999572753906,17.308000564575195 -43.597999572753906,17.308000564575195 C-43.597999572753906,17.308000564575195 -17.308000564575195,17.308000564575195 -17.308000564575195,17.308000564575195 C-17.308000564575195,17.308000564575195 -17.308000564575195,43.59700012207031 -17.308000564575195,43.59700012207031 C-17.308000564575195,43.59700012207031 17.308000564575195,43.59700012207031 17.308000564575195,43.59700012207031 C17.308000564575195,43.59700012207031 17.308000564575195,17.308000564575195 17.308000564575195,17.308000564575195 C17.308000564575195,17.308000564575195 43.597999572753906,17.308000564575195 43.597999572753906,17.308000564575195 C43.597999572753906,17.308000564575195 43.597999572753906,-17.308000564575195 43.597999572753906,-17.308000564575195z">
                </path>
            </g>
        </g>
    </g>
</svg>