<svg xmlns="http://www.w3.org/2000/svg" viewBox="0 0 1000 1000" width="1000" height="1000"
    style="width: 100%; height: 100%; transform: translate3d(0,0,0);" preserveAspectRatio="xMidYMid meet">
    <defs>
        <clipPath id="__lottie_element_2">
            <rect width="1000" height="1000" x="0" y="0"></rect>
        </clipPath>
    </defs>
    <g clip-path="url(#__lottie_element_2)">
        <g style="display: block;"
            transform="matrix(1.184999942779541,0,0,1.184999942779541,570.6799926757812,515.1649780273438)" opacity="1">
            <g opacity="1" transform="matrix(1,0,0,1,0,0)">
                <path fill="rgb(23,45,87)" fill-opacity="1"
                    d=" M-76.5,-336.5 C-100,-336.25 -106.75,-325.375 -111.125,-315 C-114.90499877929688,-306.0369873046875 -112,-280.75 -106.5,-270 C-101.99500274658203,-261.19500732421875 -85.5,-242.25 -69,-237.75 C-48.222999572753906,-232.08299255371094 -28.51300048828125,-229.31399536132812 -7.125,-233.75 C6.854000091552734,-236.6490020751953 9.425000190734863,-242.1219940185547 18.990999221801758,-245.052001953125 C20.972999572753906,-245.65899658203125 23.253999710083008,-246.15699768066406 26,-246.5 C37.435001373291016,-247.9290008544922 52,-243.75 52,-243.75 C52,-243.75 49,-257.375 29.875,-267.125 C14.472000122070312,-274.97698974609375 -0.5090000033378601,-267.34600830078125 -15.125,-272.125 C-23.590999603271484,-274.89300537109375 -22.625,-282.125 -31.625,-288.875 C-33.10499954223633,-289.9849853515625 -36.375,-294.625 -32.75,-292.875 C-32,-292.625 -23,-288.25 -16.125,-290.75 C-11.793000221252441,-292.32501220703125 -4.5,-290.25 -4.5,-290.25 C-4.5,-290.25 -8.8100004196167,-294.8190002441406 -14.793999671936035,-294.6029968261719 C-21.125,-294.375 -24.625,-295.125 -29.125,-296.875 C-35.29399871826172,-299.27398681640625 -35.875,-305.5 -35.875,-305.5 C-35.875,-305.5 -39,-316.875 -47.75,-325.625 C-56.5,-334.375 -66.85299682617188,-336.6029968261719 -76.5,-336.5z">
                </path>
                <path stroke-linecap="butt" stroke-linejoin="miter" fill-opacity="0" stroke-miterlimit="4"
                    stroke="rgb(255,255,255)" stroke-opacity="1" stroke-width="0"
                    d=" M-76.5,-336.5 C-100,-336.25 -106.75,-325.375 -111.125,-315 C-114.90499877929688,-306.0369873046875 -112,-280.75 -106.5,-270 C-101.99500274658203,-261.19500732421875 -85.5,-242.25 -69,-237.75 C-48.222999572753906,-232.08299255371094 -28.51300048828125,-229.31399536132812 -7.125,-233.75 C6.854000091552734,-236.6490020751953 9.425000190734863,-242.1219940185547 18.990999221801758,-245.052001953125 C20.972999572753906,-245.65899658203125 23.253999710083008,-246.15699768066406 26,-246.5 C37.435001373291016,-247.9290008544922 52,-243.75 52,-243.75 C52,-243.75 49,-257.375 29.875,-267.125 C14.472000122070312,-274.97698974609375 -0.5090000033378601,-267.34600830078125 -15.125,-272.125 C-23.590999603271484,-274.89300537109375 -22.625,-282.125 -31.625,-288.875 C-33.10499954223633,-289.9849853515625 -36.375,-294.625 -32.75,-292.875 C-32,-292.625 -23,-288.25 -16.125,-290.75 C-11.793000221252441,-292.32501220703125 -4.5,-290.25 -4.5,-290.25 C-4.5,-290.25 -8.8100004196167,-294.8190002441406 -14.793999671936035,-294.6029968261719 C-21.125,-294.375 -24.625,-295.125 -29.125,-296.875 C-35.29399871826172,-299.27398681640625 -35.875,-305.5 -35.875,-305.5 C-35.875,-305.5 -39,-316.875 -47.75,-325.625 C-56.5,-334.375 -66.85299682617188,-336.6029968261719 -76.5,-336.5z">
                </path>
            </g>
        </g>
        <g style="display: block;"
            transform="matrix(0.9266082048416138,0.31905680894851685,-0.31905680894851685,0.9266082048416138,498.6000061035156,502.5)"
            opacity="1">
            <g opacity="1" transform="matrix(1,0,0,1,0,0)">
                <path fill="rgb(0,148,135)" fill-opacity="1"
                    d=" M-47,-252.5 C-54.76100158691406,-256.0480041503906 -71.5,-257 -71.5,-257 C-71.5,-257 -90.375,-254.5 -90.375,-254.5 C-90.375,-254.5 -96.5,-253.125 -96.5,-253.125 C-96.5,-253.125 -102.375,-253.125 -105,-251 C-107.625,-248.875 -111.125,-244.375 -111.125,-244.375 C-111.125,-244.375 -116.375,-245.125 -120.75,-243.5 C-125.125,-241.875 -135.375,-232.125 -136.625,-230 C-137.875,-227.875 -138.875,-224.75 -137.875,-223.375 C-136.875,-222 -117,-214.5 -104.75,-184 C-92.5,-153.5 -84.25,-126.25 -54,-106 C-23.75,-85.75 3.75,-75.5 21.25,-14.75 C38.75,46 45.5,106.75 45.5,119.5 C45.5,132.25 50,156 57,161.75 C64,167.5 42.25,145.75 84,117.75 C107.0989990234375,102.25800323486328 131.75,79.5 119.5,81 C107.25,82.5 82,104.25 80.25,95 C78.5,85.75 76.77899932861328,36.231998443603516 150,29 C170.25,27 175.8209991455078,2.1029999256134033 184.75,0.75 C209.5,-3 165.5,38.5 177.5,39.5 C189.5,40.5 220.25,-22.5 228.25,-40 C236.25,-57.5 253,-60.25 254,-53 C255,-45.75 256.25,-4.75 261,-16 C265.75,-27.25 261,-69.25 297.75,-91 C317.822998046875,-102.87999725341797 345.25,-100.25 345.25,-100.25 C345.25,-100.25 328,-108.75 328,-108.75 C328,-108.75 339.3179931640625,-144.37399291992188 372,-128.5 C398.25,-115.75 410.125,-124.375 410.125,-124.375 C410.125,-124.375 377.875,-128.25 349.5,-160.5 C330.87200927734375,-181.6719970703125 262.0119934082031,-207.9239959716797 204.25,-171.75 C154.75,-140.75 77.95700073242188,-133.24200439453125 51.625,-165.625 C22.25,-201.75 -1.875,-225.25 -12.875,-232.75 C-26.124000549316406,-241.7830047607422 -38.25,-248.5 -47,-252.5z">
                </path>
                <path stroke-linecap="butt" stroke-linejoin="miter" fill-opacity="0" stroke-miterlimit="4"
                    stroke="rgb(255,255,255)" stroke-opacity="1" stroke-width="0"
                    d=" M-47,-252.5 C-54.76100158691406,-256.0480041503906 -71.5,-257 -71.5,-257 C-71.5,-257 -90.375,-254.5 -90.375,-254.5 C-90.375,-254.5 -96.5,-253.125 -96.5,-253.125 C-96.5,-253.125 -102.375,-253.125 -105,-251 C-107.625,-248.875 -111.125,-244.375 -111.125,-244.375 C-111.125,-244.375 -116.375,-245.125 -120.75,-243.5 C-125.125,-241.875 -135.375,-232.125 -136.625,-230 C-137.875,-227.875 -138.875,-224.75 -137.875,-223.375 C-136.875,-222 -117,-214.5 -104.75,-184 C-92.5,-153.5 -84.25,-126.25 -54,-106 C-23.75,-85.75 3.75,-75.5 21.25,-14.75 C38.75,46 45.5,106.75 45.5,119.5 C45.5,132.25 50,156 57,161.75 C64,167.5 42.25,145.75 84,117.75 C107.0989990234375,102.25800323486328 131.75,79.5 119.5,81 C107.25,82.5 82,104.25 80.25,95 C78.5,85.75 76.77899932861328,36.231998443603516 150,29 C170.25,27 175.8209991455078,2.1029999256134033 184.75,0.75 C209.5,-3 165.5,38.5 177.5,39.5 C189.5,40.5 220.25,-22.5 228.25,-40 C236.25,-57.5 253,-60.25 254,-53 C255,-45.75 256.25,-4.75 261,-16 C265.75,-27.25 261,-69.25 297.75,-91 C317.822998046875,-102.87999725341797 345.25,-100.25 345.25,-100.25 C345.25,-100.25 328,-108.75 328,-108.75 C328,-108.75 339.3179931640625,-144.37399291992188 372,-128.5 C398.25,-115.75 410.125,-124.375 410.125,-124.375 C410.125,-124.375 377.875,-128.25 349.5,-160.5 C330.87200927734375,-181.6719970703125 262.0119934082031,-207.9239959716797 204.25,-171.75 C154.75,-140.75 77.95700073242188,-133.24200439453125 51.625,-165.625 C22.25,-201.75 -1.875,-225.25 -12.875,-232.75 C-26.124000549316406,-241.7830047607422 -38.25,-248.5 -47,-252.5z">
                </path>
            </g>
        </g>
        <g style="display: block;"
            transform="matrix(0.4699999988079071,0,0,0.4699999988079071,249.60006713867188,236.99990844726562)"
            opacity="1">
            <g opacity="1" transform="matrix(1,0,0,1,841.1799926757812,109.5510025024414)">
                <path fill="rgb(204,204,204)" fill-opacity="1"
                    d=" M52.86399841308594,-19.690000534057617 C47.13600158691406,-15.244000434875488 -36.66699981689453,25.29199981689453 -45.858001708984375,29.110000610351562 C-47.66400146484375,29.86199951171875 -56.68000030517578,26.875 -51.57899856567383,22.559999465942383 C-32.529998779296875,6.418000221252441 35.20500183105469,-25.889999389648438 44.13800048828125,-28.615999221801758 C55.472999572753906,-32.07500076293945 52.86399841308594,-19.690000534057617 52.86399841308594,-19.690000534057617z">
                </path>
            </g>
            <g opacity="1" transform="matrix(1,0,0,1,886.3679809570312,77.31700134277344)">
                <path fill="rgb(21,86,113)" fill-opacity="1"
                    d=" M-27.517000198364258,3.428999900817871 C-15.01099967956543,-2.806999921798706 22.450000762939453,-18.77199935913086 32.513999938964844,-15.536999702453613 C42.57600021362305,-12.29699993133545 19.076000213623047,6.816999912261963 4.497000217437744,15.434000015258789 C-1.312999963760376,18.867000579833984 -6.656000137329102,4.5329999923706055 -6.656000137329102,4.5329999923706055 C-6.656000137329102,4.5329999923706055 -25.934999465942383,13.571999549865723 -31.69099998474121,13.458000183105469 C-37.446998596191406,13.343999862670898 -35.26499938964844,7.289999961853027 -27.517000198364258,3.428999900817871z">
                </path>
            </g>
        </g>
        <g style="display: block;"
            transform="matrix(0.4699999988079071,0,0,0.4699999988079071,479.1020202636719,247.56900024414062)"
            opacity="1">
            <g opacity="1" transform="matrix(1,0,0,1,0,0)">
                <path fill="rgb(0,142,128)" fill-opacity="1"
                    d=" M-80.4489974975586,-11.75 C-80.4489974975586,-11.75 -77.15499877929688,-18.89699935913086 -77.15499877929688,-18.89699935913086 C-77.15499877929688,-18.89699935913086 -68.41600036621094,-22.378999710083008 -44.292999267578125,-12.621999740600586 C-20.16900062561035,-2.865000009536743 27.023000717163086,-6.126999855041504 35.19499969482422,-8.940999984741211 C56.27199935913086,-16.198999404907227 76.81999969482422,-17.65999984741211 80.01899719238281,-15.621999740600586 C83.21800231933594,-13.583999633789062 68.18900299072266,3.3420000076293945 48.20100021362305,15.564000129699707 C28.21299934387207,27.785999298095703 -61.071998596191406,9.553000450134277 -80.4489974975586,-11.75z">
                </path>
            </g>
        </g>
        <g style="display: block;"
            transform="matrix(0.4699999988079071,0,0,0.4699999988079071,482.0970153808594,621.364990234375)"
            opacity="1">
            <g opacity="1" transform="matrix(1,0,0,1,0,0)">
                <path fill="rgb(255,165,126)" fill-opacity="1"
                    d=" M-137.41600036621094,-287.1000061035156 C-137.41600036621094,-287.1000061035156 -147.04400634765625,-216.68800354003906 -148.2270050048828,-167.99600219726562 C-149.41000366210938,-119.30400085449219 -116.9020004272461,-53.551998138427734 -87.16699981689453,-7.35699987411499 C-57.43299865722656,38.8380012512207 28.888999938964844,141.62600708007812 56.79499816894531,173.16099548339844 C84.70099639892578,204.6959991455078 93.0989990234375,260.11700439453125 106.80000305175781,297.802001953125 C120.5009994506836,335.4880065917969 125.2509994506836,340.47601318359375 136.69200134277344,337.5060119628906 C148.1320037841797,334.5360107421875 153.86199951171875,232.36099243164062 140.63499450683594,175.197998046875 C127.40699768066406,118.03500366210938 113.0469970703125,128.41700744628906 95.62000274658203,112.0719985961914 C78.19300079345703,95.72699737548828 23.197999954223633,-12.795999526977539 -8.059000015258789,-59.02799987792969 C-39.316001892089844,-105.26000213623047 -45.7140007019043,-149.38600158691406 -20.812999725341797,-251.8470001220703 C4.086999893188477,-354.3070068359375 -103.24500274658203,-365.0350036621094 -137.41600036621094,-287.1000061035156z">
                </path>
            </g>
        </g>
        <g style="display: block;"
            transform="matrix(0.4699999988079071,0,0,0.4699999988079071,499.38299560546875,686.9749755859375)"
            opacity="1">
            <g opacity="1" transform="matrix(1,0,0,1,0,0)">
                <path fill="rgb(0,142,128)" fill-opacity="1"
                    d=" M70.02200317382812,158.20599365234375 C83.7229995727539,195.89199829101562 88.4729995727539,200.87899780273438 99.91400146484375,197.90899658203125 C111.35399627685547,194.93899536132812 117.08399963378906,92.76300048828125 103.85700225830078,35.60100173950195 C90.62899780273438,-21.562000274658203 76.26899719238281,-11.180000305175781 58.84199905395508,-27.524999618530273 C41.415000915527344,-43.869998931884766 -13.579999923706055,-152.39300537109375 -44.83700180053711,-198.625 C-62.749000549316406,-132.49099731445312 -111.45899963378906,-128.78799438476562 -111.4800033569336,-128.78599548339844 C-74.96199798583984,-77.86499786376953 -4.6539998054504395,5.683000087738037 20.01799964904785,33.56399917602539 C47.92399978637695,65.0989990234375 56.32099914550781,120.5199966430664 70.02200317382812,158.20599365234375z">
                </path>
            </g>
        </g>
        <g style="display: block;"
            transform="matrix(0.4699999988079071,0,0,0.4699999988079071,517.3170166015625,673.8469848632812)"
            opacity="1">
            <g opacity="1" transform="matrix(1,0,0,1,0,0)">
                <path fill="rgb(255,165,126)" fill-opacity="1"
                    d=" M-64.77400207519531,-381.781005859375 C-64.77400207519531,-381.781005859375 -65.30899810791016,-234.41200256347656 -64.96399688720703,-198.4720001220703 C-64.61900329589844,-162.53199768066406 -61.0880012512207,-32.117000579833984 -60.48899841308594,18.44499969482422 C-59.89099884033203,69.00800323486328 -58.779998779296875,198.7550048828125 -57.380001068115234,241.4199981689453 C-55.98099899291992,284.0849914550781 -52.88600158691406,357.24200439453125 -37.354000091552734,394.7690124511719 C-21.82200050354004,432.2959899902344 -2.1579999923706055,374.9179992675781 5.113999843597412,351.3429870605469 C12.38599967956543,327.76800537109375 27.20800018310547,244.08399963378906 20.97100067138672,225.05299377441406 C14.734000205993652,206.02200317382812 1.5360000133514404,197.78399658203125 3.2709999084472656,176.51100158691406 C5.00600004196167,155.23800659179688 14.430000305175781,39.55099868774414 30.115999221801758,-73.7509994506836 C45.801998138427734,-187.052001953125 74.2490005493164,-355.260986328125 62.17100143432617,-392.9070129394531 C50.09400177001953,-430.5539855957031 -64.77400207519531,-381.781005859375 -64.77400207519531,-381.781005859375z">
                </path>
            </g>
        </g>
        <g style="display: block;"
            transform="matrix(0.4699999988079071,0,0,0.4699999988079071,508.37799072265625,764.8729858398438)"
            opacity="1">
            <g opacity="1" transform="matrix(1,0,0,1,0,0)">
                <path fill="rgb(0,169,157)" fill-opacity="1"
                    d=" M-38.361000061035156,47.749000549316406 C-36.96200180053711,90.41400146484375 -33.86800003051758,163.57000732421875 -18.336000442504883,201.0970001220703 C-2.803999900817871,238.62399291992188 16.860000610351562,181.24600219726562 24.131999969482422,157.67100524902344 C31.40399932861328,134.0959930419922 46.22700119018555,50.41299819946289 39.9900016784668,31.381999969482422 C33.75299835205078,12.35099983215332 20.554000854492188,4.11299991607666 22.288999557495117,-17.15999984741211 C23.74799919128418,-35.04499816894531 30.64299964904785,-119.66999816894531 42.124000549316406,-213.50100708007812 C4.251999855041504,-204.0330047607422 -24.405000686645508,-208.36500549316406 -42.124000549316406,-213.25900268554688 C-41.82400131225586,-198.3679962158203 -41.59000015258789,-185.2220001220703 -41.47100067138672,-175.2259979248047 C-40.87300109863281,-124.66300201416016 -39.76100158691406,5.084000110626221 -38.361000061035156,47.749000549316406z">
                </path>
            </g>
        </g>
        <g style="mix-blend-mode: soft-light; display: block;"
            transform="matrix(0.4699999988079071,0,0,0.4699999988079071,501.3009948730469,608.0460205078125)"
            opacity="1">
            <g style="mix-blend-mode: soft-light;" opacity="1" transform="matrix(1,0,0,1,0,0)">
                <path stroke-linecap="butt" stroke-linejoin="miter" fill-opacity="0" stroke-miterlimit="10"
                    stroke="rgb(33,6,28)" stroke-opacity="1" stroke-width="0.587"
                    d=" M-4.053999900817871,-11.85099983215332 C-4.053999900817871,-11.85099983215332 -1.0609999895095825,1.3739999532699585 4.053999900817871,11.85099983215332">
                </path>
            </g>
        </g>
        <g style="mix-blend-mode: soft-light; display: block;"
            transform="matrix(0.4699999988079071,0,0,0.4699999988079071,517.1610107421875,609.7050170898438)"
            opacity="1">
            <g style="mix-blend-mode: soft-light;" opacity="1" transform="matrix(1,0,0,1,0,0)">
                <path stroke-linecap="butt" stroke-linejoin="miter" fill-opacity="0" stroke-miterlimit="10"
                    stroke="rgb(33,6,28)" stroke-opacity="1" stroke-width="0.587"
                    d=" M6.418000221252441,-10.755000114440918 C6.418000221252441,-10.755000114440918 0.7549999952316284,1.562999963760376 -6.418000221252441,10.755000114440918">
                </path>
            </g>
        </g>
        <g style="mix-blend-mode: soft-light; display: block;"
            transform="matrix(0.4699999988079071,0,0,0.4699999988079071,438.45001220703125,577.1419677734375)"
            opacity="1">
            <g style="mix-blend-mode: soft-light;" opacity="1" transform="matrix(1,0,0,1,0,0)">
                <path stroke-linecap="butt" stroke-linejoin="miter" fill-opacity="0" stroke-miterlimit="10"
                    stroke="rgb(33,6,28)" stroke-opacity="1" stroke-width="0.587"
                    d=" M0.6679999828338623,-12.503999710083008 C0.6679999828338623,-12.503999710083008 1.340999960899353,1.0369999408721924 -0.7699999809265137,12.503999710083008">
                </path>
            </g>
        </g>
        <g style="display: block;"
            transform="matrix(0.4699999988079071,0,0,0.4699999988079071,481.0790100097656,200.96499633789062)"
            opacity="1">
            <g opacity="1" transform="matrix(1,0,0,1,0,0)">
                <path fill="rgb(255,165,126)" fill-opacity="1"
                    d=" M-1.6890000104904175,-135.63299560546875 C-1.6890000104904175,-135.63299560546875 -48.025001525878906,-133.50999450683594 -63.9370002746582,-113.59700012207031 C-79.8489990234375,-93.68299865722656 -79.7040023803711,-32.77799987792969 -77.22699737548828,-1.0490000247955322 C-74.75,30.68000030517578 -66.33599853515625,51.99599838256836 -32.44900131225586,60.939998626708984 C-32.44900131225586,60.939998626708984 -24.902000427246094,107.00299835205078 -44.518001556396484,106.5260009765625 C-64.13400268554688,106.04900360107422 -33.430999755859375,134.8090057373047 -1.781000018119812,135.5780029296875 C29.868999481201172,136.3470001220703 66.58599853515625,129.11900329589844 78.45999908447266,108.29499816894531 C78.45999908447266,108.29499816894531 48.70899963378906,96.20500183105469 48.40999984741211,75.08499908447266 C48.111000061035156,53.96500015258789 52.54100036621094,5.35099983215332 54.83399963378906,-22.201000213623047 C57.12699890136719,-49.75400161743164 63.71500015258789,-86.9469985961914 58.566001892089844,-108.99700164794922 C53.417999267578125,-131.04600524902344 -1.6890000104904175,-135.63299560546875 -1.6890000104904175,-135.63299560546875z">
                </path>
            </g>
        </g>
        <g style="display: block;"
            transform="matrix(0.4699999988079071,0,0,0.4699999988079071,514.5870361328125,183.75399780273438)"
            opacity="1">
            <g opacity="1" transform="matrix(1,0,0,1,0,0)">
                <path fill="rgb(255,165,126)" fill-opacity="1"
                    d=" M-21.315000534057617,-6.7210001945495605 C-21.315000534057617,-6.7210001945495605 -14.8149995803833,-11.178999900817871 -14.8149995803833,-11.178999900817871 C-14.8149995803833,-11.178999900817871 -5.498000144958496,-29.976999282836914 8.982000350952148,-29.625 C23.461999893188477,-29.273000717163086 31.000999450683594,-12.211000442504883 28.7450008392334,4.4079999923706055 C26.42300033569336,21.510000228881836 15.15999984741211,30.006000518798828 -0.8450000286102295,29.617000579833984 C-20.65999984741211,29.13599967956543 -29.138999938964844,1.4769999980926514 -29.138999938964844,1.4769999980926514 C-29.138999938964844,1.4769999980926514 -21.315000534057617,-6.7210001945495605 -21.315000534057617,-6.7210001945495605z">
                </path>
            </g>
        </g>
        <g style="display: block;"
            transform="matrix(0.4699999988079071,0,0,0.4699999988079071,479.2860107421875,480.3869934082031)"
            opacity="1">
            <g opacity="1" transform="matrix(1,0,0,1,0,0)">
                <path fill="rgb(1,179,197)" fill-opacity="1"
                    d=" M-76.33300018310547,-199.6510009765625 C-76.33300018310547,-199.6510009765625 -82.86799621582031,-151.65699768066406 -104.1719970703125,-89.60399627685547 C-121.7959976196289,-38.26900100708008 -142.8179931640625,23.947999954223633 -147.8780059814453,163.6490020751953 C-147.8780059814453,163.6490020751953 -81.45500183105469,186.65699768066406 3.75600004196167,195.5290069580078 C81,203.57200622558594 116.73400115966797,201.0590057373047 145.01199340820312,190.24000549316406 C145.01199340820312,190.24000549316406 153.30299377441406,49.48500061035156 141.6820068359375,-23.67300033569336 C130.06100463867188,-96.83000183105469 102.26599884033203,-155.9980010986328 96.03299713134766,-200.25799560546875 C96.03299713134766,-200.25799560546875 -0.41100001335144043,-141.09100341796875 -0.41100001335144043,-141.09100341796875 C-0.41100001335144043,-141.09100341796875 -76.33300018310547,-199.6510009765625 -76.33300018310547,-199.6510009765625z">
                </path>
            </g>
        </g>
        <g style="display: block;"
            transform="matrix(0.4699999988079071,0,0,0.4699999988079071,476.0830078125,318.78997802734375)" opacity="1">
            <g opacity="1" transform="matrix(1,0,0,1,0,0)">
                <path fill="rgb(1,179,197)" fill-opacity="1"
                    d=" M-20.54599952697754,-177.9409942626953 C-20.54599952697754,-177.9409942626953 14.76200008392334,-157.9969940185547 59.04800033569336,-176.00799560546875 C59.04800033569336,-176.00799560546875 67.26599884033203,-146.58099365234375 102.01399993896484,-139.64599609375 C136.76300048828125,-132.71200561523438 164.35499572753906,-132.04200744628906 188.41799926757812,-86.38999938964844 C212.48199462890625,-40.737998962402344 209.18299865722656,28.20400047302246 266.8429870605469,44.62699890136719 C266.8429870605469,44.62699890136719 276.1029968261719,114.68499755859375 248.38299560546875,119.29000091552734 C220.66200256347656,123.8949966430664 196.77999877929688,104.23100280761719 176.69700622558594,78.57099914550781 C156.61399841308594,52.90999984741211 129.50100708007812,-0.9350000023841858 129.50100708007812,-0.9350000023841858 C129.50100708007812,-0.9350000023841858 125.33000183105469,53.775001525878906 106.9260025024414,92.71099853515625 C88.52100372314453,131.64599609375 5.381999969482422,177.9409942626953 5.381999969482422,177.9409942626953 C5.381999969482422,177.9409942626953 -64.93399810791016,130.96299743652344 -72.16600036621094,102.77300262451172 C-79.39800262451172,74.58200073242188 -81.64099884033203,66.61100006103516 -87.98100280761719,51.840999603271484 C-94.32099914550781,37.07099914550781 -102.38099670410156,14.340999603271484 -103.25800323486328,0.31200000643730164 C-103.25800323486328,0.31200000643730164 -154.1719970703125,94.08200073242188 -223.48500061035156,89.35299682617188 C-292.7980041503906,84.6240005493164 -266.20098876953125,17.66900062561035 -246.01199340820312,13.895999908447266 C-225.822998046875,10.123000144958496 -198.27099609375,4.09499979019165 -175.85899353027344,-41.0369987487793 C-153.44700622558594,-86.16899871826172 -147.6199951171875,-131.0540008544922 -93.72899627685547,-137.7030029296875 C-39.8390007019043,-144.3520050048828 -22.798999786376953,-146.32200622558594 -20.54599952697754,-177.9409942626953z">
                </path>
            </g>
        </g>
        <g style="display: block;" transform="matrix(0.4699999988079071,0,0,0.4699999988079071,484.6000061035156,472)"
            opacity="1">
            <g opacity="1" transform="matrix(1,0,0,1,0,0)">
                <path stroke-linecap="butt" stroke-linejoin="miter" fill-opacity="0" stroke-miterlimit="10"
                    stroke="rgb(33,6,28)" stroke-opacity="1" stroke-width="0.587"
                    d=" M-38.66699981689453,-503.9200134277344 C-38.66699981689453,-503.9200134277344 -3.3589999675750732,-483.9750061035156 40.926998138427734,-501.9859924316406 C40.926998138427734,-501.9859924316406 49.14500045776367,-472.5589904785156 83.89299774169922,-465.6239929199219 C118.64199829101562,-458.69000244140625 146.23399353027344,-458.0199890136719 170.2969970703125,-412.3680114746094 C194.36099243164062,-366.71600341796875 191.06199645996094,-297.7749938964844 248.7220001220703,-281.35198974609375 C248.7220001220703,-281.35198974609375 257.98199462890625,-211.29400634765625 230.26199340820312,-206.68899536132812 C202.54100036621094,-202.08399963378906 178.65899658203125,-221.7469940185547 158.5760040283203,-247.40699768066406 C138.4929962158203,-273.0679931640625 111.37999725341797,-326.91400146484375 111.37999725341797,-326.91400146484375 C111.37999725341797,-326.91400146484375 107.20899963378906,-272.2030029296875 88.80500030517578,-233.26699829101562 C70.4000015258789,-194.33200073242188 -12.73799991607666,-148.03700256347656 -12.73799991607666,-148.03700256347656 C-12.73799991607666,-148.03700256347656 -83.05500030517578,-195.01499938964844 -90.28700256347656,-223.2050018310547 C-97.51899719238281,-251.39599609375 -99.76200103759766,-259.36700439453125 -106.10199737548828,-274.1369934082031 C-112.44200134277344,-288.9070129394531 -120.5009994506836,-311.6369934082031 -121.37799835205078,-325.6659851074219 C-121.37799835205078,-325.6659851074219 -172.29200744628906,-231.89599609375 -241.60499572753906,-236.625 C-310.9179992675781,-241.35400390625 -284.3219909667969,-308.3089904785156 -264.13299560546875,-312.0820007324219 C-243.94400024414062,-315.8550109863281 -216.39199829101562,-321.8840026855469 -193.97999572753906,-367.0159912109375 C-171.5679931640625,-412.14801025390625 -165.74099731445312,-457.0320129394531 -111.8499984741211,-463.6809997558594 C-57.959999084472656,-470.3299865722656 -40.91999816894531,-472.3009948730469 -38.66699981689453,-503.9200134277344z M-112.8280029296875,-398.37701416015625 C-112.8280029296875,-398.37701416015625 -127.56099700927734,-352.0369873046875 -122.3030014038086,-317.80499267578125">
                </path>
            </g>
            <g opacity="1" transform="matrix(1,0,0,1,0,0)">
                <path stroke-linecap="butt" stroke-linejoin="miter" fill-opacity="0" stroke-miterlimit="10"
                    stroke="rgb(33,6,28)" stroke-opacity="1" stroke-width="0.587"
                    d=" M-38.66699981689453,-503.9200134277344 C-38.66699981689453,-503.9200134277344 -3.3589999675750732,-483.9750061035156 40.926998138427734,-501.9859924316406 C40.926998138427734,-501.9859924316406 49.14500045776367,-472.5589904785156 83.89299774169922,-465.6239929199219 C118.64199829101562,-458.69000244140625 146.23399353027344,-458.0199890136719 170.2969970703125,-412.3680114746094 C194.36099243164062,-366.71600341796875 191.06199645996094,-297.7749938964844 248.7220001220703,-281.35198974609375 C248.7220001220703,-281.35198974609375 257.98199462890625,-211.29400634765625 230.26199340820312,-206.68899536132812 C202.54100036621094,-202.08399963378906 178.65899658203125,-221.7469940185547 158.5760040283203,-247.40699768066406 C138.4929962158203,-273.0679931640625 111.37999725341797,-326.91400146484375 111.37999725341797,-326.91400146484375 C111.37999725341797,-326.91400146484375 107.20899963378906,-272.2030029296875 88.80500030517578,-233.26699829101562 C70.4000015258789,-194.33200073242188 -12.73799991607666,-148.03700256347656 -12.73799991607666,-148.03700256347656 C-12.73799991607666,-148.03700256347656 -83.05500030517578,-195.01499938964844 -90.28700256347656,-223.2050018310547 C-97.51899719238281,-251.39599609375 -99.76200103759766,-259.36700439453125 -106.10199737548828,-274.1369934082031 C-112.44200134277344,-288.9070129394531 -120.5009994506836,-311.6369934082031 -121.37799835205078,-325.6659851074219 C-121.37799835205078,-325.6659851074219 -172.29200744628906,-231.89599609375 -241.60499572753906,-236.625 C-310.9179992675781,-241.35400390625 -284.3219909667969,-308.3089904785156 -264.13299560546875,-312.0820007324219 C-243.94400024414062,-315.8550109863281 -216.39199829101562,-321.8840026855469 -193.97999572753906,-367.0159912109375 C-171.5679931640625,-412.14801025390625 -165.74099731445312,-457.0320129394531 -111.8499984741211,-463.6809997558594 C-57.959999084472656,-470.3299865722656 -40.91999816894531,-472.3009948730469 -38.66699981689453,-503.9200134277344z M109.23600006103516,-383.72601318359375 C109.23600006103516,-383.72601318359375 113.177001953125,-340.7449951171875 111.81400299072266,-315.40301513671875">
                </path>
            </g>
        </g>
        <g style="display: block;"
            transform="matrix(0.4699999988079071,0,0,0.4699999988079071,333.33599853515625,275.2869873046875)"
            opacity="1">
            <g opacity="1" transform="matrix(1,0,0,1,0,0)">
                <path fill="rgb(171,27,55)" fill-opacity="1"
                    d=" M8.390000343322754,1.503000020980835 C9.487000465393066,-4.619999885559082 6.61899995803833,-10.256999969482422 1.9850000143051147,-11.086999893188477 C-2.6489999294281006,-11.916999816894531 -7.293000221252441,-7.625999927520752 -8.390000343322754,-1.503000020980835 C-9.487000465393066,4.619999885559082 -6.619999885559082,10.256999969482422 -1.9859999418258667,11.086999893188477 C2.6480000019073486,11.916999816894531 7.293000221252441,7.625999927520752 8.390000343322754,1.503000020980835z">
                </path>
            </g>
        </g>
        <g style="display: block;"
            transform="matrix(0.4699999988079071,0,0,0.4699999988079071,339.39501953125,306.8739929199219)" opacity="1">
            <g opacity="1" transform="matrix(1,0,0,1,0,0)">
                <path fill="rgb(235,235,235)" fill-opacity="1"
                    d=" M76.59400177001953,23.58799934387207 C76.59400177001953,23.58799934387207 113.93800354003906,76.86199951171875 72.10800170898438,119.08599853515625 C72.10800170898438,119.08599853515625 18.384000778198242,124.47899627685547 -16.757999420166016,91.95700073242188 C-51.900001525878906,59.435001373291016 -72.68800354003906,12.645000457763672 -85.19100189208984,-24.200000762939453 C-97.69400024414062,-61.04499816894531 -90.25900268554688,-91.31400299072266 -83.37200164794922,-99.06400299072266 C-76.48500061035156,-106.81400299072266 -70.16100311279297,-116.40499877929688 -61.729000091552734,-112.5459976196289 C-61.729000091552734,-112.5459976196289 -50.47800064086914,-124.4530029296875 -41.525001525878906,-116.927001953125 C-41.525001525878906,-116.927001953125 -31.667999267578125,-121.55999755859375 -25.312999725341797,-107.39800262451172 C-25.312999725341797,-107.39800262451172 -12.472000122070312,-109.52300262451172 -9.1899995803833,-94.21700286865234 C-5.9079999923706055,-78.91200256347656 -19.579999923706055,-67.6729965209961 -19.579999923706055,-67.6729965209961 C-19.579999923706055,-67.6729965209961 -0.35100001096725464,-31.882999420166016 -15.284000396728516,-18.847000122070312 C-15.284000396728516,-18.847000122070312 33.236000061035156,47.48899841308594 76.59400177001953,23.58799934387207z">
                </path>
            </g>
        </g>
        <g style="mix-blend-mode: soft-light; display: block;"
            transform="matrix(0.4699999988079071,0,0,0.4699999988079071,329.6340026855469,268.614013671875)"
            opacity="1">
            <g style="mix-blend-mode: soft-light;" opacity="1" transform="matrix(1,0,0,1,0,0)">
                <path stroke-linecap="butt" stroke-linejoin="miter" fill-opacity="0" stroke-miterlimit="10"
                    stroke="rgb(33,6,28)" stroke-opacity="1" stroke-width="0.587"
                    d=" M-5.416999816894531,9.916999816894531 C-5.416999816894531,9.916999816894531 5.254000186920166,-3.2219998836517334 5.416999816894531,-9.916999816894531">
                </path>
            </g>
        </g>
        <g style="mix-blend-mode: soft-light; display: block;"
            transform="matrix(0.4699999988079071,0,0,0.4699999988079071,329.541015625,272.958984375)" opacity="1">
            <g style="mix-blend-mode: soft-light;" opacity="1" transform="matrix(1,0,0,1,0,0)">
                <path stroke-linecap="butt" stroke-linejoin="miter" fill-opacity="0" stroke-miterlimit="10"
                    stroke="rgb(33,6,28)" stroke-opacity="1" stroke-width="0.587"
                    d=" M1.3860000371932983,4.486000061035156 C1.3860000371932983,4.486000061035156 -1.3860000371932983,-4.486000061035156 -1.3860000371932983,-4.486000061035156">
                </path>
            </g>
        </g>
        <g style="display: block;"
            transform="matrix(0.4699999988079071,0,0,0.4699999988079071,638.6890258789062,297.7749938964844)"
            opacity="1">
            <g opacity="1" transform="matrix(1,0,0,1,0,0)">
                <path fill="rgb(171,27,55)" fill-opacity="1"
                    d=" M-8.522000312805176,-0.13099999725818634 C-8.427000045776367,-6.35099983215332 -4.533999919891357,-11.333999633789062 0.17299999296665192,-11.26200008392334 C4.880000114440918,-11.189000129699707 8.618000030517578,-6.089000225067139 8.522000312805176,0.13099999725818634 C8.425999641418457,6.35099983215332 4.533999919891357,11.335000038146973 -0.17299999296665192,11.26200008392334 C-4.880000114440918,11.1899995803833 -8.618000030517578,6.089000225067139 -8.522000312805176,-0.13099999725818634z">
                </path>
            </g>
        </g>
        <g style="display: block;"
            transform="matrix(0.4699999988079071,0,0,0.4699999988079071,626.4400024414062,327.47601318359375)"
            opacity="1">
            <g opacity="1" transform="matrix(1,0,0,1,0,0)">
                <path fill="rgb(235,235,235)" fill-opacity="1"
                    d=" M-79.14900207519531,8.793999671936035 C-79.14900207519531,8.793999671936035 -125.99800109863281,53.935001373291016 -93.02400207519531,103.38500213623047 C-93.02400207519531,103.38500213623047 -41.32500076293945,118.96199798583984 -0.6079999804496765,93.76699829101562 C40.10900115966797,68.5719985961914 69.46800231933594,26.625999450683594 88.79199981689453,-7.144000053405762 C108.11599731445312,-40.91400146484375 106.61299896240234,-72.0479965209961 101.33599853515625,-80.9729995727539 C96.05899810791016,-89.89800262451172 91.68900299072266,-100.52200317382812 82.67400360107422,-98.3479995727539 C82.67400360107422,-98.3479995727539 73.90899658203125,-112.18800354003906 63.68199920654297,-106.51499938964844 C63.68199920654297,-106.51499938964844 54.89400100708008,-112.9489974975586 45.94599914550781,-100.26499938964844 C45.94599914550781,-100.26499938964844 33.749000549316406,-104.80799865722656 27.597999572753906,-90.41400146484375 C21.44700050354004,-76.0199966430664 32.71500015258789,-62.37200164794922 32.71500015258789,-62.37200164794922 C32.71500015258789,-62.37200164794922 6.992000102996826,-30.923999786376953 19.15399932861328,-15.270999908447266 C19.15399932861328,-15.270999908447266 -41.16699981689453,40.551998138427734 -79.14900207519531,8.793999671936035z">
                </path>
            </g>
        </g>
        <g style="mix-blend-mode: soft-light; display: block;"
            transform="matrix(0.4699999988079071,0,0,0.4699999988079071,667.6370239257812,286.0379943847656)"
            opacity="1">
            <g style="mix-blend-mode: soft-light;" opacity="1" transform="matrix(1,0,0,1,0,0)">
                <path stroke-linecap="butt" stroke-linejoin="miter" fill-opacity="0" stroke-miterlimit="10"
                    stroke="rgb(33,6,28)" stroke-opacity="1" stroke-width="0.587"
                    d=" M-4.168000221252441,-9.58899974822998 C-4.168000221252441,-9.58899974822998 0.9120000004768372,-1.4620000123977661 4.168000221252441,9.58899974822998">
                </path>
            </g>
        </g>
        <g style="mix-blend-mode: soft-light; display: block;"
            transform="matrix(0.4699999988079071,0,0,0.4699999988079071,659.6920166015625,284.0299987792969)"
            opacity="1">
            <g style="mix-blend-mode: soft-light;" opacity="1" transform="matrix(1,0,0,1,0,0)">
                <path stroke-linecap="butt" stroke-linejoin="miter" fill-opacity="0" stroke-miterlimit="10"
                    stroke="rgb(33,6,28)" stroke-opacity="1" stroke-width="0.587"
                    d=" M-8.406000137329102,-14.803999900817871 C-8.406000137329102,-14.803999900817871 3.4030001163482666,-9.364999771118164 8.406000137329102,14.803999900817871">
                </path>
            </g>
        </g>
        <g style="mix-blend-mode: soft-light; display: block;"
            transform="matrix(0.4699999988079071,0,0,0.4699999988079071,652.51904296875,286.05999755859375)"
            opacity="1">
            <g style="mix-blend-mode: soft-light;" opacity="1" transform="matrix(1,0,0,1,0,0)">
                <path stroke-linecap="butt" stroke-linejoin="miter" fill-opacity="0" stroke-miterlimit="10"
                    stroke="rgb(33,6,28)" stroke-opacity="1" stroke-width="0.587"
                    d=" M9.539999961853027,12.145999908447266 C9.539999961853027,12.145999908447266 4.954999923706055,-6.59499979019165 -9.539999961853027,-12.145999908447266">
                </path>
            </g>
        </g>
        <g style="mix-blend-mode: soft-light; display: block;"
            transform="matrix(0.4699999988079071,0,0,0.4699999988079071,643.5750122070312,291.93402099609375)"
            opacity="1">
            <g style="mix-blend-mode: soft-light;" opacity="1" transform="matrix(1,0,0,1,0,0)">
                <path stroke-linecap="butt" stroke-linejoin="miter" fill-opacity="0" stroke-miterlimit="10"
                    stroke="rgb(33,6,28)" stroke-opacity="1" stroke-width="0.587"
                    d=" M3.4739999771118164,10.770999908447266 C3.4739999771118164,10.770999908447266 -4.486999988555908,-4.168000221252441 -3.365000009536743,-10.770999908447266">
                </path>
            </g>
        </g>
        <g style="mix-blend-mode: soft-light; display: block;"
            transform="matrix(0.4699999988079071,0,0,0.4699999988079071,642.8590087890625,296.21600341796875)"
            opacity="1">
            <g style="mix-blend-mode: soft-light;" opacity="1" transform="matrix(1,0,0,1,0,0)">
                <path stroke-linecap="butt" stroke-linejoin="miter" fill-opacity="0" stroke-miterlimit="10"
                    stroke="rgb(33,6,28)" stroke-opacity="1" stroke-width="0.587"
                    d=" M-2.2190001010894775,4.138000011444092 C-2.2190001010894775,4.138000011444092 2.2190001010894775,-4.138000011444092 2.2190001010894775,-4.138000011444092">
                </path>
            </g>
        </g>
        <g style="display: block;"
            transform="matrix(0.4699999988079071,0,0,0.4699999988079071,488.78399658203125,273.80499267578125)"
            opacity="1">
            <g opacity="1" transform="matrix(1,0,0,1,0,0)">
                <path fill="rgb(0,165,173)" fill-opacity="1"
                    d=" M-21.31599998474121,82.22899627685547 C-21.31599998474121,82.22899627685547 55.183998107910156,40.2859992980957 98.4800033569336,-39.375999450683594 C91.01399993896484,-40.99300003051758 83.20999908447266,-42.292999267578125 74.99199676513672,-43.93299865722656 C40.24300003051758,-50.86800003051758 32.0260009765625,-80.29499816894531 32.0260009765625,-80.29499816894531 C-12.260000228881836,-62.284000396728516 -47.569000244140625,-82.22899627685547 -47.569000244140625,-82.22899627685547 C-49.474998474121094,-55.483001708984375 -62.058998107910156,-49.952999114990234 -98.4800033569336,-44.858001708984375 C-98.4800033569336,-44.858001708984375 -98.4800033569336,-44.84199905395508 -98.4800033569336,-44.84199905395508 C-98.4800033569336,-44.84199905395508 -79.00399780273438,30.888999938964844 -21.31599998474121,82.22899627685547z">
                </path>
            </g>
        </g>
        <g style="display: block;"
            transform="matrix(0.4699999988079071,0,0,0.4699999988079071,484.2070007324219,382.46099853515625)"
            opacity="1">
            <g opacity="1" transform="matrix(1,0,0,1,0,0)">
                <path fill="rgb(0,165,173)" fill-opacity="1"
                    d=" M-98.94599914550781,-67.26399993896484 C-98.94599914550781,-67.26399993896484 -65.41500091552734,-19.322999954223633 -13.187000274658203,11.788000106811523 C-13.187000274658203,11.788000106811523 59.1510009765625,-9.029999732971191 98.94599914550781,-67.11699676513672 C98.94599914550781,-67.11699676513672 90.54900360107422,-21.624000549316406 85.56400299072266,8.097000122070312 C85.56400299072266,8.097000122070312 61.542999267578125,44.25600051879883 -10.880000114440918,67.26399993896484 C-10.880000114440918,67.26399993896484 -51.869998931884766,49.82500076293945 -86.76000213623047,6.954999923706055 C-86.76000213623047,6.954999923706055 -83.375,-20.410999298095703 -98.94599914550781,-67.26399993896484z">
                </path>
            </g>
        </g>
        <g style="display: block;"
            transform="matrix(0.4699999988079071,0,0,0.4699999988079071,501.72601318359375,252.2100067138672)"
            opacity="1">
            <g opacity="1" transform="matrix(1,0,0,1,0,0)">
                <path fill="rgb(4,130,115)" fill-opacity="1"
                    d=" M-44.0099983215332,23.34000015258789 C-44.0099983215332,23.34000015258789 -9.121000289916992,-0.5789999961853027 0.38999998569488525,-7.656000137329102 C9.899999618530273,-14.732999801635742 27.96500015258789,-31.347000122070312 35.08100128173828,-23.459999084472656 C42.196998596191406,-15.572999954223633 44.0099983215332,-6.5960001945495605 44.0099983215332,-6.5960001945495605 C44.0099983215332,-6.5960001945495605 4.098999977111816,35.47100067138672 -44.0099983215332,23.34000015258789z">
                </path>
            </g>
        </g>
        <g style="display: block;"
            transform="matrix(0.4699999988079071,0,0,0.4699999988079071,514.0809936523438,255.7899932861328)"
            opacity="1">
            <g opacity="1" transform="matrix(1,0,0,1,0,0)">
                <path fill="rgb(0,169,157)" fill-opacity="1"
                    d=" M-70.2969970703125,15.723999977111816 C-70.2969970703125,15.723999977111816 -30.99799919128418,2.4690001010894775 -13.322999954223633,-6.440000057220459 C4.3520002365112305,-15.348999977111816 21.89299964904785,-30.875999450683594 35.74399948120117,-20.676000595092773 C50.56700134277344,-9.760000228881836 70.2969970703125,11.020000457763672 70.2969970703125,11.020000457763672 C70.2969970703125,11.020000457763672 29.385000228881836,23.829999923706055 -12.845000267028809,24.02199935913086 C-55.07400131225586,24.214000701904297 -70.2969970703125,15.723999977111816 -70.2969970703125,15.723999977111816z">
                </path>
            </g>
        </g>
        <g style="display: block;"
            transform="matrix(0.4699999988079071,0,0,0.4699999988079071,456.29901123046875,251.01800537109375)"
            opacity="1">
            <g opacity="1" transform="matrix(1,0,0,1,0,0)">
                <path fill="rgb(4,130,115)" fill-opacity="1"
                    d=" M40.87300109863281,25.740999221801758 C40.87300109863281,25.740999221801758 11.531999588012695,1.597000002861023 2.6740000247955322,-6.281000137329102 C-6.184999942779541,-14.159000396728516 -22.735000610351562,-32.28200149536133 -30.51099967956543,-25.04400062561035 C-38.2869987487793,-17.805999755859375 -40.87300109863281,-9.020999908447266 -40.87300109863281,-9.020999908447266 C-40.87300109863281,-9.020999908447266 -8.109000205993652,33.638999938964844 40.87300109863281,25.740999221801758z">
                </path>
            </g>
        </g>
        <g style="display: block;"
            transform="matrix(0.4699999988079071,0,0,0.4699999988079071,445.5889892578125,253.50599670410156)"
            opacity="1">
            <g opacity="1" transform="matrix(1,0,0,1,0,0)">
                <path fill="rgb(0,169,157)" fill-opacity="1"
                    d=" M63.65999984741211,20.445999145507812 C63.65999984741211,20.445999145507812 25.663999557495117,3.821000099182129 8.831000328063965,-6.5920000076293945 C-8.001999855041504,-17.0049991607666 -24.562000274658203,-30.948999404907227 -39.24800109863281,-21.993000030517578 C-54.96500015258789,-12.407999992370605 -63.65999984741211,8.291999816894531 -63.65999984741211,8.291999816894531 C-63.65999984741211,8.291999816894531 -36.347999572753906,19.84600067138672 5.703999996185303,23.711999893188477 C47.75699996948242,27.57900047302246 63.65999984741211,20.445999145507812 63.65999984741211,20.445999145507812z">
                </path>
            </g>
        </g>
        <g style="display: block;"
            transform="matrix(0.4699999988079071,0,0,0.4699999988079071,478.5530090332031,263.96002197265625)"
            opacity="1">
            <g opacity="1" transform="matrix(1,0,0,1,0,0)">
                <path fill="rgb(244,244,244)" fill-opacity="1"
                    d=" M31.503999710083008,0.7649999856948853 C31.927000045776367,-16.634000778198242 18.165000915527344,-31.08099937438965 0.765999972820282,-31.503999710083008 C-16.632999420166016,-31.927000045776367 -31.08099937438965,-18.165000915527344 -31.503999710083008,-0.765999972820282 C-31.927000045776367,16.632999420166016 -18.163999557495117,31.08099937438965 -0.7649999856948853,31.503999710083008 C16.634000778198242,31.927000045776367 31.08099937438965,18.163999557495117 31.503999710083008,0.7649999856948853z">
                </path>
            </g>
        </g>
        <g style="display: block;"
            transform="matrix(0.4699999988079071,0,0,0.4699999988079071,478.5530090332031,263.96002197265625)"
            opacity="1">
            <g opacity="1" transform="matrix(1,0,0,1,0,0)">
                <path fill="rgb(255,255,255)" fill-opacity="1"
                    d=" M21.240999221801758,0.515999972820282 C21.525999069213867,-11.21500015258789 12.246999740600586,-20.95599937438965 0.515999972820282,-21.240999221801758 C-11.21500015258789,-21.525999069213867 -20.95599937438965,-12.246999740600586 -21.240999221801758,-0.515999972820282 C-21.525999069213867,11.21500015258789 -12.246999740600586,20.95599937438965 -0.515999972820282,21.240999221801758 C11.21500015258789,21.525999069213867 20.95599937438965,12.246999740600586 21.240999221801758,0.515999972820282z">
                </path>
            </g>
        </g>
        <g style="display: block;"
            transform="matrix(0.4699999988079071,0,0,0.4699999988079071,481.031005859375,157.65899658203125)"
            opacity="1">
            <g opacity="1" transform="matrix(1,0,0,1,0,0)">
                <path fill="rgb(23,45,87)" fill-opacity="1"
                    d=" M-80.50900268554688,-45.409000396728516 C-80.50900268554688,-45.409000396728516 -70.30500030517578,-25.672000885009766 -38.06100082397461,-24.280000686645508 C-5.816999912261963,-22.88800048828125 32.43000030517578,-31.5 38.13199996948242,-15.527000427246094 C38.13199996948242,-15.527000427246094 53.957000732421875,-15.142999649047852 53.569000244140625,0.8100000023841858 C53.303001403808594,11.765999794006348 50.76599884033203,41.01300048828125 50.53900146484375,50.345001220703125 C50.3120002746582,59.678001403808594 55.395999908447266,64.91699981689453 57.1879997253418,48.04899978637695 C58.97999954223633,31.180999755859375 78.98699951171875,25.86400032043457 78.98699951171875,25.86400032043457 C78.98699951171875,25.86400032043457 81.14299774169922,-19.354000091552734 80.322998046875,-29.118000030517578 C79.50299835205078,-38.88199996948242 -3.869999885559082,-80.08799743652344 -80.50900268554688,-45.409000396728516z">
                </path>
            </g>
        </g>
        <g style="mix-blend-mode: soft-light; display: block;"
            transform="matrix(0.4699999988079071,0,0,0.4699999988079071,463.4510192871094,188.739990234375)"
            opacity="1">
            <g style="mix-blend-mode: soft-light;" opacity="1" transform="matrix(1,0,0,1,0,0)">
                <path stroke-linecap="butt" stroke-linejoin="miter" fill-opacity="0" stroke-miterlimit="10"
                    stroke="rgb(33,6,28)" stroke-opacity="1" stroke-width="0.587"
                    d=" M7.0929999351501465,-24.89299964904785 C7.0929999351501465,-24.89299964904785 7.22599983215332,-17.621000289916992 6.585999965667725,-13.227999687194824 C5.579999923706055,-6.310999870300293 -0.3089999854564667,1.38100004196167 -2.8949999809265137,5.118000030517578 C-5.480999946594238,8.854000091552734 -8.97599983215332,12.769000053405762 -5.90500020980835,18.35300064086914 C-3.808000087738037,22.166000366210938 -1.2760000228881836,24.89299964904785 -1.2760000228881836,24.89299964904785">
                </path>
            </g>
        </g>
        <g style="display: block;"
            transform="matrix(0.4699999988079071,0,0,0.4699999988079071,474.25799560546875,207.98098754882812)"
            opacity="1">
            <g opacity="1" transform="matrix(1,0,0,1,0,0)">
                <path fill="rgb(237,231,219)" fill-opacity="1"
                    d=" M4.039999961853027,-15.430999755859375 C11.390999794006348,-21.073999404907227 14.57800006866455,-20.224000930786133 18.854999542236328,-18.481000900268555 C23.131000518798828,-16.738000869750977 29.804000854492188,-8.972999572753906 25.451000213623047,1.7239999771118164 C21.099000930786133,12.420000076293945 8.517999649047852,19.572999954223633 -1.1540000438690186,19.77899932861328 C-13.295999526977539,20.038000106811523 -21.50200080871582,15.524999618530273 -25.15999984741211,9.538000106811523 C-28.81800079345703,3.5510001182556152 -26.59000015258789,-6.230999946594238 -18.586999893188477,-7.197000026702881 C-3.7219998836517334,-8.991000175476074 -3.311000108718872,-9.791000366210938 4.039999961853027,-15.430999755859375z">
                </path>
            </g>
        </g>
        <g style="display: block;"
            transform="matrix(0.4699999988079071,0,0,0.4699999988079071,480.5780029296875,180.34298706054688)"
            opacity="1">
            <g opacity="1" transform="matrix(1,0,0,1,0,0)">
                <path fill="rgb(92,40,56)" fill-opacity="1"
                    d=" M-0.609000027179718,-10.51099967956543 C-3.071000099182129,-9.402000427246094 -3.635999917984009,-5.410999774932861 -3.882999897003174,-2.61899995803833 C-4.158999919891357,0.4860000014305115 -4.431000232696533,4.440999984741211 -3.8399999141693115,7.423999786376953 C-3.0290000438690186,11.512999534606934 1.7480000257492065,12.253999710083008 3.059999942779541,7.941999912261963 C4.206999778747559,4.173999786376953 6.040999889373779,-13.505999565124512 -0.609000027179718,-10.51099967956543 C-0.609000027179718,-10.51099967956543 -0.609000027179718,-10.51099967956543 -0.609000027179718,-10.51099967956543z">
                </path>
            </g>
        </g>
        <g style="display: block;"
            transform="matrix(0.4699999988079071,0,0,0.4699999988079071,453.9129943847656,178.55099487304688)"
            opacity="1">
            <g opacity="1" transform="matrix(1,0,0,1,0,0)">
                <path fill="rgb(92,40,56)" fill-opacity="1"
                    d=" M-0.609000027179718,-10.51099967956543 C-3.071000099182129,-9.402000427246094 -3.635999917984009,-5.410999774932861 -3.882999897003174,-2.61899995803833 C-4.158999919891357,0.4860000014305115 -4.432000160217285,4.440999984741211 -3.8399999141693115,7.423999786376953 C-3.0290000438690186,11.513999938964844 1.7489999532699585,12.253999710083008 3.061000108718872,7.941999912261963 C4.208000183105469,4.173999786376953 6.040999889373779,-13.505999565124512 -0.609000027179718,-10.51099967956543 C-0.609000027179718,-10.51099967956543 -0.609000027179718,-10.51099967956543 -0.609000027179718,-10.51099967956543z">
                </path>
            </g>
        </g>
        <g style="display: block;"
            transform="matrix(0.4699999988079071,0,0,0.4699999988079071,483.5690002441406,158.74200439453125)"
            opacity="1">
            <g opacity="1" transform="matrix(1,0,0,1,0,0)">
                <path fill="rgb(23,45,87)" fill-opacity="1"
                    d=" M13.843000411987305,2.4149999618530273 C13.906999588012695,-3.180000066757202 7.209000110626221,-7.385000228881836 2.2829999923706055,-8.128000259399414 C-1.1339999437332153,-8.642999649047852 -4.828000068664551,-7.864999771118164 -7.7129998207092285,-5.943999767303467 C-11.694999694824219,-3.2929999828338623 -13.479999542236328,0.4740000069141388 -13.833000183105469,5.064000129699707 C-14.09000015258789,8.413000106811523 -9.675999641418457,9.13700008392334 -7.705999851226807,7.291999816894531 C-4.822000026702881,4.5879998207092285 -2.315999984741211,0.3659999966621399 2.1480000019073486,0.7440000176429749 C5.416999816894531,1.0210000276565552 7.998000144958496,3.055999994277954 10.904999732971191,4.302999973297119 C12.336000442504883,4.916999816894531 13.824999809265137,3.992000102996826 13.843000411987305,2.4149999618530273 C13.843000411987305,2.4149999618530273 13.843000411987305,2.4149999618530273 13.843000411987305,2.4149999618530273z">
                </path>
            </g>
        </g>
        <g style="display: block;"
            transform="matrix(0.4699999988079071,0,0,0.4699999988079071,456.6889953613281,158.59600830078125)"
            opacity="1">
            <g opacity="1" transform="matrix(1,0,0,1,0,0)">
                <path fill="rgb(23,45,87)" fill-opacity="1"
                    d=" M-11.013999938964844,2.3329999446868896 C-7.883999824523926,1.434999942779541 -5.01800012588501,-0.37599998712539673 -1.6390000581741333,-0.17299999296665192 C2.884000062942505,0.09799999743700027 5.047999858856201,4.89900016784668 7.671000003814697,7.99399995803833 C9.84000015258789,10.552000045776367 13.494999885559082,7.978000164031982 13.597999572753906,5.2769999504089355 C13.89900016784668,-2.638000011444092 7.103000164031982,-9.286999702453613 -0.8569999933242798,-9.039999961853027 C-5.758999824523926,-8.88700008392334 -12.946000099182129,-5.554999828338623 -13.58899974822998,-0.057999998331069946 C-13.765000343322754,1.4509999752044678 -12.61400032043457,2.7920000553131104 -11.013999938964844,2.3329999446868896 C-11.013999938964844,2.3329999446868896 -11.013999938964844,2.3329999446868896 -11.013999938964844,2.3329999446868896z">
                </path>
            </g>
        </g>
        <g style="mix-blend-mode: soft-light; display: block;"
            transform="matrix(0.4699999988079071,0,0,0.4699999988079071,477.9330139160156,206.48300170898438)"
            opacity="1">
            <g style="mix-blend-mode: soft-light;" opacity="1" transform="matrix(1,0,0,1,0,0)">
                <path stroke-linecap="butt" stroke-linejoin="miter" fill-opacity="0" stroke-miterlimit="10"
                    stroke="rgb(33,6,28)" stroke-opacity="1" stroke-width="0.587"
                    d=" M-18.569000244140625,5.776000022888184 C-18.569000244140625,5.776000022888184 18.569000244140625,-5.776000022888184 18.569000244140625,-5.776000022888184">
                </path>
            </g>
        </g>
        <g style="mix-blend-mode: soft-light; display: block;"
            transform="matrix(0.4699999988079071,0,0,0.4699999988079071,515.9019775390625,183.75100708007812)"
            opacity="1">
            <g style="mix-blend-mode: soft-light;" opacity="1" transform="matrix(1,0,0,1,0,0)">
                <path fill="rgb(33,6,28)" fill-opacity="1"
                    d=" M0.5550000071525574,-3.9519999027252197 C6.283999919891357,-9.005999565124512 12.071000099182129,-10.180000305175781 12.479000091552734,-10.255999565124512 C12.479000091552734,-10.255999565124512 11.866000175476074,-13.659000396728516 11.866000175476074,-13.659000396728516 C11.079999923706055,-13.520000457763672 -7.434999942779541,-9.958000183105469 -12.960000038146973,12.847000122070312 C-12.960000038146973,12.847000122070312 -9.597000122070312,13.659000396728516 -9.597000122070312,13.659000396728516 C-8.133999824523926,7.625 -5.677000045776367,3.115999937057495 -2.930999994277954,-0.2919999957084656 C3.7769999504089355,-1.8730000257492065 10.595000267028809,3.997999906539917 10.666999816894531,4.059000015258789 C10.666999816894531,4.059000015258789 12.960000038146973,1.468000054359436 12.960000038146973,1.468000054359436 C12.682000160217285,1.218999981880188 7.2170000076293945,-3.4509999752044678 0.5550000071525574,-3.9519999027252197z">
                </path>
            </g>
        </g>
        <g style="mix-blend-mode: soft-light; display: block;"
            transform="matrix(0.4699999988079071,0,0,0.4699999988079071,307.58099365234375,257.79498291015625)"
            opacity="1">
            <g style="mix-blend-mode: soft-light;" opacity="1" transform="matrix(1,0,0,1,0,0)">
                <path stroke-linecap="butt" stroke-linejoin="miter" fill-opacity="0" stroke-miterlimit="10"
                    stroke="rgb(33,6,28)" stroke-opacity="1" stroke-width="0.587"
                    d=" M6.810999870300293,-9.901000022888184 C6.810999870300293,-9.901000022888184 -1.9800000190734863,-2.259999990463257 -6.810999870300293,9.901000022888184">
                </path>
            </g>
        </g>
        <g style="mix-blend-mode: soft-light; display: block;"
            transform="matrix(0.4699999988079071,0,0,0.4699999988079071,315.3480224609375,257.95001220703125)"
            opacity="1">
            <g style="mix-blend-mode: soft-light;" opacity="1" transform="matrix(1,0,0,1,0,0)">
                <path stroke-linecap="butt" stroke-linejoin="miter" fill-opacity="0" stroke-miterlimit="10"
                    stroke="rgb(33,6,28)" stroke-opacity="1" stroke-width="0.587"
                    d=" M11.083999633789062,-12.92199993133545 C11.083999633789062,-12.92199993133545 -1.5479999780654907,-9.843000411987305 -11.083999633789062,12.92199993133545">
                </path>
            </g>
        </g>
        <g style="mix-blend-mode: soft-light; display: block;"
            transform="matrix(0.4699999988079071,0,0,0.4699999988079071,322,261.31500244140625)" opacity="1">
            <g style="mix-blend-mode: soft-light;" opacity="1" transform="matrix(1,0,0,1,0,0)">
                <path stroke-linecap="butt" stroke-linejoin="miter" fill-opacity="0" stroke-miterlimit="10"
                    stroke="rgb(33,6,28)" stroke-opacity="1" stroke-width="0.587"
                    d=" M-11.689000129699707,10.095999717712402 C-11.689000129699707,10.095999717712402 -3.6010000705718994,-7.422999858856201 11.689000129699707,-10.095999717712402">
                </path>
            </g>
        </g>
        <g style="display: block;"
            transform="matrix(0.4699999988079071,0,0,0.4699999988079071,474.96099853515625,208.20498657226562)"
            opacity="1">
            <g opacity="1" transform="matrix(1,0,0,1,0,0)">
                <path fill="rgb(80,191,165)" fill-opacity="1"
                    d=" M36.87099838256836,-31.634000778198242 C43.819000244140625,-36.81999969482422 61.20100021362305,-53.02000045776367 70.10299682617188,-59.49700164794922 C70.10299682617188,-59.49700164794922 52.58700180053711,-45.4379997253418 36.707000732421875,-36.07400131225586 C36.707000732421875,-36.07400131225586 25.610000610351562,-34.2239990234375 12.211000442504883,-34.362998962402344 C-1.187999963760376,-34.50199890136719 -32.0099983215332,-43.040000915527344 -69.71299743652344,-25.56399917602539 C-71.68800354003906,-24.601999282836914 -66.89399719238281,21.277999877929688 -37.76100158691406,44.59600067138672 C-6.540999889373779,69.58399963378906 18.22800064086914,57.36000061035156 31.152000427246094,49.32699966430664 C44.07600021362305,41.29399871826172 50.08000183105469,29.990999221801758 54.441001892089844,11.279999732971191 C57.63999938964844,7.203999996185303 67.21299743652344,-30.035999298095703 67.21299743652344,-30.035999298095703 C64.29900360107422,-21.562999725341797 56.191001892089844,4.801000118255615 52.79199981689453,9.321999549865723 C48.689998626708984,4.160999774932861 42.74399948120117,-9.388999938964844 36.87099838256836,-31.634000778198242z">
                </path>
            </g>
        </g>
        <g style="display: block;"
            transform="matrix(0.4699999988079071,0,0,0.4699999988079071,249.59963989257812,237.00015258789062)"
            opacity="1">
            <g opacity="1" transform="matrix(1,0,0,1,175.0709991455078,23.57200050354004)">
                <path fill="rgb(241,90,36)" fill-opacity="1"
                    d=" M3.128000020980835,-139.7949981689453 C3.128000020980835,-139.7949981689453 -65.9729995727539,-97.77100372314453 -65.9729995727539,-97.77100372314453 C-65.9729995727539,-97.77100372314453 11.38599967956543,139.7949981689453 11.38599967956543,139.7949981689453 C11.38599967956543,139.7949981689453 65.9729995727539,65.8239974975586 65.9729995727539,65.8239974975586 C65.9729995727539,65.8239974975586 25.79800033569336,-29.194000244140625 25.79800033569336,-29.194000244140625 C25.79800033569336,-29.194000244140625 3.128000020980835,-139.7949981689453 3.128000020980835,-139.7949981689453z">
                </path>
            </g>
            <g opacity="1" transform="matrix(1,0,0,1,178.94000244140625,45.30799865722656)">
                <path fill="rgb(179,179,179)" fill-opacity="1"
                    d=" M44.709999084472656,38.84700012207031 C44.709999084472656,38.84700012207031 47.430999755859375,47.25699996948242 47.430999755859375,47.25699996948242 C47.430999755859375,47.25699996948242 10.413000106811523,88.96600341796875 10.413000106811523,88.96600341796875 C10.413000106811523,88.96600341796875 -42.845001220703125,-75.02200317382812 -47.430999755859375,-88.96600341796875 C-47.430999755859375,-88.96600341796875 44.709999084472656,38.84700012207031 44.709999084472656,38.84700012207031z">
                </path>
            </g>
            <g opacity="1" transform="matrix(1,0,0,1,175.3820037841797,17.750999450683594)">
                <path fill="rgb(242,242,242)" fill-opacity="1"
                    d=" M6.638000011444092,-67.99700164794922 C8.399999618530273,-59.78900146484375 16.082000732421875,-54.66400146484375 17.788999557495117,-49.12799835205078 C19.323999404907227,-44.1619987487793 13.996000289916992,-29.43899917602539 21.643999099731445,-21.417999267578125 C21.643999099731445,-21.417999267578125 21.645000457763672,-21.385000228881836 21.645000457763672,-21.385000228881836 C21.645000457763672,-21.385000228881836 50.749000549316406,63.263999938964844 50.749000549316406,63.263999938964844 C50.749000549316406,63.263999938964844 48.268001556396484,66.40399932861328 48.268001556396484,66.40399932861328 C48.268001556396484,66.40399932861328 15.300999641418457,108.41000366210938 15.300999641418457,108.41000366210938 C15.300999641418457,108.41000366210938 -26.913999557495117,-12.767999649047852 -43.87300109863281,-61.409000396728516 C-43.94200134277344,-61.63100051879883 -44.00899887084961,-61.78900146484375 -44.04499816894531,-61.946998596191406 C-44.11199951171875,-62.16899871826172 -44.17900085449219,-62.29399871826172 -44.18000030517578,-62.32500076293945 C-48.21099853515625,-74.02100372314453 -50.74800109863281,-81.29000091552734 -50.749000549316406,-81.32099914550781 C-50.75,-81.38500213623047 -47.03799819946289,-83.5 -41.65999984741211,-86.5719985961914 C-41.65999984741211,-86.5719985961914 -37.518001556396484,-75.73899841308594 -37.518001556396484,-75.73899841308594 C-37.518001556396484,-75.73899841308594 -5.122000217437744,-96.18199920654297 -5.122000217437744,-96.18199920654297 C-5.122000217437744,-96.18199920654297 -8.277000427246094,-105.60199737548828 -8.277000427246094,-105.60199737548828 C-5.224999904632568,-107.32099914550781 -3.3380000591278076,-108.41000366210938 -3.3380000591278076,-108.41000366210938 C-3.3380000591278076,-108.41000366210938 5.190000057220459,-82.51399993896484 5.190000057220459,-82.51399993896484 C5.190000057220459,-82.51399993896484 5.190000057220459,-82.48300170898438 5.190000057220459,-82.48300170898438 C3.75,-78.28299713134766 5.4019999504089355,-73.7969970703125 6.638000011444092,-67.99700164794922z">
                </path>
            </g>
            <g opacity="1" transform="matrix(1,0,0,1,150.39300537109375,-82.03299713134766)">
                <path fill="rgb(0,113,188)" fill-opacity="1"
                    d=" M16.711999893188477,-5.817999839782715 C16.711999893188477,-5.817999839782715 13.963000297546387,-14.006999969482422 13.963000297546387,-14.006999969482422 C13.963000297546387,-14.006999969482422 2.9839999675750732,-7.697000026702881 2.9839999675750732,-7.697000026702881 C2.313999891281128,-10.89900016784668 1.406999945640564,-14.63700008392334 -0.08900000154972076,-17.694000244140625 C-2.3510000705718994,-22.327999114990234 -5.916999816894531,-25.499000549316406 -11.986000061035156,-23.368000030517578 C-19.823999404907227,-20.625999450683594 -19.64299964904785,-13.402000427246094 -16.43899917602539,-7.868000030517578 C-14.755000114440918,-4.909999847412109 -12.154999732971191,-2.4170000553131104 -9.52299976348877,-1.3589999675750732 C-9.52299976348877,-1.3589999675750732 -19.867000579833984,4.874000072479248 -19.867000579833984,4.874000072479248 C-19.867000579833984,4.874000072479248 -16.67099952697754,13.211999893188477 -16.67099952697754,13.211999893188477 C-16.67099952697754,13.211999893188477 -12.529000282287598,24.045000076293945 -12.529000282287598,24.045000076293945 C-12.529000282287598,24.045000076293945 19.867000579833984,3.6019999980926514 19.867000579833984,3.6019999980926514 C19.867000579833984,3.6019999980926514 16.711999893188477,-5.817999839782715 16.711999893188477,-5.817999839782715z">
                </path>
            </g>
        </g>
        <g style="display: block;"
            transform="matrix(0.4699999988079071,0,0,0.4699999988079071,249.59951782226562,237.00051879882812)"
            opacity="1">
            <g opacity="1" transform="matrix(1,0,0,1,178.16099548339844,81.46199798583984)">
                <path fill="rgb(235,235,235)" fill-opacity="1"
                    d=" M8.390000343322754,1.503000020980835 C9.487000465393066,-4.619999885559082 6.61899995803833,-10.256999969482422 1.9850000143051147,-11.086999893188477 C-2.6489999294281006,-11.916999816894531 -7.293000221252441,-7.625999927520752 -8.390000343322754,-1.503000020980835 C-9.487000465393066,4.619999885559082 -6.619999885559082,10.256999969482422 -1.9859999418258667,11.086999893188477 C2.6480000019073486,11.916999816894531 7.293000221252441,7.625999927520752 8.390000343322754,1.503000020980835z">
                </path>
            </g>
            <g opacity="1" transform="matrix(1,0,0,1,140.7429962158203,85.8010025024414)">
                <path fill="rgb(235,235,235)" fill-opacity="1"
                    d=" M-34.88199996948242,38.66600036621094 C-47.3849983215332,1.8209999799728394 -39.95000076293945,-28.447999954223633 -33.0629997253418,-36.198001861572266 C-26.176000595092773,-43.948001861572266 -19.851999282836914,-53.53900146484375 -11.420000076293945,-49.68000030517578 C-11.420000076293945,-49.68000030517578 -0.16899999976158142,-61.58700180053711 8.784000396728516,-54.06100082397461 C8.784000396728516,-54.06100082397461 18.641000747680664,-58.694000244140625 24.996000289916992,-44.53200149536133 C24.996000289916992,-44.53200149536133 37.83700180053711,-46.65700149536133 41.11899948120117,-31.35099983215332 C44.4010009765625,-16.04599952697754 30.729999542236328,-4.807000160217285 30.729999542236328,-4.807000160217285 C30.729999542236328,-4.807000160217285 49.95800018310547,30.982999801635742 35.025001525878906,44.01900100708008 C35.025001525878906,44.01900100708008 -22.378999710083008,75.51100158691406 -34.88199996948242,38.66600036621094z">
                </path>
            </g>
            <g style="mix-blend-mode: soft-light;" opacity="1"
                transform="matrix(1,0,0,1,170.28399658203125,67.26300048828125)">
                <path fill="rgb(235,235,235)" fill-opacity="1"
                    d=" M-5.416999816894531,9.916999816894531 C-5.416999816894531,9.916999816894531 5.254000186920166,-3.2219998836517334 5.416999816894531,-9.916999816894531">
                </path>
            </g>
            <g style="mix-blend-mode: soft-light;" opacity="1"
                transform="matrix(1,0,0,1,170.08700561523438,76.50900268554688)">
                <path fill="rgb(235,235,235)" fill-opacity="1"
                    d=" M1.3860000371932983,4.486000061035156 C1.3860000371932983,4.486000061035156 -1.3860000371932983,-4.486000061035156 -1.3860000371932983,-4.486000061035156">
                </path>
            </g>
            <g style="mix-blend-mode: soft-light;" opacity="1"
                transform="matrix(1,0,0,1,123.36399841308594,44.24599838256836)">
                <path fill="rgb(235,235,235)" fill-opacity="1"
                    d=" M6.810999870300293,-9.901000022888184 C6.810999870300293,-9.901000022888184 -1.9800000190734863,-2.259999990463257 -6.810999870300293,9.901000022888184">
                </path>
            </g>
            <g style="mix-blend-mode: soft-light;" opacity="1"
                transform="matrix(1,0,0,1,139.88800048828125,44.57400131225586)">
                <path fill="rgb(235,235,235)" fill-opacity="1"
                    d=" M11.083999633789062,-12.92199993133545 C11.083999633789062,-12.92199993133545 -1.5479999780654907,-9.843000411987305 -11.083999633789062,12.92199993133545">
                </path>
            </g>
            <g style="mix-blend-mode: soft-light;" opacity="1"
                transform="matrix(1,0,0,1,154.04200744628906,51.73400115966797)">
                <path fill="rgb(235,235,235)" fill-opacity="1"
                    d=" M-11.689000129699707,10.095999717712402 C-11.689000129699707,10.095999717712402 -3.6010000705718994,-7.422999858856201 11.689000129699707,-10.095999717712402">
                </path>
            </g>
        </g>
    </g>
</svg>