<svg xmlns="http://www.w3.org/2000/svg" viewBox="0 0 1000 1000" width="1000" height="1000"
    style="width: 100%; height: 100%; transform: translate3d(0,0,0);" preserveAspectRatio="xMidYMid meet">
    <defs>
        <clipPath id="__lottie_element_2">
            <rect width="1000" height="1000" x="0" y="0"></rect>
        </clipPath>
        <mask id="__lottie_element_21" mask-type="alpha">
            <g style="display: block;" transform="matrix(1.0700000524520874,0,0,1.0700000524520874,512,549)"
                opacity="1">
                <g opacity="1" transform="matrix(1,0,0,1,-11,56)">
                    <path fill="rgb(255,0,0)" fill-opacity="1"
                        d=" M0,-217 C-119.84600067138672,-217 -217,-119.84600067138672 -217,0 C-217,119.84600067138672 -119.84600067138672,217 0,217 C119.84600067138672,217 217,119.84600067138672 217,0 C217,-119.84600067138672 119.84600067138672,-217 0,-217z">
                    </path>
                </g>
            </g>
        </mask>
        <mask id="__lottie_element_27" mask-type="alpha">
            <g style="display: block;" transform="matrix(1.0700000524520874,0,0,1.0700000524520874,512,549)"
                opacity="1">
                <g opacity="1" transform="matrix(1,0,0,1,-11,56)">
                    <path fill="rgb(255,0,0)" fill-opacity="1"
                        d=" M0,-217 C-119.84600067138672,-217 -217,-119.84600067138672 -217,0 C-217,119.84600067138672 -119.84600067138672,217 0,217 C119.84600067138672,217 217,119.84600067138672 217,0 C217,-119.84600067138672 119.84600067138672,-217 0,-217z">
                    </path>
                </g>
            </g>
        </mask>
    </defs>
    <g clip-path="url(#__lottie_element_2)">
        <g style="display: block;" mask="url(#__lottie_element_27)">
            <g transform="matrix(9.180000305175781,0,0,9.180000305175781,-1095.880126953125,-525.9200439453125)"
                opacity="1">
                <g opacity="1" transform="matrix(1,0,0,1,217.17999267578125,154.75599670410156)">
                    <path fill="rgb(34,73,190)" fill-opacity="1"
                        d=" M157.20799255371094,41.70000076293945 C157.20799255371094,41.70000076293945 157.20799255371094,-40.513999938964844 157.20799255371094,-40.513999938964844 C151.84800720214844,-38.696998596191406 149.35299682617188,-35.43299865722656 140.3939971923828,-35.43299865722656 C127.98300170898438,-35.43299865722656 127.98300170898438,-41.70000076293945 115.572998046875,-41.70000076293945 C103.16100311279297,-41.70000076293945 103.16100311279297,-35.43299865722656 90.74800109863281,-35.43299865722656 C78.33799743652344,-35.43299865722656 78.33799743652344,-41.70000076293945 65.9280014038086,-41.70000076293945 C53.518001556396484,-41.70000076293945 53.518001556396484,-35.43299865722656 41.10599899291992,-35.43299865722656 C28.69499969482422,-35.43299865722656 28.69499969482422,-41.70000076293945 16.283000946044922,-41.70000076293945 C3.874000072479248,-41.70000076293945 3.874000072479248,-35.43299865722656 -8.53499984741211,-35.43299865722656 C-20.94700050354004,-35.43299865722656 -20.945999145507812,-41.70000076293945 -33.356998443603516,-41.70000076293945 C-45.768001556396484,-41.70000076293945 -45.76900100708008,-35.43299865722656 -58.17900085449219,-35.43299865722656 C-70.58699798583984,-35.43299865722656 -70.58599853515625,-41.70000076293945 -82.99500274658203,-41.70000076293945 C-95.40599822998047,-41.70000076293945 -95.40599822998047,-35.43299865722656 -107.81600189208984,-35.43299865722656 C-120.22699737548828,-35.43299865722656 -120.22799682617188,-41.70000076293945 -132.63800048828125,-41.70000076293945 C-144.96099853515625,-41.70000076293945 -145.05099487304688,-35.520999908447266 -157.20799255371094,-35.4370002746582 C-157.20799255371094,-35.4370002746582 -157.20799255371094,41.70000076293945 -157.20799255371094,41.70000076293945 C-157.20799255371094,41.70000076293945 157.20799255371094,41.70000076293945 157.20799255371094,41.70000076293945z">
                    </path>
                </g>
            </g>
        </g>
        <g style="display: block;" mask="url(#__lottie_element_21)">
            <g transform="matrix(7.75,0,0,7.75,-711,-324)" opacity="1">
                <g opacity="1" transform="matrix(1,0,0,1,217.17999267578125,154.75599670410156)">
                    <path fill="rgb(45,98,255)" fill-opacity="1"
                        d=" M157.20799255371094,41.70000076293945 C157.20799255371094,41.70000076293945 157.20799255371094,-40.513999938964844 157.20799255371094,-40.513999938964844 C151.84800720214844,-38.696998596191406 149.35299682617188,-35.43299865722656 140.3939971923828,-35.43299865722656 C127.98300170898438,-35.43299865722656 127.98300170898438,-41.70000076293945 115.572998046875,-41.70000076293945 C103.16100311279297,-41.70000076293945 103.16100311279297,-35.43299865722656 90.74800109863281,-35.43299865722656 C78.33799743652344,-35.43299865722656 78.33799743652344,-41.70000076293945 65.9280014038086,-41.70000076293945 C53.518001556396484,-41.70000076293945 53.518001556396484,-35.43299865722656 41.10599899291992,-35.43299865722656 C28.69499969482422,-35.43299865722656 28.69499969482422,-41.70000076293945 16.283000946044922,-41.70000076293945 C3.874000072479248,-41.70000076293945 3.874000072479248,-35.43299865722656 -8.53499984741211,-35.43299865722656 C-20.94700050354004,-35.43299865722656 -20.945999145507812,-41.70000076293945 -33.356998443603516,-41.70000076293945 C-45.768001556396484,-41.70000076293945 -45.76900100708008,-35.43299865722656 -58.17900085449219,-35.43299865722656 C-70.58699798583984,-35.43299865722656 -70.58599853515625,-41.70000076293945 -82.99500274658203,-41.70000076293945 C-95.40599822998047,-41.70000076293945 -95.40599822998047,-35.43299865722656 -107.81600189208984,-35.43299865722656 C-120.22699737548828,-35.43299865722656 -120.22799682617188,-41.70000076293945 -132.63800048828125,-41.70000076293945 C-144.96099853515625,-41.70000076293945 -145.05099487304688,-35.520999908447266 -157.20799255371094,-35.4370002746582 C-157.20799255371094,-35.4370002746582 -157.20799255371094,41.70000076293945 -157.20799255371094,41.70000076293945 C-157.20799255371094,41.70000076293945 157.20799255371094,41.70000076293945 157.20799255371094,41.70000076293945z">
                    </path>
                </g>
            </g>
        </g>
        <g style="display: block;" transform="matrix(1,0,0,1,500,500)" opacity="1">
            <g opacity="1" transform="matrix(1,0,0,1,-14,286)">
                <path fill="rgb(45,98,255)" fill-opacity="1"
                    d=" M0,-34 C-18.777999877929688,-34 -34,-18.777999877929688 -34,0 C-34,18.777999877929688 -18.777999877929688,34 0,34 C18.777999877929688,34 34,18.777999877929688 34,0 C34,-18.777999877929688 18.777999877929688,-34 0,-34z">
                </path>
            </g>
        </g>
        <g style="display: block;" transform="matrix(1,0,0,1,500,500)" opacity="1">
            <g opacity="1" transform="matrix(1,0,0,1,-14,286)">
                <path fill="rgb(45,98,255)" fill-opacity="1"
                    d=" M0,-34 C-18.777999877929688,-34 -34,-18.777999877929688 -34,0 C-34,18.777999877929688 -18.777999877929688,34 0,34 C18.777999877929688,34 34,18.777999877929688 34,0 C34,-18.777999877929688 18.777999877929688,-34 0,-34z">
                </path>
            </g>
        </g>
        <g style="display: block;"
            transform="matrix(1.6100000143051147,0,0,1.6100000143051147,507.32000732421875,324.32000732421875)"
            opacity="1">
            <g opacity="1" transform="matrix(1,0,0,1,-14,286)">
                <path fill="rgb(45,98,255)" fill-opacity="1"
                    d=" M0,-34 C-18.777999877929688,-34 -34,-18.777999877929688 -34,0 C-34,18.777999877929688 -18.777999877929688,34 0,34 C18.777999877929688,34 34,18.777999877929688 34,0 C34,-18.777999877929688 18.777999877929688,-34 0,-34z">
                </path>
            </g>
        </g>
        <g style="display: block;" transform="matrix(1,0,0,1,202,79)" opacity="1">
            <g opacity="1" transform="matrix(1,0,0,1,297.63800048828125,454.53900146484375)">
                <path fill="rgb(255,57,57)" fill-opacity="1"
                    d=" M-0.0020000000949949026,349.1510009765625 C-151.30599975585938,349.1510009765625 -274.4010009765625,226.05299377441406 -274.4010009765625,74.74800109863281 C-274.4010009765625,-39.1510009765625 -204.04299926757812,-140.95599365234375 -98.3550033569336,-181.4969940185547 C-98.3550033569336,-181.4969940185547 -98.35299682617188,-349.1510009765625 -98.35299682617188,-349.1510009765625 C-98.35299682617188,-349.1510009765625 98.35199737548828,-349.1510009765625 98.35199737548828,-349.1510009765625 C98.35199737548828,-349.1510009765625 98.35199737548828,-181.4969940185547 98.35199737548828,-181.4969940185547 C204.04200744628906,-140.95599365234375 274.4010009765625,-39.1510009765625 274.4010009765625,74.74800109863281 C274.4010009765625,226.05299377441406 151.30299377441406,349.1510009765625 -0.0020000000949949026,349.1510009765625z M-72.19400024414062,-322.99200439453125 C-72.19400024414062,-322.99200439453125 -72.19599914550781,-163.0189971923828 -72.19599914550781,-163.0189971923828 C-72.19599914550781,-163.0189971923828 -81.01000213623047,-159.97799682617188 -81.01000213623047,-159.97799682617188 C-181.03700256347656,-125.46399688720703 -248.24200439453125,-31.134000778198242 -248.24200439453125,74.74800109863281 C-248.24200439453125,211.6300048828125 -136.88099670410156,322.9909973144531 -0.0020000000949949026,322.9909973144531 C136.8800048828125,322.9909973144531 248.24200439453125,211.6300048828125 248.24200439453125,74.74800109863281 C248.24200439453125,-31.135000228881836 181.03500366210938,-125.46399688720703 81.00599670410156,-159.97799682617188 C81.00599670410156,-159.97799682617188 72.19300079345703,-163.0189971923828 72.19300079345703,-163.0189971923828 C72.19300079345703,-163.0189971923828 72.19300079345703,-322.99200439453125 72.19300079345703,-322.99200439453125 C72.19300079345703,-322.99200439453125 -72.19400024414062,-322.99200439453125 -72.19400024414062,-322.99200439453125z">
                </path>
            </g>
            <g opacity="1" transform="matrix(1,0,0,1,297.63800048828125,82.59700012207031)">
                <path fill="rgb(255,57,57)" fill-opacity="1"
                    d=" M104.10299682617188,48.95000076293945 C104.10299682617188,48.95000076293945 -104.10199737548828,48.95000076293945 -104.10199737548828,48.95000076293945 C-131.09100341796875,48.95000076293945 -153.05099487304688,26.989999771118164 -153.05099487304688,0 C-153.05099487304688,-26.990999221801758 -131.09100341796875,-48.95000076293945 -104.10199737548828,-48.95000076293945 C-104.10199737548828,-48.95000076293945 104.10299682617188,-48.95000076293945 104.10299682617188,-48.95000076293945 C131.0919952392578,-48.95000076293945 153.05099487304688,-26.990999221801758 153.05099487304688,0 C153.05099487304688,26.989999771118164 131.0919952392578,48.95000076293945 104.10299682617188,48.95000076293945z M-104.10199737548828,-22.791000366210938 C-116.66799926757812,-22.791000366210938 -126.89099884033203,-12.567000389099121 -126.89099884033203,0 C-126.89099884033203,12.567000389099121 -116.66799926757812,22.79199981689453 -104.10199737548828,22.79199981689453 C-104.10199737548828,22.79199981689453 104.10299682617188,22.79199981689453 104.10299682617188,22.79199981689453 C116.66899871826172,22.79199981689453 126.89199829101562,12.567000389099121 126.89199829101562,0 C126.89199829101562,-12.567000389099121 116.66899871826172,-22.791000366210938 104.10299682617188,-22.791000366210938 C104.10299682617188,-22.791000366210938 -104.10199737548828,-22.791000366210938 -104.10199737548828,-22.791000366210938z">
                </path>
            </g>
            <g opacity="0.35000000000000003" transform="matrix(1,0,0,1,354.90399169921875,723.8369750976562)">
                <path fill="rgb(255,255,255)" fill-opacity="1"
                    d=" M-2.8289999961853027,14.805000305175781 C-8.404999732971191,14.805000305175781 -13.574000358581543,11.208000183105469 -15.315999984741211,5.60099983215332 C-17.457000732421875,-1.2970000505447388 -13.60200023651123,-8.62600040435791 -6.702000141143799,-10.769000053405762 C-4.947000026702881,-11.312999725341797 -3.203000068664551,-11.881999969482422 -1.465999960899353,-12.472000122070312 C5.375,-14.805000305175781 12.802000045776367,-11.140999794006348 15.128999710083008,-4.302999973297119 C17.45599937438965,2.5350000858306885 13.79800033569336,9.96399974822998 6.959000110626221,12.291000366210938 C5.002999782562256,12.958000183105469 3.0329999923706055,13.598999977111816 1.0529999732971191,14.21500015258789 C-0.2370000034570694,14.616999626159668 -1.5440000295639038,14.805000305175781 -2.8289999961853027,14.805000305175781z">
                </path>
            </g>
            <g opacity="0.35000000000000003" transform="matrix(1,0,0,1,404.6440124511719,698.8980102539062)">
                <path fill="rgb(255,255,255)" fill-opacity="1"
                    d=" M-16.674999237060547,24.871000289916992 C-21.375,24.871000289916992 -25.91699981689453,22.329999923706055 -28.260000228881836,17.881999969482422 C-31.624000549316406,11.489999771118164 -29.16900062561035,3.5789999961853027 -22.777999877929688,0.2150000035762787 C-14.982000350952148,-3.888000011444092 -7.370999813079834,-8.562999725341797 -0.15399999916553497,-13.682000160217285 C2.8540000915527344,-15.817000389099121 5.8480000495910645,-18.06800079345703 8.748000144958496,-20.375 C14.392999649047852,-24.871000289916992 22.625,-23.94300079345703 27.125999450683594,-18.28499984741211 C31.624000549316406,-12.635000228881836 30.68899917602539,-4.406000137329102 25.035999298095703,0.09200000017881393 C21.76300048828125,2.697999954223633 18.381999969482422,5.238999843597412 14.977999687194824,7.6529998779296875 C6.823999881744385,13.437000274658203 -1.7790000438690186,18.722999572753906 -10.593000411987305,23.36400032043457 C-12.53600025177002,24.38599967956543 -14.621000289916992,24.871000289916992 -16.674999237060547,24.871000289916992z">
                </path>
            </g>
            <g opacity="0.35000000000000003" transform="matrix(1,0,0,1,473.5140075683594,593.6119995117188)">
                <path fill="rgb(255,255,255)" fill-opacity="1"
                    d=" M-27.20400047302246,85.072998046875 C-30.356000900268555,85.072998046875 -33.51499938964844,83.94100189208984 -36.025001525878906,81.6500015258789 C-41.35599899291992,76.77899932861328 -41.729000091552734,68.50499725341797 -36.858001708984375,63.17100143432617 C-3.0490000247955322,26.170000076293945 15.569000244140625,-21.83300018310547 15.569000244140625,-71.99400329589844 C15.569000244140625,-79.21900177001953 21.423999786376953,-85.0739974975586 28.64900016784668,-85.0739974975586 C35.87300109863281,-85.0739974975586 41.729000091552734,-79.21900177001953 41.729000091552734,-71.99400329589844 C41.729000091552734,-15.288000106811523 20.679000854492188,38.98099899291992 -17.54599952697754,80.81700134277344 C-20.125999450683594,83.63999938964844 -23.660999298095703,85.072998046875 -27.20400047302246,85.072998046875z">
                </path>
            </g>
        </g>
        <g style="display: block;" transform="matrix(1,0,0,1,499.25,498.75)" opacity="0.35000000000000003">
            <g opacity="1" transform="matrix(1,0,0,1,0,0)">
                <path fill="rgb(255,255,255)" fill-opacity="1"
                    d=" M-231,112 C-231,112 -237.75,276.5 -62.75,334 C-61.40700149536133,334.4410095214844 -139.17100524902344,286.9779968261719 -173.35899353027344,235.3769989013672 C-218,168 -231,112 -231,112z">
                </path>
            </g>
        </g>
        <g style="display: block;" transform="matrix(1,0,0,1,504,485)" opacity="0.35000000000000003">
            <g opacity="1" transform="matrix(1,0,0,1,0,0)">
                <path fill="rgb(255,255,255)" fill-opacity="1"
                    d=" M-183,148 C-193.5,159.5 -174.5,292 -40,298 C-32.57400131225586,298.33099365234375 -42.36000061035156,250.73699951171875 -68,211.5 C-101,161 -154.5449981689453,116.83499908447266 -183,148z">
                </path>
            </g>
        </g>
    </g>
</svg>